<svg width="100%" height="100%" viewBox="0 0 751 406" version="1.1" xmlns="http://www.w3.org/2000/svg" xmlns:xlink="http://www.w3.org/1999/xlink" xml:space="preserve" xmlns:serif="http://www.serif.com/" style="fill-rule:evenodd;clip-rule:evenodd;stroke-linejoin:round;stroke-miterlimit:1.41421;"><rect x="675.391" y="300.391" width="75" height="75" style="fill:url(#1_Linear1);"/><text x="702.818px" y="350.775px" style="font-family:'ArialMT', 'Arial', sans-serif;font-size:36px;">L</text><rect x="675.391" y="300.391" width="75" height="75" style="fill:none;stroke:#5f3c80;stroke-width:0.78px;"/><g><g transform="matrix(0.75,0,0,0.75,449.108,-1567.24)"><text x="151.376px" y="2617.93px" style="font-family:'ArialMT', 'Arial', sans-serif;font-size:36px;">f</text><text x="161.377px" y="2629.92px" style="font-family:'ArialMT', 'Arial', sans-serif;font-size:20.988px;">2</text><text x="178.881px" y="2617.93px" style="font-family:'ArialMT', 'Arial', sans-serif;font-size:36px;">f</text><text x="188.883px" y="2629.92px" style="font-family:'ArialMT', 'Arial', sans-serif;font-size:20.988px;">0</text></g><rect x="607.891" y="375.391" width="30" height="30" style="fill:url(#1_Linear2);stroke:#7e4d25;stroke-width:0.78px;"/><rect x="562.891" y="300.391" width="75" height="75" style="fill:url(#1_Linear3);"/><text x="587.928px" y="350.775px" style="font-family:'ArialMT', 'Arial', sans-serif;font-size:36px;">E</text><rect x="562.891" y="300.391" width="75" height="75" style="fill:none;stroke:#7e4d25;stroke-width:0.78px;"/></g><rect x="450.391" y="300.391" width="75" height="75" style="fill:url(#1_Linear4);"/><text x="476.834px" y="350.775px" style="font-family:'ArialMT', 'Arial', sans-serif;font-size:36px;">T</text><rect x="450.391" y="300.391" width="75" height="75" style="fill:none;stroke:#478a38;stroke-width:0.78px;"/><g><g transform="matrix(0.75,0,0,0.75,224.108,-1567.24)"><text x="151.376px" y="2617.93px" style="font-family:'ArialMT', 'Arial', sans-serif;font-size:36px;">f</text><text x="161.377px" y="2629.92px" style="font-family:'ArialMT', 'Arial', sans-serif;font-size:20.988px;">2</text><text x="178.881px" y="2617.93px" style="font-family:'ArialMT', 'Arial', sans-serif;font-size:36px;">f</text><text x="188.883px" y="2629.92px" style="font-family:'ArialMT', 'Arial', sans-serif;font-size:20.988px;">0</text></g><rect x="382.891" y="375.391" width="30" height="30" style="fill:url(#1_Linear5);stroke:#7e4d25;stroke-width:0.78px;"/><rect x="337.891" y="300.391" width="75" height="75" style="fill:url(#1_Linear6);"/><text x="362.928px" y="350.775px" style="font-family:'ArialMT', 'Arial', sans-serif;font-size:36px;">E</text><rect x="337.891" y="300.391" width="75" height="75" style="fill:none;stroke:#7e4d25;stroke-width:0.78px;"/></g><rect x="225.391" y="300.391" width="75" height="75" style="fill:url(#1_Linear7);"/><text x="251.834px" y="350.775px" style="font-family:'ArialMT', 'Arial', sans-serif;font-size:36px;">T</text><rect x="225.391" y="300.391" width="75" height="75" style="fill:none;stroke:#478a38;stroke-width:0.78px;"/><g><g transform="matrix(0.75,0,0,0.75,-0.891522,-1567.24)"><text x="151.376px" y="2617.93px" style="font-family:'ArialMT', 'Arial', sans-serif;font-size:36px;">f</text><text x="161.377px" y="2629.92px" style="font-family:'ArialMT', 'Arial', sans-serif;font-size:20.988px;">2</text><text x="178.881px" y="2617.93px" style="font-family:'ArialMT', 'Arial', sans-serif;font-size:36px;">f</text><text x="188.883px" y="2629.92px" style="font-family:'ArialMT', 'Arial', sans-serif;font-size:20.988px;">0</text></g><rect x="157.891" y="375.391" width="30" height="30" style="fill:url(#1_Linear8);stroke:#7e4d25;stroke-width:0.78px;"/><rect x="112.891" y="300.391" width="75" height="75" style="fill:url(#1_Linear9);"/><text x="138.323px" y="350.775px" style="font-family:'ArialMT', 'Arial', sans-serif;font-size:36px;">E</text><rect x="112.891" y="300.391" width="75" height="75" style="fill:none;stroke:#7e4d25;stroke-width:0.78px;"/></g><rect x="0.391" y="300.391" width="75" height="75" style="fill:url(#1_Linear10);"/><text x="26.834px" y="350.775px" style="font-family:'ArialMT', 'Arial', sans-serif;font-size:36px;">T</text><rect x="0.391" y="300.391" width="75" height="75" style="fill:none;stroke:#478a38;stroke-width:0.78px;"/><rect id="_1" serif:id="1" x="637.891" y="322.891" width="37.5" height="30" style="fill:none;"/><clipPath id="1_clip11"><rect x="637.891" y="322.891" width="37.5" height="30"/></clipPath><g clip-path="url(#1_clip11)"><path d="M675.391,337.891l-8.24,4.119l0,-8.239l8.24,4.12Z" style="stroke:#000;stroke-width:0.23px;stroke-linecap:round;stroke-miterlimit:1.5;"/><path d="M667.151,337.891l-29.26,0" style="fill:none;stroke:#000;stroke-width:2px;stroke-linecap:round;stroke-miterlimit:1.5;"/></g><rect id="_11" serif:id="1" x="525.391" y="322.891" width="37.5" height="30" style="fill:none;"/><clipPath id="1_clip12"><rect x="525.391" y="322.891" width="37.5" height="30"/></clipPath><g clip-path="url(#1_clip12)"><path d="M562.891,337.891l-8.24,4.119l0,-8.239l8.24,4.12Z" style="stroke:#000;stroke-width:0.23px;stroke-linecap:round;stroke-miterlimit:1.5;"/><path d="M554.651,337.891l-29.26,0" style="fill:none;stroke:#000;stroke-width:2px;stroke-linecap:round;stroke-miterlimit:1.5;"/></g><rect id="_12" serif:id="1" x="412.891" y="322.891" width="37.5" height="30" style="fill:none;"/><clipPath id="1_clip13"><rect x="412.891" y="322.891" width="37.5" height="30"/></clipPath><g clip-path="url(#1_clip13)"><path d="M450.391,337.891l-8.24,4.119l0,-8.239l8.24,4.12Z" style="stroke:#000;stroke-width:0.23px;stroke-linecap:round;stroke-miterlimit:1.5;"/><path d="M442.151,337.891l-29.26,0" style="fill:none;stroke:#000;stroke-width:2px;stroke-linecap:round;stroke-miterlimit:1.5;"/></g><rect id="_13" serif:id="1" x="300.391" y="322.891" width="37.5" height="30" style="fill:none;"/><clipPath id="1_clip14"><rect x="300.391" y="322.891" width="37.5" height="30"/></clipPath><g clip-path="url(#1_clip14)"><path d="M337.891,337.891l-8.24,4.119l0,-8.239l8.24,4.12Z" style="stroke:#000;stroke-width:0.23px;stroke-linecap:round;stroke-miterlimit:1.5;"/><path d="M329.651,337.891l-29.26,0" style="fill:none;stroke:#000;stroke-width:2px;stroke-linecap:round;stroke-miterlimit:1.5;"/></g><rect id="_14" serif:id="1" x="187.891" y="322.891" width="37.5" height="30" style="fill:none;"/><clipPath id="1_clip15"><rect x="187.891" y="322.891" width="37.5" height="30"/></clipPath><g clip-path="url(#1_clip15)"><path d="M225.391,337.891l-8.24,4.119l0,-8.239l8.24,4.12Z" style="stroke:#000;stroke-width:0.23px;stroke-linecap:round;stroke-miterlimit:1.5;"/><path d="M217.151,337.891l-29.26,0" style="fill:none;stroke:#000;stroke-width:2px;stroke-linecap:round;stroke-miterlimit:1.5;"/></g><rect id="_15" serif:id="1" x="75.391" y="322.891" width="37.5" height="30" style="fill:none;"/><clipPath id="1_clip16"><rect x="75.391" y="322.891" width="37.5" height="30"/></clipPath><g clip-path="url(#1_clip16)"><path d="M112.891,337.891l-8.24,4.119l0,-8.239l8.24,4.12Z" style="stroke:#000;stroke-width:0.23px;stroke-linecap:round;stroke-miterlimit:1.5;"/><path d="M104.651,337.891l-29.26,0" style="fill:none;stroke:#000;stroke-width:2px;stroke-linecap:round;stroke-miterlimit:1.5;"/></g><rect x="675.391" y="150.391" width="75" height="75" style="fill:url(#1_Linear17);"/><text x="702.818px" y="200.775px" style="font-family:'ArialMT', 'Arial', sans-serif;font-size:36px;">L</text><rect x="675.391" y="150.391" width="75" height="75" style="fill:none;stroke:#5f3c80;stroke-width:0.78px;"/><g><g transform="matrix(0.75,0,0,0.75,449.108,-1717.24)"><text x="151.376px" y="2617.93px" style="font-family:'ArialMT', 'Arial', sans-serif;font-size:36px;">f</text><text x="161.377px" y="2629.92px" style="font-family:'ArialMT', 'Arial', sans-serif;font-size:20.988px;">1</text><text x="178.881px" y="2617.93px" style="font-family:'ArialMT', 'Arial', sans-serif;font-size:36px;">f</text><text x="188.883px" y="2629.92px" style="font-family:'ArialMT', 'Arial', sans-serif;font-size:20.988px;">2</text></g><rect x="607.891" y="225.391" width="30" height="30" style="fill:url(#1_Linear18);stroke:#7e4d25;stroke-width:0.78px;"/><rect x="562.891" y="150.391" width="75" height="75" style="fill:url(#1_Linear19);"/><text x="587.928px" y="200.775px" style="font-family:'ArialMT', 'Arial', sans-serif;font-size:36px;">E</text><rect x="562.891" y="150.391" width="75" height="75" style="fill:none;stroke:#7e4d25;stroke-width:0.78px;"/></g><rect x="450.391" y="150.391" width="75" height="75" style="fill:url(#1_Linear20);"/><text x="476.834px" y="200.775px" style="font-family:'ArialMT', 'Arial', sans-serif;font-size:36px;">T</text><rect x="450.391" y="150.391" width="75" height="75" style="fill:none;stroke:#478a38;stroke-width:0.78px;"/><g><g transform="matrix(0.75,0,0,0.75,224.108,-1717.24)"><text x="151.376px" y="2617.93px" style="font-family:'ArialMT', 'Arial', sans-serif;font-size:36px;">f</text><text x="161.377px" y="2629.92px" style="font-family:'ArialMT', 'Arial', sans-serif;font-size:20.988px;">1</text><text x="178.881px" y="2617.93px" style="font-family:'ArialMT', 'Arial', sans-serif;font-size:36px;">f</text><text x="188.883px" y="2629.92px" style="font-family:'ArialMT', 'Arial', sans-serif;font-size:20.988px;">2</text></g><rect x="382.891" y="225.391" width="30" height="30" style="fill:url(#1_Linear21);stroke:#7e4d25;stroke-width:0.78px;"/><rect x="337.891" y="150.391" width="75" height="75" style="fill:url(#1_Linear22);"/><text x="362.928px" y="200.775px" style="font-family:'ArialMT', 'Arial', sans-serif;font-size:36px;">E</text><rect x="337.891" y="150.391" width="75" height="75" style="fill:none;stroke:#7e4d25;stroke-width:0.78px;"/></g><rect x="225.391" y="150.391" width="75" height="75" style="fill:url(#1_Linear23);"/><text x="251.834px" y="200.775px" style="font-family:'ArialMT', 'Arial', sans-serif;font-size:36px;">T</text><rect x="225.391" y="150.391" width="75" height="75" style="fill:none;stroke:#478a38;stroke-width:0.78px;"/><g><g transform="matrix(0.75,0,0,0.75,-0.891522,-1717.24)"><text x="151.376px" y="2617.93px" style="font-family:'ArialMT', 'Arial', sans-serif;font-size:36px;">f</text><text x="161.377px" y="2629.92px" style="font-family:'ArialMT', 'Arial', sans-serif;font-size:20.988px;">1</text><text x="178.881px" y="2617.93px" style="font-family:'ArialMT', 'Arial', sans-serif;font-size:36px;">f</text><text x="188.883px" y="2629.92px" style="font-family:'ArialMT', 'Arial', sans-serif;font-size:20.988px;">2</text></g><rect x="157.891" y="225.391" width="30" height="30" style="fill:url(#1_Linear24);stroke:#7e4d25;stroke-width:0.78px;"/><rect x="112.891" y="150.391" width="75" height="75" style="fill:url(#1_Linear25);"/><text x="138.323px" y="200.775px" style="font-family:'ArialMT', 'Arial', sans-serif;font-size:36px;">E</text><rect x="112.891" y="150.391" width="75" height="75" style="fill:none;stroke:#7e4d25;stroke-width:0.78px;"/></g><rect x="0.391" y="150.391" width="75" height="75" style="fill:url(#1_Linear26);"/><text x="26.834px" y="200.775px" style="font-family:'ArialMT', 'Arial', sans-serif;font-size:36px;">T</text><rect x="0.391" y="150.391" width="75" height="75" style="fill:none;stroke:#478a38;stroke-width:0.78px;"/><rect id="_16" serif:id="1" x="637.891" y="172.891" width="37.5" height="30" style="fill:none;"/><clipPath id="1_clip27"><rect x="637.891" y="172.891" width="37.5" height="30"/></clipPath><g clip-path="url(#1_clip27)"><path d="M675.391,187.891l-8.24,4.119l0,-8.239l8.24,4.12Z" style="stroke:#000;stroke-width:0.23px;stroke-linecap:round;stroke-miterlimit:1.5;"/><path d="M667.151,187.891l-29.26,0" style="fill:none;stroke:#000;stroke-width:2px;stroke-linecap:round;stroke-miterlimit:1.5;"/></g><rect id="_17" serif:id="1" x="525.391" y="172.891" width="37.5" height="30" style="fill:none;"/><clipPath id="1_clip28"><rect x="525.391" y="172.891" width="37.5" height="30"/></clipPath><g clip-path="url(#1_clip28)"><path d="M562.891,187.891l-8.24,4.119l0,-8.239l8.24,4.12Z" style="stroke:#000;stroke-width:0.23px;stroke-linecap:round;stroke-miterlimit:1.5;"/><path d="M554.651,187.891l-29.26,0" style="fill:none;stroke:#000;stroke-width:2px;stroke-linecap:round;stroke-miterlimit:1.5;"/></g><rect id="_18" serif:id="1" x="412.891" y="172.891" width="37.5" height="30" style="fill:none;"/><clipPath id="1_clip29"><rect x="412.891" y="172.891" width="37.5" height="30"/></clipPath><g clip-path="url(#1_clip29)"><path d="M450.391,187.891l-8.24,4.119l0,-8.239l8.24,4.12Z" style="stroke:#000;stroke-width:0.23px;stroke-linecap:round;stroke-miterlimit:1.5;"/><path d="M442.151,187.891l-29.26,0" style="fill:none;stroke:#000;stroke-width:2px;stroke-linecap:round;stroke-miterlimit:1.5;"/></g><rect id="_19" serif:id="1" x="300.391" y="172.891" width="37.5" height="30" style="fill:none;"/><clipPath id="1_clip30"><rect x="300.391" y="172.891" width="37.5" height="30"/></clipPath><g clip-path="url(#1_clip30)"><path d="M337.891,187.891l-8.24,4.119l0,-8.239l8.24,4.12Z" style="stroke:#000;stroke-width:0.23px;stroke-linecap:round;stroke-miterlimit:1.5;"/><path d="M329.651,187.891l-29.26,0" style="fill:none;stroke:#000;stroke-width:2px;stroke-linecap:round;stroke-miterlimit:1.5;"/></g><rect id="_110" serif:id="1" x="187.891" y="172.891" width="37.5" height="30" style="fill:none;"/><clipPath id="1_clip31"><rect x="187.891" y="172.891" width="37.5" height="30"/></clipPath><g clip-path="url(#1_clip31)"><path d="M225.391,187.891l-8.24,4.119l0,-8.239l8.24,4.12Z" style="stroke:#000;stroke-width:0.23px;stroke-linecap:round;stroke-miterlimit:1.5;"/><path d="M217.151,187.891l-29.26,0" style="fill:none;stroke:#000;stroke-width:2px;stroke-linecap:round;stroke-miterlimit:1.5;"/></g><rect id="_111" serif:id="1" x="75.391" y="172.891" width="37.5" height="30" style="fill:none;"/><clipPath id="1_clip32"><rect x="75.391" y="172.891" width="37.5" height="30"/></clipPath><g clip-path="url(#1_clip32)"><path d="M112.891,187.891l-8.24,4.119l0,-8.239l8.24,4.12Z" style="stroke:#000;stroke-width:0.23px;stroke-linecap:round;stroke-miterlimit:1.5;"/><path d="M104.651,187.891l-29.26,0" style="fill:none;stroke:#000;stroke-width:2px;stroke-linecap:round;stroke-miterlimit:1.5;"/></g><rect x="675.391" y="0.391" width="75" height="75" style="fill:url(#1_Linear33);"/><text x="702.818px" y="50.775px" style="font-family:'ArialMT', 'Arial', sans-serif;font-size:36px;">L</text><rect x="675.391" y="0.391" width="75" height="75" style="fill:none;stroke:#5f3c80;stroke-width:0.78px;"/><g><g transform="matrix(0.75,0,0,0.75,449.108,-1867.24)"><text x="151.376px" y="2617.93px" style="font-family:'ArialMT', 'Arial', sans-serif;font-size:36px;">f</text><text x="161.377px" y="2629.92px" style="font-family:'ArialMT', 'Arial', sans-serif;font-size:20.988px;">0</text><text x="178.881px" y="2617.93px" style="font-family:'ArialMT', 'Arial', sans-serif;font-size:36px;">f</text><text x="188.883px" y="2629.92px" style="font-family:'ArialMT', 'Arial', sans-serif;font-size:20.988px;">1</text></g><rect x="607.891" y="75.391" width="30" height="30" style="fill:url(#1_Linear34);stroke:#7e4d25;stroke-width:0.78px;"/><rect x="562.891" y="0.391" width="75" height="75" style="fill:url(#1_Linear35);"/><text x="587.928px" y="50.775px" style="font-family:'ArialMT', 'Arial', sans-serif;font-size:36px;">E</text><rect x="562.891" y="0.391" width="75" height="75" style="fill:none;stroke:#7e4d25;stroke-width:0.78px;"/></g><rect x="450.391" y="0.391" width="75" height="75" style="fill:url(#1_Linear36);"/><text x="476.834px" y="50.775px" style="font-family:'ArialMT', 'Arial', sans-serif;font-size:36px;">T</text><rect x="450.391" y="0.391" width="75" height="75" style="fill:none;stroke:#478a38;stroke-width:0.78px;"/><g><g transform="matrix(0.75,0,0,0.75,224.108,-1867.24)"><text x="151.376px" y="2617.93px" style="font-family:'ArialMT', 'Arial', sans-serif;font-size:36px;">f</text><text x="161.377px" y="2629.92px" style="font-family:'ArialMT', 'Arial', sans-serif;font-size:20.988px;">0</text><text x="178.881px" y="2617.93px" style="font-family:'ArialMT', 'Arial', sans-serif;font-size:36px;">f</text><text x="188.883px" y="2629.92px" style="font-family:'ArialMT', 'Arial', sans-serif;font-size:20.988px;">1</text></g><rect x="382.891" y="75.391" width="30" height="30" style="fill:url(#1_Linear37);stroke:#7e4d25;stroke-width:0.78px;"/><rect x="337.891" y="0.391" width="75" height="75" style="fill:url(#1_Linear38);"/><text x="362.928px" y="50.775px" style="font-family:'ArialMT', 'Arial', sans-serif;font-size:36px;">E</text><rect x="337.891" y="0.391" width="75" height="75" style="fill:none;stroke:#7e4d25;stroke-width:0.78px;"/></g><rect x="225.391" y="0.391" width="75" height="75" style="fill:url(#1_Linear39);"/><text x="251.834px" y="50.775px" style="font-family:'ArialMT', 'Arial', sans-serif;font-size:36px;">T</text><rect x="225.391" y="0.391" width="75" height="75" style="fill:none;stroke:#478a38;stroke-width:0.78px;"/><g><g transform="matrix(0.75,0,0,0.75,-0.891522,-1867.24)"><text x="151.376px" y="2617.93px" style="font-family:'ArialMT', 'Arial', sans-serif;font-size:36px;">f</text><text x="161.377px" y="2629.92px" style="font-family:'ArialMT', 'Arial', sans-serif;font-size:20.988px;">0</text><text x="178.881px" y="2617.93px" style="font-family:'ArialMT', 'Arial', sans-serif;font-size:36px;">f</text><text x="188.883px" y="2629.92px" style="font-family:'ArialMT', 'Arial', sans-serif;font-size:20.988px;">1</text></g><rect x="157.891" y="75.391" width="30" height="30" style="fill:url(#1_Linear40);stroke:#7e4d25;stroke-width:0.78px;"/><rect x="112.891" y="0.391" width="75" height="75" style="fill:url(#1_Linear41);"/><text x="138.323px" y="50.775px" style="font-family:'ArialMT', 'Arial', sans-serif;font-size:36px;">E</text><rect x="112.891" y="0.391" width="75" height="75" style="fill:none;stroke:#7e4d25;stroke-width:0.78px;"/></g><rect x="0.391" y="0.391" width="75" height="75" style="fill:url(#1_Linear42);"/><text x="26.834px" y="50.775px" style="font-family:'ArialMT', 'Arial', sans-serif;font-size:36px;">T</text><rect x="0.391" y="0.391" width="75" height="75" style="fill:none;stroke:#478a38;stroke-width:0.78px;"/><rect id="_112" serif:id="1" x="637.891" y="22.891" width="37.5" height="30" style="fill:none;"/><clipPath id="1_clip43"><rect x="637.891" y="22.891" width="37.5" height="30"/></clipPath><g clip-path="url(#1_clip43)"><path d="M675.391,37.891l-8.24,4.119l0,-8.239l8.24,4.12Z" style="stroke:#000;stroke-width:0.23px;stroke-linecap:round;stroke-miterlimit:1.5;"/><path d="M667.151,37.891l-29.26,0" style="fill:none;stroke:#000;stroke-width:2px;stroke-linecap:round;stroke-miterlimit:1.5;"/></g><rect id="_113" serif:id="1" x="525.391" y="22.891" width="37.5" height="30" style="fill:none;"/><clipPath id="1_clip44"><rect x="525.391" y="22.891" width="37.5" height="30"/></clipPath><g clip-path="url(#1_clip44)"><path d="M562.891,37.891l-8.24,4.119l0,-8.239l8.24,4.12Z" style="stroke:#000;stroke-width:0.23px;stroke-linecap:round;stroke-miterlimit:1.5;"/><path d="M554.651,37.891l-29.26,0" style="fill:none;stroke:#000;stroke-width:2px;stroke-linecap:round;stroke-miterlimit:1.5;"/></g><rect id="_114" serif:id="1" x="412.891" y="22.891" width="37.5" height="30" style="fill:none;"/><clipPath id="1_clip45"><rect x="412.891" y="22.891" width="37.5" height="30"/></clipPath><g clip-path="url(#1_clip45)"><path d="M450.391,37.891l-8.24,4.119l0,-8.239l8.24,4.12Z" style="stroke:#000;stroke-width:0.23px;stroke-linecap:round;stroke-miterlimit:1.5;"/><path d="M442.151,37.891l-29.26,0" style="fill:none;stroke:#000;stroke-width:2px;stroke-linecap:round;stroke-miterlimit:1.5;"/></g><rect id="_115" serif:id="1" x="300.391" y="22.891" width="37.5" height="30" style="fill:none;"/><clipPath id="1_clip46"><rect x="300.391" y="22.891" width="37.5" height="30"/></clipPath><g clip-path="url(#1_clip46)"><path d="M337.891,37.891l-8.24,4.119l0,-8.239l8.24,4.12Z" style="stroke:#000;stroke-width:0.23px;stroke-linecap:round;stroke-miterlimit:1.5;"/><path d="M329.651,37.891l-29.26,0" style="fill:none;stroke:#000;stroke-width:2px;stroke-linecap:round;stroke-miterlimit:1.5;"/></g><rect id="_116" serif:id="1" x="187.891" y="22.891" width="37.5" height="30" style="fill:none;"/><clipPath id="1_clip47"><rect x="187.891" y="22.891" width="37.5" height="30"/></clipPath><g clip-path="url(#1_clip47)"><path d="M225.391,37.891l-8.24,4.119l0,-8.239l8.24,4.12Z" style="stroke:#000;stroke-width:0.23px;stroke-linecap:round;stroke-miterlimit:1.5;"/><path d="M217.151,37.891l-29.26,0" style="fill:none;stroke:#000;stroke-width:2px;stroke-linecap:round;stroke-miterlimit:1.5;"/></g><rect id="_117" serif:id="1" x="75.391" y="22.891" width="37.5" height="30" style="fill:none;"/><clipPath id="1_clip48"><rect x="75.391" y="22.891" width="37.5" height="30"/></clipPath><g clip-path="url(#1_clip48)"><path d="M112.891,37.891l-8.24,4.119l0,-8.239l8.24,4.12Z" style="stroke:#000;stroke-width:0.23px;stroke-linecap:round;stroke-miterlimit:1.5;"/><path d="M104.651,37.891l-29.26,0" style="fill:none;stroke:#000;stroke-width:2px;stroke-linecap:round;stroke-miterlimit:1.5;"/></g><defs><linearGradient id="1_Linear1" x1="0" y1="0" x2="1" y2="0" gradientUnits="userSpaceOnUse" gradientTransform="matrix(4.22728e-15,69.0367,-69.0367,4.22728e-15,711.4,302.311)"><stop offset="0" style="stop-color:#c17aff;stop-opacity:1"/><stop offset="1" style="stop-color:#5d258d;stop-opacity:1"/></linearGradient><linearGradient id="1_Linear2" x1="0" y1="0" x2="1" y2="0" gradientUnits="userSpaceOnUse" gradientTransform="matrix(1.61161e-15,26.3196,-26.3196,1.61161e-15,622.437,376.686)"><stop offset="0" style="stop-color:#ffa052;stop-opacity:1"/><stop offset="1" style="stop-color:#b35c00;stop-opacity:1"/></linearGradient><linearGradient id="1_Linear3" x1="0" y1="0" x2="1" y2="0" gradientUnits="userSpaceOnUse" gradientTransform="matrix(4.02903e-15,65.799,-65.799,4.02903e-15,599.257,303.628)"><stop offset="0" style="stop-color:#ffa052;stop-opacity:1"/><stop offset="1" style="stop-color:#b35c00;stop-opacity:1"/></linearGradient><linearGradient id="1_Linear4" x1="0" y1="0" x2="1" y2="0" gradientUnits="userSpaceOnUse" gradientTransform="matrix(4.22728e-15,69.0367,-69.0367,4.22728e-15,486.4,302.311)"><stop offset="0" style="stop-color:#7fff7a;stop-opacity:1"/><stop offset="1" style="stop-color:#298d25;stop-opacity:1"/></linearGradient><linearGradient id="1_Linear5" x1="0" y1="0" x2="1" y2="0" gradientUnits="userSpaceOnUse" gradientTransform="matrix(1.61161e-15,26.3196,-26.3196,1.61161e-15,397.437,376.686)"><stop offset="0" style="stop-color:#ffa052;stop-opacity:1"/><stop offset="1" style="stop-color:#b35c00;stop-opacity:1"/></linearGradient><linearGradient id="1_Linear6" x1="0" y1="0" x2="1" y2="0" gradientUnits="userSpaceOnUse" gradientTransform="matrix(4.02903e-15,65.799,-65.799,4.02903e-15,374.257,303.628)"><stop offset="0" style="stop-color:#ffa052;stop-opacity:1"/><stop offset="1" style="stop-color:#b35c00;stop-opacity:1"/></linearGradient><linearGradient id="1_Linear7" x1="0" y1="0" x2="1" y2="0" gradientUnits="userSpaceOnUse" gradientTransform="matrix(4.22728e-15,69.0367,-69.0367,4.22728e-15,261.4,302.311)"><stop offset="0" style="stop-color:#7fff7a;stop-opacity:1"/><stop offset="1" style="stop-color:#298d25;stop-opacity:1"/></linearGradient><linearGradient id="1_Linear8" x1="0" y1="0" x2="1" y2="0" gradientUnits="userSpaceOnUse" gradientTransform="matrix(1.61161e-15,26.3196,-26.3196,1.61161e-15,172.437,376.686)"><stop offset="0" style="stop-color:#ffa052;stop-opacity:1"/><stop offset="1" style="stop-color:#b35c00;stop-opacity:1"/></linearGradient><linearGradient id="1_Linear9" x1="0" y1="0" x2="1" y2="0" gradientUnits="userSpaceOnUse" gradientTransform="matrix(4.02903e-15,65.799,-65.799,4.02903e-15,149.257,303.628)"><stop offset="0" style="stop-color:#ffa052;stop-opacity:1"/><stop offset="1" style="stop-color:#b35c00;stop-opacity:1"/></linearGradient><linearGradient id="1_Linear10" x1="0" y1="0" x2="1" y2="0" gradientUnits="userSpaceOnUse" gradientTransform="matrix(4.22728e-15,69.0367,-69.0367,4.22728e-15,36.3998,302.311)"><stop offset="0" style="stop-color:#7fff7a;stop-opacity:1"/><stop offset="1" style="stop-color:#298d25;stop-opacity:1"/></linearGradient><linearGradient id="1_Linear17" x1="0" y1="0" x2="1" y2="0" gradientUnits="userSpaceOnUse" gradientTransform="matrix(4.22728e-15,69.0367,-69.0367,4.22728e-15,711.4,152.311)"><stop offset="0" style="stop-color:#c17aff;stop-opacity:1"/><stop offset="1" style="stop-color:#5d258d;stop-opacity:1"/></linearGradient><linearGradient id="1_Linear18" x1="0" y1="0" x2="1" y2="0" gradientUnits="userSpaceOnUse" gradientTransform="matrix(1.61161e-15,26.3196,-26.3196,1.61161e-15,622.437,226.686)"><stop offset="0" style="stop-color:#ffa052;stop-opacity:1"/><stop offset="1" style="stop-color:#b35c00;stop-opacity:1"/></linearGradient><linearGradient id="1_Linear19" x1="0" y1="0" x2="1" y2="0" gradientUnits="userSpaceOnUse" gradientTransform="matrix(4.02903e-15,65.799,-65.799,4.02903e-15,599.257,153.628)"><stop offset="0" style="stop-color:#ffa052;stop-opacity:1"/><stop offset="1" style="stop-color:#b35c00;stop-opacity:1"/></linearGradient><linearGradient id="1_Linear20" x1="0" y1="0" x2="1" y2="0" gradientUnits="userSpaceOnUse" gradientTransform="matrix(4.22728e-15,69.0367,-69.0367,4.22728e-15,486.4,152.311)"><stop offset="0" style="stop-color:#7fff7a;stop-opacity:1"/><stop offset="1" style="stop-color:#298d25;stop-opacity:1"/></linearGradient><linearGradient id="1_Linear21" x1="0" y1="0" x2="1" y2="0" gradientUnits="userSpaceOnUse" gradientTransform="matrix(1.61161e-15,26.3196,-26.3196,1.61161e-15,397.437,226.686)"><stop offset="0" style="stop-color:#ffa052;stop-opacity:1"/><stop offset="1" style="stop-color:#b35c00;stop-opacity:1"/></linearGradient><linearGradient id="1_Linear22" x1="0" y1="0" x2="1" y2="0" gradientUnits="userSpaceOnUse" gradientTransform="matrix(4.02903e-15,65.799,-65.799,4.02903e-15,374.257,153.628)"><stop offset="0" style="stop-color:#ffa052;stop-opacity:1"/><stop offset="1" style="stop-color:#b35c00;stop-opacity:1"/></linearGradient><linearGradient id="1_Linear23" x1="0" y1="0" x2="1" y2="0" gradientUnits="userSpaceOnUse" gradientTransform="matrix(4.22728e-15,69.0367,-69.0367,4.22728e-15,261.4,152.311)"><stop offset="0" style="stop-color:#7fff7a;stop-opacity:1"/><stop offset="1" style="stop-color:#298d25;stop-opacity:1"/></linearGradient><linearGradient id="1_Linear24" x1="0" y1="0" x2="1" y2="0" gradientUnits="userSpaceOnUse" gradientTransform="matrix(1.61161e-15,26.3196,-26.3196,1.61161e-15,172.437,226.686)"><stop offset="0" style="stop-color:#ffa052;stop-opacity:1"/><stop offset="1" style="stop-color:#b35c00;stop-opacity:1"/></linearGradient><linearGradient id="1_Linear25" x1="0" y1="0" x2="1" y2="0" gradientUnits="userSpaceOnUse" gradientTransform="matrix(4.02903e-15,65.799,-65.799,4.02903e-15,149.257,153.628)"><stop offset="0" style="stop-color:#ffa052;stop-opacity:1"/><stop offset="1" style="stop-color:#b35c00;stop-opacity:1"/></linearGradient><linearGradient id="1_Linear26" x1="0" y1="0" x2="1" y2="0" gradientUnits="userSpaceOnUse" gradientTransform="matrix(4.22728e-15,69.0367,-69.0367,4.22728e-15,36.3998,152.311)"><stop offset="0" style="stop-color:#7fff7a;stop-opacity:1"/><stop offset="1" style="stop-color:#298d25;stop-opacity:1"/></linearGradient><linearGradient id="1_Linear33" x1="0" y1="0" x2="1" y2="0" gradientUnits="userSpaceOnUse" gradientTransform="matrix(4.22728e-15,69.0367,-69.0367,4.22728e-15,711.4,2.31083)"><stop offset="0" style="stop-color:#c17aff;stop-opacity:1"/><stop offset="1" style="stop-color:#5d258d;stop-opacity:1"/></linearGradient><linearGradient id="1_Linear34" x1="0" y1="0" x2="1" y2="0" gradientUnits="userSpaceOnUse" gradientTransform="matrix(1.61161e-15,26.3196,-26.3196,1.61161e-15,622.437,76.6857)"><stop offset="0" style="stop-color:#ffa052;stop-opacity:1"/><stop offset="1" style="stop-color:#b35c00;stop-opacity:1"/></linearGradient><linearGradient id="1_Linear35" x1="0" y1="0" x2="1" y2="0" gradientUnits="userSpaceOnUse" gradientTransform="matrix(4.02903e-15,65.799,-65.799,4.02903e-15,599.257,3.6283)"><stop offset="0" style="stop-color:#ffa052;stop-opacity:1"/><stop offset="1" style="stop-color:#b35c00;stop-opacity:1"/></linearGradient><linearGradient id="1_Linear36" x1="0" y1="0" x2="1" y2="0" gradientUnits="userSpaceOnUse" gradientTransform="matrix(4.22728e-15,69.0367,-69.0367,4.22728e-15,486.4,2.31083)"><stop offset="0" style="stop-color:#7fff7a;stop-opacity:1"/><stop offset="1" style="stop-color:#298d25;stop-opacity:1"/></linearGradient><linearGradient id="1_Linear37" x1="0" y1="0" x2="1" y2="0" gradientUnits="userSpaceOnUse" gradientTransform="matrix(1.61161e-15,26.3196,-26.3196,1.61161e-15,397.437,76.6857)"><stop offset="0" style="stop-color:#ffa052;stop-opacity:1"/><stop offset="1" style="stop-color:#b35c00;stop-opacity:1"/></linearGradient><linearGradient id="1_Linear38" x1="0" y1="0" x2="1" y2="0" gradientUnits="userSpaceOnUse" gradientTransform="matrix(4.02903e-15,65.799,-65.799,4.02903e-15,374.257,3.6283)"><stop offset="0" style="stop-color:#ffa052;stop-opacity:1"/><stop offset="1" style="stop-color:#b35c00;stop-opacity:1"/></linearGradient><linearGradient id="1_Linear39" x1="0" y1="0" x2="1" y2="0" gradientUnits="userSpaceOnUse" gradientTransform="matrix(4.22728e-15,69.0367,-69.0367,4.22728e-15,261.4,2.31083)"><stop offset="0" style="stop-color:#7fff7a;stop-opacity:1"/><stop offset="1" style="stop-color:#298d25;stop-opacity:1"/></linearGradient><linearGradient id="1_Linear40" x1="0" y1="0" x2="1" y2="0" gradientUnits="userSpaceOnUse" gradientTransform="matrix(1.61161e-15,26.3196,-26.3196,1.61161e-15,172.437,76.6857)"><stop offset="0" style="stop-color:#ffa052;stop-opacity:1"/><stop offset="1" style="stop-color:#b35c00;stop-opacity:1"/></linearGradient><linearGradient id="1_Linear41" x1="0" y1="0" x2="1" y2="0" gradientUnits="userSpaceOnUse" gradientTransform="matrix(4.02903e-15,65.799,-65.799,4.02903e-15,149.257,3.6283)"><stop offset="0" style="stop-color:#ffa052;stop-opacity:1"/><stop offset="1" style="stop-color:#b35c00;stop-opacity:1"/></linearGradient><linearGradient id="1_Linear42" x1="0" y1="0" x2="1" y2="0" gradientUnits="userSpaceOnUse" gradientTransform="matrix(4.22728e-15,69.0367,-69.0367,4.22728e-15,36.3998,2.31083)"><stop offset="0" style="stop-color:#7fff7a;stop-opacity:1"/><stop offset="1" style="stop-color:#298d25;stop-opacity:1"/></linearGradient></defs></svg>