<svg width="100%" height="100%" viewBox="0 0 638 272" version="1.1" xmlns="http://www.w3.org/2000/svg" xmlns:xlink="http://www.w3.org/1999/xlink" xml:space="preserve" xmlns:serif="http://www.serif.com/" style="fill-rule:evenodd;clip-rule:evenodd;stroke-linejoin:round;stroke-miterlimit:1.41421;"><rect x="562.5" y="46.021" width="75" height="75" style="fill:url(#2_Linear1);"/><text x="589.928px" y="96.406px" style="font-family:'ArialMT', 'Arial', sans-serif;font-size:36px;">L</text><rect x="562.5" y="46.021" width="75" height="75" style="fill:none;stroke:#5f3c80;stroke-width:0.78px;"/><rect x="300" y="46.166" width="75" height="75" style="fill:url(#2_Linear2);"/><text x="325.433px" y="96.551px" style="font-family:'ArialMT', 'Arial', sans-serif;font-size:36px;">E</text><rect x="300" y="46.166" width="75" height="75" style="fill:none;stroke:#7e4d25;stroke-width:0.78px;"/><rect x="37.5" y="46.166" width="75" height="75" style="fill:url(#2_Linear3);"/><text x="63.943px" y="96.551px" style="font-family:'ArialMT', 'Arial', sans-serif;font-size:36px;">T</text><rect x="37.5" y="46.166" width="75" height="75" style="fill:none;stroke:#478a38;stroke-width:0.78px;"/><rect x="150" y="196.166" width="75" height="75" style="fill:url(#2_Linear4);"/><text x="163.444px" y="246.551px" style="font-family:'ArialMT', 'Arial', sans-serif;font-size:36px;">HT</text><rect x="150" y="196.166" width="75" height="75" style="fill:none;stroke:#478a38;stroke-width:0.78px;"/><text x="502.803px" y="78.066px" style="font-family:'ArialMT', 'Arial', sans-serif;font-size:18px;">cnt=3</text><text x="240.29px" y="12.938px" style="font-family:'ArialMT', 'Arial', sans-serif;font-size:18px;">cnt&lt;3</text><g transform="matrix(6.12323e-17,1,-1,6.12323e-17,327.999,-333.707)"><text x="466.636px" y="112.078px" style="font-family:'ArialMT', 'Arial', sans-serif;font-size:18px;">failure</text></g><text x="230.06px" y="78.211px" style="font-family:'ArialMT', 'Arial', sans-serif;font-size:18px;">success</text><path d="M225,64.916c0,-10.348 -8.402,-18.75 -18.75,-18.75l-37.5,0c-10.348,0 -18.75,8.402 -18.75,18.75l0,37.5c0,10.348 8.402,18.75 18.75,18.75l37.5,0c10.348,0 18.75,-8.402 18.75,-18.75l0,-37.5Z" style="fill:url(#2_Linear5);"/><clipPath id="2_clip6"><path d="M225,64.916c0,-10.348 -8.402,-18.75 -18.75,-18.75l-37.5,0c-10.348,0 -18.75,8.402 -18.75,18.75l0,37.5c0,10.348 8.402,18.75 18.75,18.75l37.5,0c10.348,0 18.75,-8.402 18.75,-18.75l0,-37.5Z"/></clipPath><g clip-path="url(#2_clip6)"><g transform="matrix(0.75,0,0,0.75,27.4681,-34.3686)"><text x="197.046px" y="153.243px" style="font-family:'ArialMT', 'Arial', sans-serif;font-size:24px;">get</text><text x="187.724px" y="178.028px" style="font-family:'ArialMT', 'Arial', sans-serif;font-size:24px;">forks</text></g></g><path d="M225,64.916c0,-10.348 -8.402,-18.75 -18.75,-18.75l-37.5,0c-10.348,0 -18.75,8.402 -18.75,18.75l0,37.5c0,10.348 8.402,18.75 18.75,18.75l37.5,0c10.348,0 18.75,-8.402 18.75,-18.75l0,-37.5Z" style="fill:none;stroke:#c98b26;stroke-width:0.78px;"/><path d="M487.5,64.916c0,-10.348 -8.402,-18.75 -18.75,-18.75l-37.5,0c-10.348,0 -18.75,8.402 -18.75,18.75l0,37.5c0,10.348 8.402,18.75 18.75,18.75l37.5,0c10.348,0 18.75,-8.402 18.75,-18.75l0,-37.5Z" style="fill:url(#2_Linear7);"/><clipPath id="2_clip8"><path d="M487.5,64.916c0,-10.348 -8.402,-18.75 -18.75,-18.75l-37.5,0c-10.348,0 -18.75,8.402 -18.75,18.75l0,37.5c0,10.348 8.402,18.75 18.75,18.75l37.5,0c10.348,0 18.75,-8.402 18.75,-18.75l0,-37.5Z"/></clipPath><g clip-path="url(#2_clip8)"><g transform="matrix(0.75,0,0,0.75,289.968,-34.3686)"><text x="174.37px" y="153.243px" style="font-family:'ArialMT', 'Arial', sans-serif;font-size:24px;">release</text><text x="187.724px" y="178.028px" style="font-family:'ArialMT', 'Arial', sans-serif;font-size:24px;">forks</text></g></g><path d="M487.5,64.916c0,-10.348 -8.402,-18.75 -18.75,-18.75l-37.5,0c-10.348,0 -18.75,8.402 -18.75,18.75l0,37.5c0,10.348 8.402,18.75 18.75,18.75l37.5,0c10.348,0 18.75,-8.402 18.75,-18.75l0,-37.5Z" style="fill:none;stroke:#c98b26;stroke-width:0.78px;"/><path id="_1" serif:id="1" d="M37.5,16.166l0,30l435,-0.145l0,-29.855l-435,0Z" style="fill:none;"/><clipPath id="2_clip9"><path d="M37.5,16.166l0,30l435,-0.145l0,-29.855l-435,0Z"/></clipPath><g clip-path="url(#2_clip9)"><path d="M52.5,46.166l-4.12,-8.24l8.24,0l-4.12,8.24Z" style="stroke:#000;stroke-width:0.23px;stroke-linecap:round;stroke-miterlimit:1.5;"/><path d="M52.5,38.333l0,-20.667l418.5,0l0,28.355" style="fill:none;stroke:#000;stroke-width:2px;stroke-linecap:round;stroke-miterlimit:1.5;"/></g><rect id="_11" serif:id="1" x="487.5" y="68.521" width="75" height="30" style="fill:none;"/><clipPath id="2_clip10"><rect x="487.5" y="68.521" width="75" height="30"/></clipPath><g clip-path="url(#2_clip10)"><path d="M562.5,83.521l-8.24,4.12l0,-8.24l8.24,4.12Z" style="stroke:#000;stroke-width:0.23px;stroke-linecap:round;stroke-miterlimit:1.5;"/><path d="M554.26,83.521l-66.76,0" style="fill:none;stroke:#000;stroke-width:2px;stroke-linecap:round;stroke-miterlimit:1.5;"/></g><rect id="_12" serif:id="1" x="375" y="68.666" width="37.5" height="30" style="fill:none;"/><clipPath id="2_clip11"><rect x="375" y="68.666" width="37.5" height="30"/></clipPath><g clip-path="url(#2_clip11)"><path d="M412.5,83.666l-8.24,4.12l0,-8.24l8.24,4.12Z" style="stroke:#000;stroke-width:0.23px;stroke-linecap:round;stroke-miterlimit:1.5;"/><path d="M404.26,83.666l-29.26,0" style="fill:none;stroke:#000;stroke-width:2px;stroke-linecap:round;stroke-miterlimit:1.5;"/></g><rect id="_13" serif:id="1" x="225" y="68.666" width="75" height="30" style="fill:none;"/><clipPath id="2_clip12"><rect x="225" y="68.666" width="75" height="30"/></clipPath><g clip-path="url(#2_clip12)"><path d="M300,83.666l-8.24,4.12l0,-8.24l8.24,4.12Z" style="stroke:#000;stroke-width:0.23px;stroke-linecap:round;stroke-miterlimit:1.5;"/><path d="M291.76,83.666l-66.76,0" style="fill:none;stroke:#000;stroke-width:2px;stroke-linecap:round;stroke-miterlimit:1.5;"/></g><path id="_14" serif:id="1" d="M195,121.166l0,75l30,0l0,-75l-30,0Z" style="fill:none;"/><clipPath id="2_clip13"><path d="M195,121.166l0,75l30,0l0,-75l-30,0Z"/></clipPath><g clip-path="url(#2_clip13)"><path d="M210,196.166l-4.12,-8.24l8.24,0l-4.12,8.24Z" style="stroke:#000;stroke-width:0.23px;stroke-linecap:round;stroke-miterlimit:1.5;"/><path d="M210,187.926l0,-66.76" style="fill:none;stroke:#000;stroke-width:2px;stroke-linecap:round;stroke-miterlimit:1.5;"/></g><path id="_15" serif:id="1" d="M180,196.166l0,-75l-30,0l0,75l30,0Z" style="fill:none;"/><clipPath id="2_clip14"><path d="M180,196.166l0,-75l-30,0l0,75l30,0Z"/></clipPath><g clip-path="url(#2_clip14)"><path d="M165,121.166l4.12,8.24l-8.24,0l4.12,-8.24Z" style="stroke:#000;stroke-width:0.23px;stroke-linecap:round;stroke-miterlimit:1.5;"/><path d="M165,129.406l0,66.76" style="fill:none;stroke:#000;stroke-width:2px;stroke-linecap:round;stroke-miterlimit:1.5;"/></g><rect id="_16" serif:id="1" x="112.5" y="68.666" width="37.5" height="30" style="fill:none;"/><clipPath id="2_clip15"><rect x="112.5" y="68.666" width="37.5" height="30"/></clipPath><g clip-path="url(#2_clip15)"><path d="M150,83.666l-8.24,4.12l0,-8.24l8.24,4.12Z" style="stroke:#000;stroke-width:0.23px;stroke-linecap:round;stroke-miterlimit:1.5;"/><path d="M141.76,83.666l-29.26,0" style="fill:none;stroke:#000;stroke-width:2px;stroke-linecap:round;stroke-miterlimit:1.5;"/></g><rect id="_17" serif:id="1" x="0" y="68.666" width="37.5" height="30" style="fill:none;"/><clipPath id="2_clip16"><rect x="0" y="68.666" width="37.5" height="30"/></clipPath><g clip-path="url(#2_clip16)"><path d="M37.5,83.666l-8.24,4.12l0,-8.24l8.24,4.12Z" style="stroke:#000;stroke-width:0.23px;stroke-linecap:round;stroke-miterlimit:1.5;"/><path d="M29.26,83.666l-29.26,0" style="fill:none;stroke:#000;stroke-width:2px;stroke-linecap:round;stroke-miterlimit:1.5;"/></g><defs><linearGradient id="2_Linear1" x1="0" y1="0" x2="1" y2="0" gradientUnits="userSpaceOnUse" gradientTransform="matrix(4.22728e-15,69.0367,-69.0367,4.22728e-15,598.509,47.9412)"><stop offset="0" style="stop-color:#c17aff;stop-opacity:1"/><stop offset="1" style="stop-color:#5d258d;stop-opacity:1"/></linearGradient><linearGradient id="2_Linear2" x1="0" y1="0" x2="1" y2="0" gradientUnits="userSpaceOnUse" gradientTransform="matrix(4.02903e-15,65.799,-65.799,4.02903e-15,336.367,49.4037)"><stop offset="0" style="stop-color:#ffa052;stop-opacity:1"/><stop offset="1" style="stop-color:#b35c00;stop-opacity:1"/></linearGradient><linearGradient id="2_Linear3" x1="0" y1="0" x2="1" y2="0" gradientUnits="userSpaceOnUse" gradientTransform="matrix(4.22728e-15,69.0367,-69.0367,4.22728e-15,73.5092,48.0862)"><stop offset="0" style="stop-color:#7fff7a;stop-opacity:1"/><stop offset="1" style="stop-color:#298d25;stop-opacity:1"/></linearGradient><linearGradient id="2_Linear4" x1="0" y1="0" x2="1" y2="0" gradientUnits="userSpaceOnUse" gradientTransform="matrix(4.22728e-15,69.0367,-69.0367,4.22728e-15,186.009,198.086)"><stop offset="0" style="stop-color:#7fff7a;stop-opacity:1"/><stop offset="1" style="stop-color:#298d25;stop-opacity:1"/></linearGradient><linearGradient id="2_Linear5" x1="0" y1="0" x2="1" y2="0" gradientUnits="userSpaceOnUse" gradientTransform="matrix(4.22728e-15,69.0367,-69.0367,4.22728e-15,186.009,48.0862)"><stop offset="0" style="stop-color:#efe357;stop-opacity:1"/><stop offset="1" style="stop-color:#fdab30;stop-opacity:1"/></linearGradient><linearGradient id="2_Linear7" x1="0" y1="0" x2="1" y2="0" gradientUnits="userSpaceOnUse" gradientTransform="matrix(4.22728e-15,69.0367,-69.0367,4.22728e-15,448.509,48.0862)"><stop offset="0" style="stop-color:#efe357;stop-opacity:1"/><stop offset="1" style="stop-color:#fdab30;stop-opacity:1"/></linearGradient></defs></svg>