<svg width="100%" height="100%" viewBox="0 0 601 189" version="1.1" xmlns="http://www.w3.org/2000/svg" xmlns:xlink="http://www.w3.org/1999/xlink" xml:space="preserve" xmlns:serif="http://www.serif.com/" style="fill-rule:evenodd;clip-rule:evenodd;stroke-linejoin:round;stroke-miterlimit:1.41421;"><rect x="0.391" y="0.391" width="112.5" height="75" style="fill:url(#4_Linear1);stroke:#c98b26;stroke-width:0.78px;"/><rect x="0.391" y="112.891" width="150" height="75" style="fill:url(#4_Linear2);stroke:#c98b26;stroke-width:0.78px;"/><rect x="337.891" y="0.391" width="112.5" height="75" style="fill:url(#4_Linear3);stroke:#c98b26;stroke-width:0.78px;"/><rect x="450.391" y="112.891" width="112.5" height="75" style="fill:url(#4_Linear4);stroke:#c98b26;stroke-width:0.78px;"/><rect x="562.891" y="0.391" width="37.5" height="75" style="fill:url(#4_Linear5);stroke:#c98b26;stroke-width:0.78px;"/><rect x="150.391" y="0.391" width="150" height="75" style="fill:url(#4_Linear6);stroke:#5f3c80;stroke-width:0.78px;"/><rect x="337.891" y="112.891" width="75" height="75" style="fill:url(#4_Linear7);stroke:#5f3c80;stroke-width:0.78px;"/><rect x="487.891" y="0.391" width="37.5" height="75" style="fill:url(#4_Linear8);stroke:#5f3c80;stroke-width:0.78px;"/><rect id="_1" serif:id="1" x="112.891" y="27.01" width="37.5" height="30" style="fill:none;"/><clipPath id="4_clip9"><rect x="112.891" y="27.01" width="37.5" height="30"/></clipPath><g clip-path="url(#4_clip9)"><path d="M150.391,42.01l-8.24,4.12l0,-8.239l8.24,4.119Z" style="stroke:#000;stroke-width:0.23px;stroke-linecap:round;stroke-miterlimit:1.5;"/><path d="M142.151,42.01l-29.26,0" style="fill:none;stroke:#000;stroke-width:2px;stroke-linecap:round;stroke-miterlimit:1.5;"/></g><rect id="_11" serif:id="1" x="300.391" y="27.01" width="37.5" height="30" style="fill:none;"/><clipPath id="4_clip10"><rect x="300.391" y="27.01" width="37.5" height="30"/></clipPath><g clip-path="url(#4_clip10)"><path d="M337.891,42.01l-8.24,4.12l0,-8.239l8.24,4.119Z" style="stroke:#000;stroke-width:0.23px;stroke-linecap:round;stroke-miterlimit:1.5;"/><path d="M329.651,42.01l-29.26,0" style="fill:none;stroke:#000;stroke-width:2px;stroke-linecap:round;stroke-miterlimit:1.5;"/></g><rect id="_12" serif:id="1" x="450.391" y="22.891" width="37.5" height="30" style="fill:none;"/><clipPath id="4_clip11"><rect x="450.391" y="22.891" width="37.5" height="30"/></clipPath><g clip-path="url(#4_clip11)"><path d="M487.891,37.891l-8.24,4.119l0,-8.239l8.24,4.12Z" style="stroke:#000;stroke-width:0.23px;stroke-linecap:round;stroke-miterlimit:1.5;"/><path d="M479.651,37.891l-29.26,0" style="fill:none;stroke:#000;stroke-width:2px;stroke-linecap:round;stroke-miterlimit:1.5;"/></g><rect id="_13" serif:id="1" x="525.391" y="22.891" width="37.5" height="30" style="fill:none;"/><clipPath id="4_clip12"><rect x="525.391" y="22.891" width="37.5" height="30"/></clipPath><g clip-path="url(#4_clip12)"><path d="M562.891,37.891l-8.24,4.119l0,-8.239l8.24,4.12Z" style="stroke:#000;stroke-width:0.23px;stroke-linecap:round;stroke-miterlimit:1.5;"/><path d="M554.651,37.891l-29.26,0" style="fill:none;stroke:#000;stroke-width:2px;stroke-linecap:round;stroke-miterlimit:1.5;"/></g><rect id="_14" serif:id="1" x="150.391" y="135.391" width="187.5" height="30" style="fill:none;"/><clipPath id="4_clip13"><rect x="150.391" y="135.391" width="187.5" height="30"/></clipPath><g clip-path="url(#4_clip13)"><path d="M337.891,150.391l-8.24,4.119l0,-8.239l8.24,4.12Z" style="stroke:#000;stroke-width:0.23px;stroke-linecap:round;stroke-miterlimit:1.5;"/><path d="M329.651,150.391l-179.26,0" style="fill:none;stroke:#000;stroke-width:2px;stroke-linecap:round;stroke-miterlimit:1.5;"/></g><rect id="_15" serif:id="1" x="412.891" y="135.391" width="37.5" height="30" style="fill:none;"/><clipPath id="4_clip14"><rect x="412.891" y="135.391" width="37.5" height="30"/></clipPath><g clip-path="url(#4_clip14)"><path d="M450.391,150.391l-8.24,4.119l0,-8.239l8.24,4.12Z" style="stroke:#000;stroke-width:0.23px;stroke-linecap:round;stroke-miterlimit:1.5;"/><path d="M442.151,150.391l-29.26,0" style="fill:none;stroke:#000;stroke-width:2px;stroke-linecap:round;stroke-miterlimit:1.5;"/></g><rect id="_3.1" serif:id="3.1" x="300.391" y="42.01" width="37.5" height="103.32" style="fill:none;"/><clipPath id="4_clip15"><rect x="300.391" y="42.01" width="37.5" height="103.32"/></clipPath><g clip-path="url(#4_clip15)"><path d="M337.878,141.201l-8.239,4.119l0,-8.239l8.239,4.12Z"/><path d="M337.878,141.201l-8.239,4.119l0,-8.239l8.239,4.12Zm-8.014,3.755l7.511,-3.755l-7.511,-3.756l0,7.511Z"/><path d="M330.78,141.201c0,0 0,0 0,0c-7.726,0 -13.989,-6.264 -13.989,-13.989c0,-18.471 0,-50.864 0,-69.827c0,-8.284 -6.716,-15 -15,-15c-0.87,0 -1.4,0 -1.4,0" style="fill:none;stroke:#000;stroke-width:2px;stroke-miterlimit:1.5;"/></g><defs><linearGradient id="4_Linear1" x1="0" y1="0" x2="1" y2="0" gradientUnits="userSpaceOnUse" gradientTransform="matrix(6.34092e-15,69.0367,-103.555,4.22728e-15,54.4044,2.31083)"><stop offset="0" style="stop-color:#e5d315;stop-opacity:1"/><stop offset="1" style="stop-color:#de8602;stop-opacity:1"/></linearGradient><linearGradient id="4_Linear2" x1="0" y1="0" x2="1" y2="0" gradientUnits="userSpaceOnUse" gradientTransform="matrix(8.45456e-15,69.0367,-138.073,4.22728e-15,72.409,114.811)"><stop offset="0" style="stop-color:#e5d315;stop-opacity:1"/><stop offset="1" style="stop-color:#de8602;stop-opacity:1"/></linearGradient><linearGradient id="4_Linear3" x1="0" y1="0" x2="1" y2="0" gradientUnits="userSpaceOnUse" gradientTransform="matrix(6.34092e-15,69.0367,-103.555,4.22728e-15,391.904,2.31083)"><stop offset="0" style="stop-color:#e5d315;stop-opacity:1"/><stop offset="1" style="stop-color:#de8602;stop-opacity:1"/></linearGradient><linearGradient id="4_Linear4" x1="0" y1="0" x2="1" y2="0" gradientUnits="userSpaceOnUse" gradientTransform="matrix(6.34092e-15,69.0367,-103.555,4.22728e-15,504.404,114.811)"><stop offset="0" style="stop-color:#e5d315;stop-opacity:1"/><stop offset="1" style="stop-color:#de8602;stop-opacity:1"/></linearGradient><linearGradient id="4_Linear5" x1="0" y1="0" x2="1" y2="0" gradientUnits="userSpaceOnUse" gradientTransform="matrix(2.11364e-15,69.0367,-34.5183,4.22728e-15,580.895,2.31083)"><stop offset="0" style="stop-color:#e5d315;stop-opacity:1"/><stop offset="1" style="stop-color:#de8602;stop-opacity:1"/></linearGradient><linearGradient id="4_Linear6" x1="0" y1="0" x2="1" y2="0" gradientUnits="userSpaceOnUse" gradientTransform="matrix(8.45456e-15,69.0367,-138.073,4.22728e-15,222.409,2.31083)"><stop offset="0" style="stop-color:#c17aff;stop-opacity:1"/><stop offset="1" style="stop-color:#5d258d;stop-opacity:1"/></linearGradient><linearGradient id="4_Linear7" x1="0" y1="0" x2="1" y2="0" gradientUnits="userSpaceOnUse" gradientTransform="matrix(4.22728e-15,69.0367,-69.0367,4.22728e-15,373.9,114.811)"><stop offset="0" style="stop-color:#c17aff;stop-opacity:1"/><stop offset="1" style="stop-color:#5d258d;stop-opacity:1"/></linearGradient><linearGradient id="4_Linear8" x1="0" y1="0" x2="1" y2="0" gradientUnits="userSpaceOnUse" gradientTransform="matrix(2.11364e-15,69.0367,-34.5183,4.22728e-15,505.895,2.31083)"><stop offset="0" style="stop-color:#c17aff;stop-opacity:1"/><stop offset="1" style="stop-color:#5d258d;stop-opacity:1"/></linearGradient></defs></svg>