<svg width="100%" height="100%" viewBox="0 0 901 189" version="1.1" xmlns="http://www.w3.org/2000/svg" xmlns:xlink="http://www.w3.org/1999/xlink" xml:space="preserve" xmlns:serif="http://www.serif.com/" style="fill-rule:evenodd;clip-rule:evenodd;stroke-linejoin:round;stroke-miterlimit:1.41421;"><rect x="0.391" y="0.391" width="39.75" height="75" style="fill:url(#5_Linear1);stroke:#c98b26;stroke-width:0.78px;"/><rect x="152.641" y="0.391" width="35.25" height="75" style="fill:url(#5_Linear2);stroke:#c98b26;stroke-width:0.78px;"/><rect x="0.391" y="112.891" width="28.5" height="75" style="fill:url(#5_Linear3);stroke:#c98b26;stroke-width:0.78px;"/><rect x="170.228" y="112.891" width="55.125" height="75" style="fill:url(#5_Linear4);stroke:#c98b26;stroke-width:0.78px;"/><rect x="412.891" y="0.391" width="112.5" height="75" style="fill:url(#5_Linear5);stroke:#c98b26;stroke-width:0.78px;"/><rect x="525.391" y="112.891" width="52.5" height="75" style="fill:url(#5_Linear6);stroke:#c98b26;stroke-width:0.78px;"/><rect x="761.641" y="112.891" width="101.25" height="75" style="fill:url(#5_Linear7);stroke:#c98b26;stroke-width:0.78px;"/><rect x="637.891" y="0.391" width="63.75" height="75" style="fill:url(#5_Linear8);stroke:#c98b26;stroke-width:0.78px;"/><rect x="836.641" y="0.391" width="63.75" height="75" style="fill:url(#5_Linear9);stroke:#c98b26;stroke-width:0.78px;"/><rect x="225.391" y="0.391" width="150" height="75" style="fill:url(#5_Linear10);stroke:#5f3c80;stroke-width:0.78px;"/><rect x="412.891" y="112.891" width="75" height="75" style="fill:url(#5_Linear11);stroke:#5f3c80;stroke-width:0.78px;"/><rect x="562.891" y="0.391" width="37.5" height="75" style="fill:url(#5_Linear12);stroke:#5f3c80;stroke-width:0.78px;"/><rect x="761.641" y="0.391" width="37.5" height="75" style="fill:url(#5_Linear13);stroke:#5f3c80;stroke-width:0.78px;"/><rect x="637.891" y="112.891" width="86.25" height="75" style="fill:url(#5_Linear14);stroke:#3c5e80;stroke-width:0.78px;"/><rect x="77.641" y="0.391" width="37.5" height="75" style="fill:url(#5_Linear15);stroke:#3c5e80;stroke-width:0.78px;"/><rect x="66.391" y="112.891" width="66.375" height="75" style="fill:url(#5_Linear16);stroke:#3c5e80;stroke-width:0.78px;"/><rect id="_1" serif:id="1" x="40.141" y="22.891" width="37.5" height="30" style="fill:none;"/><clipPath id="5_clip17"><rect x="40.141" y="22.891" width="37.5" height="30"/></clipPath><g clip-path="url(#5_clip17)"><path d="M77.641,37.891l-8.24,4.119l0,-8.239l8.24,4.12Z" style="stroke:#000;stroke-width:0.23px;stroke-linecap:round;stroke-miterlimit:1.5;"/><path d="M69.401,37.891l-29.26,0" style="fill:none;stroke:#000;stroke-width:2px;stroke-linecap:round;stroke-miterlimit:1.5;"/></g><rect id="_11" serif:id="1" x="115.141" y="22.891" width="37.5" height="30" style="fill:none;"/><clipPath id="5_clip18"><rect x="115.141" y="22.891" width="37.5" height="30"/></clipPath><g clip-path="url(#5_clip18)"><path d="M152.641,37.891l-8.24,4.119l0,-8.239l8.24,4.12Z" style="stroke:#000;stroke-width:0.23px;stroke-linecap:round;stroke-miterlimit:1.5;"/><path d="M144.401,37.891l-29.26,0" style="fill:none;stroke:#000;stroke-width:2px;stroke-linecap:round;stroke-miterlimit:1.5;"/></g><rect id="_12" serif:id="1" x="187.891" y="22.891" width="37.5" height="30" style="fill:none;"/><clipPath id="5_clip19"><rect x="187.891" y="22.891" width="37.5" height="30"/></clipPath><g clip-path="url(#5_clip19)"><path d="M225.391,37.891l-8.24,4.119l0,-8.239l8.24,4.12Z" style="stroke:#000;stroke-width:0.23px;stroke-linecap:round;stroke-miterlimit:1.5;"/><path d="M217.151,37.891l-29.26,0" style="fill:none;stroke:#000;stroke-width:2px;stroke-linecap:round;stroke-miterlimit:1.5;"/></g><rect id="_13" serif:id="1" x="375.391" y="22.891" width="37.5" height="30" style="fill:none;"/><clipPath id="5_clip20"><rect x="375.391" y="22.891" width="37.5" height="30"/></clipPath><g clip-path="url(#5_clip20)"><path d="M412.891,37.891l-8.24,4.119l0,-8.239l8.24,4.12Z" style="stroke:#000;stroke-width:0.23px;stroke-linecap:round;stroke-miterlimit:1.5;"/><path d="M404.651,37.891l-29.26,0" style="fill:none;stroke:#000;stroke-width:2px;stroke-linecap:round;stroke-miterlimit:1.5;"/></g><rect id="_14" serif:id="1" x="525.391" y="22.891" width="37.5" height="30" style="fill:none;"/><clipPath id="5_clip21"><rect x="525.391" y="22.891" width="37.5" height="30"/></clipPath><g clip-path="url(#5_clip21)"><path d="M562.891,37.891l-8.24,4.119l0,-8.239l8.24,4.12Z" style="stroke:#000;stroke-width:0.23px;stroke-linecap:round;stroke-miterlimit:1.5;"/><path d="M554.651,37.891l-29.26,0" style="fill:none;stroke:#000;stroke-width:2px;stroke-linecap:round;stroke-miterlimit:1.5;"/></g><rect id="_15" serif:id="1" x="600.391" y="22.891" width="37.5" height="30" style="fill:none;"/><clipPath id="5_clip22"><rect x="600.391" y="22.891" width="37.5" height="30"/></clipPath><g clip-path="url(#5_clip22)"><path d="M637.891,37.891l-8.24,4.119l0,-8.239l8.24,4.12Z" style="stroke:#000;stroke-width:0.23px;stroke-linecap:round;stroke-miterlimit:1.5;"/><path d="M629.651,37.891l-29.26,0" style="fill:none;stroke:#000;stroke-width:2px;stroke-linecap:round;stroke-miterlimit:1.5;"/></g><rect id="_16" serif:id="1" x="701.641" y="22.891" width="60" height="30" style="fill:none;"/><clipPath id="5_clip23"><rect x="701.641" y="22.891" width="60" height="30"/></clipPath><g clip-path="url(#5_clip23)"><path d="M761.641,37.891l-8.24,4.119l0,-8.239l8.24,4.12Z" style="stroke:#000;stroke-width:0.23px;stroke-linecap:round;stroke-miterlimit:1.5;"/><path d="M753.401,37.891l-51.76,0" style="fill:none;stroke:#000;stroke-width:2px;stroke-linecap:round;stroke-miterlimit:1.5;"/></g><rect id="_17" serif:id="1" x="799.141" y="22.891" width="37.5" height="30" style="fill:none;"/><clipPath id="5_clip24"><rect x="799.141" y="22.891" width="37.5" height="30"/></clipPath><g clip-path="url(#5_clip24)"><path d="M836.641,37.891l-8.24,4.119l0,-8.239l8.24,4.12Z" style="stroke:#000;stroke-width:0.23px;stroke-linecap:round;stroke-miterlimit:1.5;"/><path d="M828.401,37.891l-29.26,0" style="fill:none;stroke:#000;stroke-width:2px;stroke-linecap:round;stroke-miterlimit:1.5;"/></g><rect id="_18" serif:id="1" x="487.891" y="135.391" width="37.5" height="30" style="fill:none;"/><clipPath id="5_clip25"><rect x="487.891" y="135.391" width="37.5" height="30"/></clipPath><g clip-path="url(#5_clip25)"><path d="M525.391,150.391l-8.24,4.119l0,-8.239l8.24,4.12Z" style="stroke:#000;stroke-width:0.23px;stroke-linecap:round;stroke-miterlimit:1.5;"/><path d="M517.151,150.391l-29.26,0" style="fill:none;stroke:#000;stroke-width:2px;stroke-linecap:round;stroke-miterlimit:1.5;"/></g><rect id="_19" serif:id="1" x="577.891" y="135.391" width="60" height="30" style="fill:none;"/><clipPath id="5_clip26"><rect x="577.891" y="135.391" width="60" height="30"/></clipPath><g clip-path="url(#5_clip26)"><path d="M637.891,150.391l-8.24,4.119l0,-8.239l8.24,4.12Z" style="stroke:#000;stroke-width:0.23px;stroke-linecap:round;stroke-miterlimit:1.5;"/><path d="M629.651,150.391l-51.76,0" style="fill:none;stroke:#000;stroke-width:2px;stroke-linecap:round;stroke-miterlimit:1.5;"/></g><rect id="_110" serif:id="1" x="724.334" y="135.391" width="37.5" height="30" style="fill:none;"/><clipPath id="5_clip27"><rect x="724.334" y="135.391" width="37.5" height="30"/></clipPath><g clip-path="url(#5_clip27)"><path d="M761.834,150.391l-8.24,4.119l0,-8.239l8.24,4.12Z" style="stroke:#000;stroke-width:0.23px;stroke-linecap:round;stroke-miterlimit:1.5;"/><path d="M753.594,150.391l-29.26,0" style="fill:none;stroke:#000;stroke-width:2px;stroke-linecap:round;stroke-miterlimit:1.5;"/></g><rect id="_111" serif:id="1" x="28.891" y="135.391" width="37.5" height="30" style="fill:none;"/><clipPath id="5_clip28"><rect x="28.891" y="135.391" width="37.5" height="30"/></clipPath><g clip-path="url(#5_clip28)"><path d="M66.391,150.391l-8.24,4.119l0,-8.239l8.24,4.12Z" style="stroke:#000;stroke-width:0.23px;stroke-linecap:round;stroke-miterlimit:1.5;"/><path d="M58.151,150.391l-29.26,0" style="fill:none;stroke:#000;stroke-width:2px;stroke-linecap:round;stroke-miterlimit:1.5;"/></g><rect id="_112" serif:id="1" x="132.766" y="135.391" width="37.5" height="30" style="fill:none;"/><clipPath id="5_clip29"><rect x="132.766" y="135.391" width="37.5" height="30"/></clipPath><g clip-path="url(#5_clip29)"><path d="M170.266,150.391l-8.24,4.119l0,-8.239l8.24,4.12Z" style="stroke:#000;stroke-width:0.23px;stroke-linecap:round;stroke-miterlimit:1.5;"/><path d="M162.026,150.391l-29.26,0" style="fill:none;stroke:#000;stroke-width:2px;stroke-linecap:round;stroke-miterlimit:1.5;"/></g><rect id="_113" serif:id="1" x="225.353" y="135.391" width="187.537" height="30" style="fill:none;"/><clipPath id="5_clip30"><rect x="225.353" y="135.391" width="187.537" height="30"/></clipPath><g clip-path="url(#5_clip30)"><path d="M412.891,150.391l-8.24,4.119l0,-8.239l8.24,4.12Z" style="stroke:#000;stroke-width:0.23px;stroke-linecap:round;stroke-miterlimit:1.5;"/><path d="M404.651,150.391l-179.298,0" style="fill:none;stroke:#000;stroke-width:2px;stroke-linecap:round;stroke-miterlimit:1.5;"/></g><rect id="_3.1" serif:id="3.1" x="375.391" y="37.891" width="37.5" height="108.19" style="fill:none;"/><clipPath id="5_clip31"><rect x="375.391" y="37.891" width="37.5" height="108.19"/></clipPath><g clip-path="url(#5_clip31)"><path d="M412.878,141.951l-8.239,4.119l0,-8.239l8.239,4.12Z"/><path d="M412.878,141.951l-8.239,4.119l0,-8.239l8.239,4.12Zm-8.014,3.755l7.511,-3.755l-7.511,-3.756l0,7.511Z"/><path d="M405.78,141.951c0,0 0,0 0,0c-7.726,0 -13.989,-6.264 -13.989,-13.989c0,-19.493 0,-54.678 0,-74.696c0,-8.285 -6.716,-15 -15,-15c-0.87,0 -1.4,0 -1.4,0" style="fill:none;stroke:#000;stroke-width:2px;stroke-miterlimit:1.5;"/></g><rect id="_3.11" serif:id="3.1" x="600.391" y="37.891" width="37.5" height="108.19" style="fill:none;"/><clipPath id="5_clip32"><rect x="600.391" y="37.891" width="37.5" height="108.19"/></clipPath><g clip-path="url(#5_clip32)"><path d="M637.878,141.951l-8.239,4.119l0,-8.239l8.239,4.12Z"/><path d="M637.878,141.951l-8.239,4.119l0,-8.239l8.239,4.12Zm-8.014,3.755l7.511,-3.755l-7.511,-3.756l0,7.511Z"/><path d="M630.78,141.951c0,0 0,0 0,0c-7.726,0 -13.989,-6.264 -13.989,-13.989c0,-19.493 0,-54.678 0,-74.696c0,-8.285 -6.716,-15 -15,-15c-0.87,0 -1.4,0 -1.4,0" style="fill:none;stroke:#000;stroke-width:2px;stroke-miterlimit:1.5;"/></g><rect id="_3.2" serif:id="3.2" x="724.141" y="42.01" width="37.5" height="100.88" style="fill:none;"/><clipPath id="5_clip33"><rect x="724.141" y="42.01" width="37.5" height="100.88"/></clipPath><g clip-path="url(#5_clip33)"><path d="M761.629,46.13l-8.24,4.12l0,-8.24l8.24,4.12Z"/><path d="M761.629,46.13l-8.24,4.12l0,-8.24l8.24,4.12Zm-8.015,3.756l7.512,-3.756l-7.512,-3.756l0,7.512Z"/><path d="M754.516,46.13c0,0 0,0 0,0c-7.723,0 -13.983,6.261 -13.983,13.983c0,17.951 0,48.974 0,67.403c0,8.284 -6.716,15 -15,15c-0.866,0 -1.393,0 -1.393,0" style="fill:none;stroke:#000;stroke-width:1.5px;stroke-miterlimit:1.5;"/></g><defs><linearGradient id="5_Linear1" x1="0" y1="0" x2="1" y2="0" gradientUnits="userSpaceOnUse" gradientTransform="matrix(2.24046e-15,69.0367,-36.5894,4.22728e-15,19.4755,2.31083)"><stop offset="0" style="stop-color:#e5d315;stop-opacity:1"/><stop offset="1" style="stop-color:#de8602;stop-opacity:1"/></linearGradient><linearGradient id="5_Linear2" x1="0" y1="0" x2="1" y2="0" gradientUnits="userSpaceOnUse" gradientTransform="matrix(1.98682e-15,69.0367,-32.4472,4.22728e-15,169.565,2.31083)"><stop offset="0" style="stop-color:#e5d315;stop-opacity:1"/><stop offset="1" style="stop-color:#de8602;stop-opacity:1"/></linearGradient><linearGradient id="5_Linear3" x1="0" y1="0" x2="1" y2="0" gradientUnits="userSpaceOnUse" gradientTransform="matrix(1.60637e-15,69.0367,-26.2339,4.22728e-15,14.0741,114.811)"><stop offset="0" style="stop-color:#e5d315;stop-opacity:1"/><stop offset="1" style="stop-color:#de8602;stop-opacity:1"/></linearGradient><linearGradient id="5_Linear4" x1="0" y1="0" x2="1" y2="0" gradientUnits="userSpaceOnUse" gradientTransform="matrix(3.10705e-15,69.0367,-50.742,4.22728e-15,196.695,114.811)"><stop offset="0" style="stop-color:#e5d315;stop-opacity:1"/><stop offset="1" style="stop-color:#de8602;stop-opacity:1"/></linearGradient><linearGradient id="5_Linear5" x1="0" y1="0" x2="1" y2="0" gradientUnits="userSpaceOnUse" gradientTransform="matrix(6.34092e-15,69.0367,-103.555,4.22728e-15,466.904,2.31083)"><stop offset="0" style="stop-color:#e5d315;stop-opacity:1"/><stop offset="1" style="stop-color:#de8602;stop-opacity:1"/></linearGradient><linearGradient id="5_Linear6" x1="0" y1="0" x2="1" y2="0" gradientUnits="userSpaceOnUse" gradientTransform="matrix(2.95909e-15,69.0367,-48.3257,4.22728e-15,550.597,114.811)"><stop offset="0" style="stop-color:#e5d315;stop-opacity:1"/><stop offset="1" style="stop-color:#de8602;stop-opacity:1"/></linearGradient><linearGradient id="5_Linear7" x1="0" y1="0" x2="1" y2="0" gradientUnits="userSpaceOnUse" gradientTransform="matrix(5.70683e-15,69.0367,-93.1995,4.22728e-15,810.253,114.811)"><stop offset="0" style="stop-color:#e5d315;stop-opacity:1"/><stop offset="1" style="stop-color:#de8602;stop-opacity:1"/></linearGradient><linearGradient id="5_Linear8" x1="0" y1="0" x2="1" y2="0" gradientUnits="userSpaceOnUse" gradientTransform="matrix(3.59319e-15,69.0367,-58.6812,4.22728e-15,668.498,2.31083)"><stop offset="0" style="stop-color:#e5d315;stop-opacity:1"/><stop offset="1" style="stop-color:#de8602;stop-opacity:1"/></linearGradient><linearGradient id="5_Linear9" x1="0" y1="0" x2="1" y2="0" gradientUnits="userSpaceOnUse" gradientTransform="matrix(3.59319e-15,69.0367,-58.6812,4.22728e-15,867.248,2.31083)"><stop offset="0" style="stop-color:#e5d315;stop-opacity:1"/><stop offset="1" style="stop-color:#de8602;stop-opacity:1"/></linearGradient><linearGradient id="5_Linear10" x1="0" y1="0" x2="1" y2="0" gradientUnits="userSpaceOnUse" gradientTransform="matrix(8.45456e-15,69.0367,-138.073,4.22728e-15,297.409,2.31083)"><stop offset="0" style="stop-color:#c17aff;stop-opacity:1"/><stop offset="1" style="stop-color:#5d258d;stop-opacity:1"/></linearGradient><linearGradient id="5_Linear11" x1="0" y1="0" x2="1" y2="0" gradientUnits="userSpaceOnUse" gradientTransform="matrix(4.22728e-15,69.0367,-69.0367,4.22728e-15,448.9,114.811)"><stop offset="0" style="stop-color:#c17aff;stop-opacity:1"/><stop offset="1" style="stop-color:#5d258d;stop-opacity:1"/></linearGradient><linearGradient id="5_Linear12" x1="0" y1="0" x2="1" y2="0" gradientUnits="userSpaceOnUse" gradientTransform="matrix(2.11364e-15,69.0367,-34.5183,4.22728e-15,580.895,2.31083)"><stop offset="0" style="stop-color:#c17aff;stop-opacity:1"/><stop offset="1" style="stop-color:#5d258d;stop-opacity:1"/></linearGradient><linearGradient id="5_Linear13" x1="0" y1="0" x2="1" y2="0" gradientUnits="userSpaceOnUse" gradientTransform="matrix(2.11364e-15,69.0367,-34.5183,4.22728e-15,779.645,2.31083)"><stop offset="0" style="stop-color:#c17aff;stop-opacity:1"/><stop offset="1" style="stop-color:#5d258d;stop-opacity:1"/></linearGradient><linearGradient id="5_Linear14" x1="0" y1="0" x2="1" y2="0" gradientUnits="userSpaceOnUse" gradientTransform="matrix(4.86137e-15,69.0367,-79.3922,4.22728e-15,679.301,114.811)"><stop offset="0" style="stop-color:#7abdff;stop-opacity:1"/><stop offset="1" style="stop-color:#25598d;stop-opacity:1"/></linearGradient><linearGradient id="5_Linear15" x1="0" y1="0" x2="1" y2="0" gradientUnits="userSpaceOnUse" gradientTransform="matrix(2.11364e-15,69.0367,-34.5183,4.22728e-15,95.6452,2.31083)"><stop offset="0" style="stop-color:#7abdff;stop-opacity:1"/><stop offset="1" style="stop-color:#25598d;stop-opacity:1"/></linearGradient><linearGradient id="5_Linear16" x1="0" y1="0" x2="1" y2="0" gradientUnits="userSpaceOnUse" gradientTransform="matrix(3.74114e-15,69.0367,-61.0975,4.22728e-15,98.2587,114.811)"><stop offset="0" style="stop-color:#7abdff;stop-opacity:1"/><stop offset="1" style="stop-color:#25598d;stop-opacity:1"/></linearGradient></defs></svg>