<svg width="100%" height="100%" viewBox="0 0 564 301" version="1.1" xmlns="http://www.w3.org/2000/svg" xmlns:xlink="http://www.w3.org/1999/xlink" xml:space="preserve" xmlns:serif="http://www.serif.com/" style="fill-rule:evenodd;clip-rule:evenodd;stroke-linejoin:round;stroke-miterlimit:1.5;"><rect id="_3.1" serif:id="3.1" x="300.391" y="37.891" width="37.5" height="220.88" style="fill:none;"/><clipPath id="6_clip1"><rect x="300.391" y="37.891" width="37.5" height="220.88"/></clipPath><g clip-path="url(#6_clip1)"><path d="M337.878,254.641l-8.239,4.119l0,-8.239l8.239,4.12Z"/><path d="M337.878,254.641l-8.239,4.119l0,-8.239l8.239,4.12Zm-8.014,3.755l7.511,-3.755l-7.511,-3.756l0,7.511Z"/><path d="M330.78,254.641c0,0 0,0 0,0c-7.726,0 -13.989,-6.263 -13.989,-13.989c0,-38.78 0,-147.421 0,-187.386c0,-8.285 -6.716,-15 -15,-15c-0.87,0 -1.4,0 -1.4,0" style="fill:none;stroke:#000;stroke-width:2px;"/></g><rect x="0.391" y="0.391" width="112.5" height="75" style="fill:url(#6_Linear2);stroke:#c98b26;stroke-width:0.78px;stroke-miterlimit:1.41421;"/><rect x="0.391" y="112.891" width="75" height="75" style="fill:url(#6_Linear3);stroke:#c98b26;stroke-width:0.78px;stroke-miterlimit:1.41421;"/><rect x="337.891" y="0.391" width="58.5" height="75" style="fill:url(#6_Linear4);stroke:#c98b26;stroke-width:0.78px;stroke-miterlimit:1.41421;"/><rect x="368.641" y="112.891" width="156.75" height="75" style="fill:url(#6_Linear5);stroke:#c98b26;stroke-width:0.78px;stroke-miterlimit:1.41421;"/><rect x="487.891" y="0.391" width="37.5" height="75" style="fill:url(#6_Linear6);stroke:#c98b26;stroke-width:0.78px;stroke-miterlimit:1.41421;"/><rect x="150.391" y="0.391" width="150" height="75" style="fill:url(#6_Linear7);stroke:#5f3c80;stroke-width:0.78px;stroke-miterlimit:1.41421;"/><rect x="112.891" y="112.891" width="218.25" height="75" style="fill:url(#6_Linear8);stroke:#5f3c80;stroke-width:0.78px;stroke-miterlimit:1.41421;"/><rect x="433.891" y="0.391" width="91.5" height="75" style="fill:url(#6_Linear9);stroke:#5f3c80;stroke-width:0.78px;stroke-miterlimit:1.41421;"/><rect x="0.391" y="225.391" width="150" height="75" style="fill:url(#6_Linear10);stroke:#c98b26;stroke-width:0.78px;stroke-miterlimit:1.41421;"/><rect x="450.391" y="225.391" width="112.5" height="75" style="fill:url(#6_Linear11);stroke:#c98b26;stroke-width:0.78px;stroke-miterlimit:1.41421;"/><rect x="337.891" y="225.391" width="75" height="75" style="fill:url(#6_Linear12);stroke:#5f3c80;stroke-width:0.78px;stroke-miterlimit:1.41421;"/><rect id="_1" serif:id="1" x="112.891" y="22.891" width="37.5" height="30" style="fill:none;"/><clipPath id="6_clip13"><rect x="112.891" y="22.891" width="37.5" height="30"/></clipPath><g clip-path="url(#6_clip13)"><path d="M150.391,37.891l-8.24,4.119l0,-8.239l8.24,4.12Z" style="stroke:#000;stroke-width:0.23px;stroke-linecap:round;"/><path d="M142.151,37.891l-29.26,0" style="fill:none;stroke:#000;stroke-width:2px;stroke-linecap:round;"/></g><rect id="_11" serif:id="1" x="300.391" y="22.891" width="37.5" height="30" style="fill:none;"/><clipPath id="6_clip14"><rect x="300.391" y="22.891" width="37.5" height="30"/></clipPath><g clip-path="url(#6_clip14)"><path d="M337.891,37.891l-8.24,4.119l0,-8.239l8.24,4.12Z" style="stroke:#000;stroke-width:0.23px;stroke-linecap:round;"/><path d="M329.651,37.891l-29.26,0" style="fill:none;stroke:#000;stroke-width:2px;stroke-linecap:round;"/></g><rect id="_12" serif:id="1" x="396.391" y="22.891" width="37.5" height="30" style="fill:none;"/><clipPath id="6_clip15"><rect x="396.391" y="22.891" width="37.5" height="30"/></clipPath><g clip-path="url(#6_clip15)"><path d="M433.891,37.891l-8.24,4.119l0,-8.239l8.24,4.12Z" style="stroke:#000;stroke-width:0.23px;stroke-linecap:round;"/><path d="M425.651,37.891l-29.26,0" style="fill:none;stroke:#000;stroke-width:2px;stroke-linecap:round;"/></g><rect id="_13" serif:id="1" x="150.391" y="247.891" width="187.5" height="30" style="fill:none;"/><clipPath id="6_clip16"><rect x="150.391" y="247.891" width="187.5" height="30"/></clipPath><g clip-path="url(#6_clip16)"><path d="M337.891,262.891l-8.24,4.119l0,-8.239l8.24,4.12Z" style="stroke:#000;stroke-width:0.23px;stroke-linecap:round;"/><path d="M329.651,262.891l-179.26,0" style="fill:none;stroke:#000;stroke-width:2px;stroke-linecap:round;"/></g><rect id="_14" serif:id="1" x="75.391" y="135.391" width="37.5" height="30" style="fill:none;"/><clipPath id="6_clip17"><rect x="75.391" y="135.391" width="37.5" height="30"/></clipPath><g clip-path="url(#6_clip17)"><path d="M112.891,150.391l-8.24,4.119l0,-8.239l8.24,4.12Z" style="stroke:#000;stroke-width:0.23px;stroke-linecap:round;"/><path d="M104.651,150.391l-29.26,0" style="fill:none;stroke:#000;stroke-width:2px;stroke-linecap:round;"/></g><rect id="_15" serif:id="1" x="331.141" y="135.391" width="37.5" height="30" style="fill:none;"/><clipPath id="6_clip18"><rect x="331.141" y="135.391" width="37.5" height="30"/></clipPath><g clip-path="url(#6_clip18)"><path d="M368.641,150.391l-8.24,4.119l0,-8.239l8.24,4.12Z" style="stroke:#000;stroke-width:0.23px;stroke-linecap:round;"/><path d="M360.401,150.391l-29.26,0" style="fill:none;stroke:#000;stroke-width:2px;stroke-linecap:round;"/></g><rect id="_16" serif:id="1" x="412.891" y="247.891" width="37.5" height="30" style="fill:none;"/><clipPath id="6_clip19"><rect x="412.891" y="247.891" width="37.5" height="30"/></clipPath><g clip-path="url(#6_clip19)"><path d="M450.391,262.891l-8.24,4.119l0,-8.239l8.24,4.12Z" style="stroke:#000;stroke-width:0.23px;stroke-linecap:round;"/><path d="M442.151,262.891l-29.26,0" style="fill:none;stroke:#000;stroke-width:2px;stroke-linecap:round;"/></g><defs><linearGradient id="6_Linear2" x1="0" y1="0" x2="1" y2="0" gradientUnits="userSpaceOnUse" gradientTransform="matrix(6.34092e-15,69.0367,-103.555,4.22728e-15,54.4044,2.31083)"><stop offset="0" style="stop-color:#e5d315;stop-opacity:1"/><stop offset="1" style="stop-color:#de8602;stop-opacity:1"/></linearGradient><linearGradient id="6_Linear3" x1="0" y1="0" x2="1" y2="0" gradientUnits="userSpaceOnUse" gradientTransform="matrix(4.22728e-15,69.0367,-69.0367,4.22728e-15,36.3998,114.811)"><stop offset="0" style="stop-color:#e5d315;stop-opacity:1"/><stop offset="1" style="stop-color:#de8602;stop-opacity:1"/></linearGradient><linearGradient id="6_Linear4" x1="0" y1="0" x2="1" y2="0" gradientUnits="userSpaceOnUse" gradientTransform="matrix(3.29728e-15,69.0367,-53.8486,4.22728e-15,365.978,2.31083)"><stop offset="0" style="stop-color:#e5d315;stop-opacity:1"/><stop offset="1" style="stop-color:#de8602;stop-opacity:1"/></linearGradient><linearGradient id="6_Linear5" x1="0" y1="0" x2="1" y2="0" gradientUnits="userSpaceOnUse" gradientTransform="matrix(8.83501e-15,69.0367,-144.287,4.22728e-15,443.9,114.811)"><stop offset="0" style="stop-color:#e5d315;stop-opacity:1"/><stop offset="1" style="stop-color:#de8602;stop-opacity:1"/></linearGradient><linearGradient id="6_Linear6" x1="0" y1="0" x2="1" y2="0" gradientUnits="userSpaceOnUse" gradientTransform="matrix(2.11364e-15,69.0367,-34.5183,4.22728e-15,505.895,2.31083)"><stop offset="0" style="stop-color:#e5d315;stop-opacity:1"/><stop offset="1" style="stop-color:#de8602;stop-opacity:1"/></linearGradient><linearGradient id="6_Linear7" x1="0" y1="0" x2="1" y2="0" gradientUnits="userSpaceOnUse" gradientTransform="matrix(8.45456e-15,69.0367,-138.073,4.22728e-15,222.409,2.31083)"><stop offset="0" style="stop-color:#c17aff;stop-opacity:1"/><stop offset="1" style="stop-color:#5d258d;stop-opacity:1"/></linearGradient><linearGradient id="6_Linear8" x1="0" y1="0" x2="1" y2="0" gradientUnits="userSpaceOnUse" gradientTransform="matrix(1.23014e-14,69.0367,-200.897,4.22728e-15,217.677,114.811)"><stop offset="0" style="stop-color:#c17aff;stop-opacity:1"/><stop offset="1" style="stop-color:#5d258d;stop-opacity:1"/></linearGradient><linearGradient id="6_Linear9" x1="0" y1="0" x2="1" y2="0" gradientUnits="userSpaceOnUse" gradientTransform="matrix(5.15728e-15,69.0367,-84.2248,4.22728e-15,477.822,2.31083)"><stop offset="0" style="stop-color:#c17aff;stop-opacity:1"/><stop offset="1" style="stop-color:#5d258d;stop-opacity:1"/></linearGradient><linearGradient id="6_Linear10" x1="0" y1="0" x2="1" y2="0" gradientUnits="userSpaceOnUse" gradientTransform="matrix(8.45456e-15,69.0367,-138.073,4.22728e-15,72.409,227.311)"><stop offset="0" style="stop-color:#e5d315;stop-opacity:1"/><stop offset="1" style="stop-color:#de8602;stop-opacity:1"/></linearGradient><linearGradient id="6_Linear11" x1="0" y1="0" x2="1" y2="0" gradientUnits="userSpaceOnUse" gradientTransform="matrix(6.34092e-15,69.0367,-103.555,4.22728e-15,504.404,227.311)"><stop offset="0" style="stop-color:#e5d315;stop-opacity:1"/><stop offset="1" style="stop-color:#de8602;stop-opacity:1"/></linearGradient><linearGradient id="6_Linear12" x1="0" y1="0" x2="1" y2="0" gradientUnits="userSpaceOnUse" gradientTransform="matrix(4.22728e-15,69.0367,-69.0367,4.22728e-15,373.9,227.311)"><stop offset="0" style="stop-color:#c17aff;stop-opacity:1"/><stop offset="1" style="stop-color:#5d258d;stop-opacity:1"/></linearGradient></defs></svg>