<svg width="100%" height="100%" viewBox="0 0 189 106" version="1.1" xmlns="http://www.w3.org/2000/svg" xmlns:xlink="http://www.w3.org/1999/xlink" xml:space="preserve" xmlns:serif="http://www.serif.com/" style="fill-rule:evenodd;clip-rule:evenodd;stroke-linejoin:round;stroke-miterlimit:1.41421;"><rect x="0.391" y="0.391" width="75" height="75" style="fill:url(#7_Linear1);stroke:#478a38;stroke-width:0.78px;"/><rect x="112.891" y="0.391" width="75" height="75" style="fill:url(#7_Linear2);stroke:#5f3c80;stroke-width:0.78px;"/><rect id="_1" serif:id="1" x="75.391" y="22.891" width="37.5" height="30" style="fill:none;"/><clipPath id="7_clip3"><rect x="75.391" y="22.891" width="37.5" height="30"/></clipPath><g clip-path="url(#7_clip3)"><path d="M112.891,37.891l-8.24,4.119l0,-8.239l8.24,4.12Z" style="stroke:#000;stroke-width:0.23px;stroke-linecap:round;stroke-miterlimit:1.5;"/><path d="M104.651,37.891l-29.26,0" style="fill:none;stroke:#000;stroke-width:2px;stroke-linecap:round;stroke-miterlimit:1.5;"/></g><rect x="45.391" y="75.391" width="30" height="30" style="fill:url(#7_Linear4);stroke:#7e4d25;stroke-width:0.78px;"/><path d="M157.891,75.391l30,30l-30,0l0,-30Z" style="fill:url(#7_Linear5);stroke:#3c5e80;stroke-width:0.78px;"/><path d="M187.891,105.391l-30,-30l30,0l0,30Z" style="fill:url(#7_Linear6);stroke:#5f3c80;stroke-width:0.78px;"/><g transform="matrix(0.75,0,0,0.75,-95.0055,-1867.05)"><text x="151.376px" y="2617.93px" style="font-family:'ArialMT', 'Arial', sans-serif;font-size:36px;">c</text><text x="169.376px" y="2629.92px" style="font-family:'ArialMT', 'Arial', sans-serif;font-size:20.988px;">1</text></g><g transform="matrix(0.75,0,0,0.75,19.1847,-1867.05)"><text x="151.376px" y="2617.93px" style="font-family:'ArialMT', 'Arial', sans-serif;font-size:36px;">c</text><text x="169.376px" y="2629.92px" style="font-family:'ArialMT', 'Arial', sans-serif;font-size:20.988px;">2</text></g><defs><linearGradient id="7_Linear1" x1="0" y1="0" x2="1" y2="0" gradientUnits="userSpaceOnUse" gradientTransform="matrix(4.22728e-15,69.0367,-69.0367,4.22728e-15,36.3998,2.31083)"><stop offset="0" style="stop-color:#7fff7a;stop-opacity:1"/><stop offset="1" style="stop-color:#298d25;stop-opacity:1"/></linearGradient><linearGradient id="7_Linear2" x1="0" y1="0" x2="1" y2="0" gradientUnits="userSpaceOnUse" gradientTransform="matrix(4.22728e-15,69.0367,-69.0367,4.22728e-15,148.9,2.31083)"><stop offset="0" style="stop-color:#c17aff;stop-opacity:1"/><stop offset="1" style="stop-color:#5d258d;stop-opacity:1"/></linearGradient><linearGradient id="7_Linear4" x1="0" y1="0" x2="1" y2="0" gradientUnits="userSpaceOnUse" gradientTransform="matrix(1.61161e-15,26.3196,-26.3196,1.61161e-15,59.9372,76.6857)"><stop offset="0" style="stop-color:#ffa052;stop-opacity:1"/><stop offset="1" style="stop-color:#b35c00;stop-opacity:1"/></linearGradient><linearGradient id="7_Linear5" x1="0" y1="0" x2="1" y2="0" gradientUnits="userSpaceOnUse" gradientTransform="matrix(1.69091e-15,27.6147,-27.6147,1.69091e-15,172.294,76.1587)"><stop offset="0" style="stop-color:#7abdff;stop-opacity:1"/><stop offset="1" style="stop-color:#25598d;stop-opacity:1"/></linearGradient><linearGradient id="7_Linear6" x1="0" y1="0" x2="1" y2="0" gradientUnits="userSpaceOnUse" gradientTransform="matrix(-5.04554e-15,-27.6147,27.6147,-5.04275e-15,173.487,104.623)"><stop offset="0" style="stop-color:#5d258d;stop-opacity:1"/><stop offset="1" style="stop-color:#c17aff;stop-opacity:1"/></linearGradient></defs></svg>