<svg width="100%" height="100%" viewBox="0 0 601 219" version="1.1" xmlns="http://www.w3.org/2000/svg" xmlns:xlink="http://www.w3.org/1999/xlink" xml:space="preserve" xmlns:serif="http://www.serif.com/" style="fill-rule:evenodd;clip-rule:evenodd;stroke-linejoin:round;stroke-miterlimit:1.41421;"><rect x="0.391" y="0.391" width="112.5" height="75" style="fill:url(#8_Linear1);stroke:#c98b26;stroke-width:0.78px;"/><rect x="0.391" y="112.891" width="150" height="75" style="fill:url(#8_Linear2);stroke:#c98b26;stroke-width:0.78px;"/><rect x="337.891" y="0.391" width="112.5" height="75" style="fill:url(#8_Linear3);stroke:#c98b26;stroke-width:0.78px;"/><rect x="300.391" y="112.891" width="112.5" height="75" style="fill:url(#8_Linear4);stroke:#c98b26;stroke-width:0.78px;"/><rect x="562.891" y="0.391" width="37.5" height="75" style="fill:url(#8_Linear5);stroke:#c98b26;stroke-width:0.78px;"/><rect x="150.391" y="0.391" width="150" height="75" style="fill:url(#8_Linear6);stroke:#5f3c80;stroke-width:0.78px;"/><rect x="187.891" y="112.891" width="75" height="75" style="fill:url(#8_Linear7);stroke:#5f3c80;stroke-width:0.78px;"/><rect x="487.891" y="0.391" width="37.5" height="75" style="fill:url(#8_Linear8);stroke:#5f3c80;stroke-width:0.78px;"/><rect id="_1" serif:id="1" x="112.891" y="27.01" width="37.5" height="30" style="fill:none;"/><clipPath id="8_clip9"><rect x="112.891" y="27.01" width="37.5" height="30"/></clipPath><g clip-path="url(#8_clip9)"><path d="M150.391,42.01l-8.24,4.12l0,-8.239l8.24,4.119Z" style="stroke:#000;stroke-width:0.23px;stroke-linecap:round;stroke-miterlimit:1.5;"/><path d="M142.151,42.01l-29.26,0" style="fill:none;stroke:#000;stroke-width:2px;stroke-linecap:round;stroke-miterlimit:1.5;"/></g><rect id="_11" serif:id="1" x="300.391" y="27.01" width="37.5" height="30" style="fill:none;"/><clipPath id="8_clip10"><rect x="300.391" y="27.01" width="37.5" height="30"/></clipPath><g clip-path="url(#8_clip10)"><path d="M337.891,42.01l-8.24,4.12l0,-8.239l8.24,4.119Z" style="stroke:#000;stroke-width:0.23px;stroke-linecap:round;stroke-miterlimit:1.5;"/><path d="M329.651,42.01l-29.26,0" style="fill:none;stroke:#000;stroke-width:2px;stroke-linecap:round;stroke-miterlimit:1.5;"/></g><rect id="_12" serif:id="1" x="450.391" y="22.891" width="37.5" height="30" style="fill:none;"/><clipPath id="8_clip11"><rect x="450.391" y="22.891" width="37.5" height="30"/></clipPath><g clip-path="url(#8_clip11)"><path d="M487.891,37.891l-8.24,4.119l0,-8.239l8.24,4.12Z" style="stroke:#000;stroke-width:0.23px;stroke-linecap:round;stroke-miterlimit:1.5;"/><path d="M479.651,37.891l-29.26,0" style="fill:none;stroke:#000;stroke-width:2px;stroke-linecap:round;stroke-miterlimit:1.5;"/></g><rect id="_13" serif:id="1" x="525.391" y="22.891" width="37.5" height="30" style="fill:none;"/><clipPath id="8_clip12"><rect x="525.391" y="22.891" width="37.5" height="30"/></clipPath><g clip-path="url(#8_clip12)"><path d="M562.891,37.891l-8.24,4.119l0,-8.239l8.24,4.12Z" style="stroke:#000;stroke-width:0.23px;stroke-linecap:round;stroke-miterlimit:1.5;"/><path d="M554.651,37.891l-29.26,0" style="fill:none;stroke:#000;stroke-width:2px;stroke-linecap:round;stroke-miterlimit:1.5;"/></g><rect id="_14" serif:id="1" x="150.391" y="135.391" width="37.5" height="30" style="fill:none;"/><clipPath id="8_clip13"><rect x="150.391" y="135.391" width="37.5" height="30"/></clipPath><g clip-path="url(#8_clip13)"><path d="M187.891,150.391l-8.24,4.119l0,-8.239l8.24,4.12Z" style="stroke:#000;stroke-width:0.23px;stroke-linecap:round;stroke-miterlimit:1.5;"/><path d="M179.651,150.391l-29.26,0" style="fill:none;stroke:#000;stroke-width:2px;stroke-linecap:round;stroke-miterlimit:1.5;"/></g><rect id="_15" serif:id="1" x="262.891" y="135.391" width="37.5" height="30" style="fill:none;"/><clipPath id="8_clip14"><rect x="262.891" y="135.391" width="37.5" height="30"/></clipPath><g clip-path="url(#8_clip14)"><path d="M300.391,150.391l-8.24,4.119l0,-8.239l8.24,4.12Z" style="stroke:#000;stroke-width:0.22px;stroke-linecap:round;stroke-miterlimit:1.5;"/><path d="M292.151,150.391l-29.26,0" style="fill:none;stroke:#000;stroke-width:2px;stroke-linecap:round;stroke-miterlimit:1.5;"/></g><rect x="270.391" y="75.391" width="30" height="30" style="fill:url(#8_Linear15);stroke:#5f3c80;stroke-width:0.78px;"/><rect x="232.891" y="187.891" width="30" height="30" style="fill:url(#8_Linear16);stroke:#5f3c80;stroke-width:0.78px;"/><rect x="495.391" y="75.391" width="30" height="30" style="fill:url(#8_Linear17);stroke:#5f3c80;stroke-width:0.78px;"/><defs><linearGradient id="8_Linear1" x1="0" y1="0" x2="1" y2="0" gradientUnits="userSpaceOnUse" gradientTransform="matrix(6.34092e-15,69.0367,-103.555,4.22728e-15,54.4044,2.31083)"><stop offset="0" style="stop-color:#e5d315;stop-opacity:1"/><stop offset="1" style="stop-color:#de8602;stop-opacity:1"/></linearGradient><linearGradient id="8_Linear2" x1="0" y1="0" x2="1" y2="0" gradientUnits="userSpaceOnUse" gradientTransform="matrix(8.45456e-15,69.0367,-138.073,4.22728e-15,72.409,114.811)"><stop offset="0" style="stop-color:#e5d315;stop-opacity:1"/><stop offset="1" style="stop-color:#de8602;stop-opacity:1"/></linearGradient><linearGradient id="8_Linear3" x1="0" y1="0" x2="1" y2="0" gradientUnits="userSpaceOnUse" gradientTransform="matrix(6.34092e-15,69.0367,-103.555,4.22728e-15,391.904,2.31083)"><stop offset="0" style="stop-color:#e5d315;stop-opacity:1"/><stop offset="1" style="stop-color:#de8602;stop-opacity:1"/></linearGradient><linearGradient id="8_Linear4" x1="0" y1="0" x2="1" y2="0" gradientUnits="userSpaceOnUse" gradientTransform="matrix(6.34092e-15,69.0367,-103.555,4.22728e-15,354.404,114.811)"><stop offset="0" style="stop-color:#e5d315;stop-opacity:1"/><stop offset="1" style="stop-color:#de8602;stop-opacity:1"/></linearGradient><linearGradient id="8_Linear5" x1="0" y1="0" x2="1" y2="0" gradientUnits="userSpaceOnUse" gradientTransform="matrix(2.11364e-15,69.0367,-34.5183,4.22728e-15,580.895,2.31083)"><stop offset="0" style="stop-color:#e5d315;stop-opacity:1"/><stop offset="1" style="stop-color:#de8602;stop-opacity:1"/></linearGradient><linearGradient id="8_Linear6" x1="0" y1="0" x2="1" y2="0" gradientUnits="userSpaceOnUse" gradientTransform="matrix(8.45456e-15,69.0367,-138.073,4.22728e-15,222.409,2.31083)"><stop offset="0" style="stop-color:#c17aff;stop-opacity:1"/><stop offset="1" style="stop-color:#5d258d;stop-opacity:1"/></linearGradient><linearGradient id="8_Linear7" x1="0" y1="0" x2="1" y2="0" gradientUnits="userSpaceOnUse" gradientTransform="matrix(4.22728e-15,69.0367,-69.0367,4.22728e-15,223.9,114.811)"><stop offset="0" style="stop-color:#c17aff;stop-opacity:1"/><stop offset="1" style="stop-color:#5d258d;stop-opacity:1"/></linearGradient><linearGradient id="8_Linear8" x1="0" y1="0" x2="1" y2="0" gradientUnits="userSpaceOnUse" gradientTransform="matrix(2.11364e-15,69.0367,-34.5183,4.22728e-15,505.895,2.31083)"><stop offset="0" style="stop-color:#c17aff;stop-opacity:1"/><stop offset="1" style="stop-color:#5d258d;stop-opacity:1"/></linearGradient><linearGradient id="8_Linear15" x1="0" y1="0" x2="1" y2="0" gradientUnits="userSpaceOnUse" gradientTransform="matrix(1.69091e-15,27.6147,-27.6147,1.69091e-15,284.794,76.1587)"><stop offset="0" style="stop-color:#c17aff;stop-opacity:1"/><stop offset="1" style="stop-color:#5d258d;stop-opacity:1"/></linearGradient><linearGradient id="8_Linear16" x1="0" y1="0" x2="1" y2="0" gradientUnits="userSpaceOnUse" gradientTransform="matrix(1.69091e-15,27.6147,-27.6147,1.69091e-15,247.294,188.659)"><stop offset="0" style="stop-color:#c17aff;stop-opacity:1"/><stop offset="1" style="stop-color:#5d258d;stop-opacity:1"/></linearGradient><linearGradient id="8_Linear17" x1="0" y1="0" x2="1" y2="0" gradientUnits="userSpaceOnUse" gradientTransform="matrix(1.69091e-15,27.6147,-27.6147,1.69091e-15,509.794,76.1587)"><stop offset="0" style="stop-color:#c17aff;stop-opacity:1"/><stop offset="1" style="stop-color:#5d258d;stop-opacity:1"/></linearGradient></defs></svg>