<svg width="100%" height="100%" viewBox="0 0 543 393" version="1.1" xmlns="http://www.w3.org/2000/svg" xmlns:xlink="http://www.w3.org/1999/xlink" xml:space="preserve" xmlns:serif="http://www.serif.com/" style="fill-rule:evenodd;clip-rule:evenodd;">
    <g transform="matrix(1,0,0,1,-98.5,-48.5)">
        <clipPath id="_clip1">
            <rect x="98.5" y="223.5" width="43" height="43" clip-rule="nonzero"/>
        </clipPath>
        <g clip-path="url(#_clip1)">
            <g transform="matrix(0.42,0,0,-0.42,99,245)">
                <clipPath id="_clip2">
                    <rect x="2.381" y="-47.619" width="95.238" height="95.238" clip-rule="nonzero"/>
                </clipPath>
                <g clip-path="url(#_clip2)">
                    <rect x="-1.19" y="-51.19" width="102.381" height="102.381" style="fill:url(#_Linear3);"/>
                </g>
            </g>
            <g transform="matrix(1,0,0,-1,100,265)">
                <rect x="0" y="0" width="40" height="40" style="fill:none;stroke:black;stroke-width:1px;"/>
            </g>
        </g>
    </g>
    <g transform="matrix(1,0,0,1,-98.5,-48.5)">
        <clipPath id="_clip4">
            <rect x="498.5" y="348.5" width="43" height="43" clip-rule="nonzero"/>
        </clipPath>
        <g clip-path="url(#_clip4)">
            <g transform="matrix(0.42,0,0,-0.42,499,370)">
                <clipPath id="_clip5">
                    <rect x="2.381" y="-47.619" width="95.238" height="95.238" clip-rule="nonzero"/>
                </clipPath>
                <g clip-path="url(#_clip5)">
                    <rect x="-1.19" y="-51.19" width="102.381" height="102.381" style="fill:url(#_Linear6);"/>
                </g>
            </g>
            <g transform="matrix(1,0,0,-1,500,390)">
                <rect x="0" y="0" width="40" height="40" style="fill:none;stroke:black;stroke-width:1px;"/>
            </g>
        </g>
    </g>
    <g transform="matrix(1,0,0,1,-98.5,-48.5)">
        <clipPath id="_clip7">
            <rect x="398.5" y="348.5" width="43" height="43" clip-rule="nonzero"/>
        </clipPath>
        <g clip-path="url(#_clip7)">
            <g transform="matrix(0.42,0,0,-0.42,399,370)">
                <clipPath id="_clip8">
                    <rect x="2.381" y="-47.619" width="95.238" height="95.238" clip-rule="nonzero"/>
                </clipPath>
                <g clip-path="url(#_clip8)">
                    <rect x="-1.19" y="-51.19" width="102.381" height="102.381" style="fill:url(#_Linear9);"/>
                </g>
            </g>
            <g transform="matrix(1,0,0,-1,400,390)">
                <rect x="0" y="0" width="40" height="40" style="fill:none;stroke:black;stroke-width:1px;"/>
            </g>
        </g>
    </g>
    <g transform="matrix(1,0,0,1,-98.5,-48.5)">
        <clipPath id="_clip10">
            <rect x="398.5" y="223.5" width="43" height="43" clip-rule="nonzero"/>
        </clipPath>
        <g clip-path="url(#_clip10)">
            <g transform="matrix(0.42,0,0,-0.42,399,245)">
                <clipPath id="_clip11">
                    <rect x="2.381" y="-47.619" width="95.238" height="95.238" clip-rule="nonzero"/>
                </clipPath>
                <g clip-path="url(#_clip11)">
                    <rect x="-1.19" y="-51.19" width="102.381" height="102.381" style="fill:url(#_Linear12);"/>
                </g>
            </g>
            <g transform="matrix(1,0,0,-1,400,265)">
                <rect x="0" y="0" width="40" height="40" style="fill:none;stroke:black;stroke-width:1px;"/>
            </g>
        </g>
    </g>
    <g transform="matrix(1,0,0,1,-98.5,-48.5)">
        <clipPath id="_clip13">
            <rect x="398.5" y="48.5" width="43" height="43" clip-rule="nonzero"/>
        </clipPath>
        <g clip-path="url(#_clip13)">
            <g transform="matrix(0.42,0,0,-0.42,399,70)">
                <clipPath id="_clip14">
                    <rect x="2.381" y="-47.619" width="95.238" height="95.238" clip-rule="nonzero"/>
                </clipPath>
                <g clip-path="url(#_clip14)">
                    <rect x="-1.19" y="-51.19" width="102.381" height="102.381" style="fill:url(#_Linear15);"/>
                </g>
            </g>
            <g transform="matrix(1,0,0,-1,400,90)">
                <rect x="0" y="0" width="40" height="40" style="fill:none;stroke:black;stroke-width:1px;"/>
            </g>
        </g>
    </g>
    <g transform="matrix(1,0,0,1,-98.5,-48.5)">
        <clipPath id="_clip16">
            <rect x="298.5" y="398.5" width="43" height="43" clip-rule="nonzero"/>
        </clipPath>
        <g clip-path="url(#_clip16)">
            <g transform="matrix(0.42,0,0,-0.42,299,420)">
                <clipPath id="_clip17">
                    <rect x="2.381" y="-47.619" width="95.238" height="95.238" clip-rule="nonzero"/>
                </clipPath>
                <g clip-path="url(#_clip17)">
                    <rect x="-1.19" y="-51.19" width="102.381" height="102.381" style="fill:url(#_Linear18);"/>
                </g>
            </g>
            <g transform="matrix(1,0,0,-1,300,440)">
                <rect x="0" y="0" width="40" height="40" style="fill:none;stroke:black;stroke-width:1px;"/>
            </g>
        </g>
    </g>
    <g transform="matrix(1,0,0,1,-98.5,-48.5)">
        <clipPath id="_clip19">
            <rect x="298.5" y="348.5" width="43" height="43" clip-rule="nonzero"/>
        </clipPath>
        <g clip-path="url(#_clip19)">
            <g transform="matrix(0.42,0,0,-0.42,299,370)">
                <clipPath id="_clip20">
                    <rect x="2.381" y="-47.619" width="95.238" height="95.238" clip-rule="nonzero"/>
                </clipPath>
                <g clip-path="url(#_clip20)">
                    <rect x="-1.19" y="-51.19" width="102.381" height="102.381" style="fill:url(#_Linear21);"/>
                </g>
            </g>
            <g transform="matrix(1,0,0,-1,300,390)">
                <rect x="0" y="0" width="40" height="40" style="fill:none;stroke:black;stroke-width:1px;"/>
            </g>
        </g>
    </g>
    <g transform="matrix(1,0,0,1,-98.5,-48.5)">
        <clipPath id="_clip22">
            <rect x="298.5" y="298.5" width="43" height="43" clip-rule="nonzero"/>
        </clipPath>
        <g clip-path="url(#_clip22)">
            <g transform="matrix(0.42,0,0,-0.42,299,320)">
                <clipPath id="_clip23">
                    <rect x="2.381" y="-47.619" width="95.238" height="95.238" clip-rule="nonzero"/>
                </clipPath>
                <g clip-path="url(#_clip23)">
                    <rect x="-1.19" y="-51.19" width="102.381" height="102.381" style="fill:url(#_Linear24);"/>
                </g>
            </g>
            <g transform="matrix(1,0,0,-1,300,340)">
                <rect x="0" y="0" width="40" height="40" style="fill:none;stroke:black;stroke-width:1px;"/>
            </g>
        </g>
    </g>
    <g transform="matrix(1,0,0,1,-98.5,-48.5)">
        <clipPath id="_clip25">
            <rect x="298.5" y="248.5" width="43" height="43" clip-rule="nonzero"/>
        </clipPath>
        <g clip-path="url(#_clip25)">
            <g transform="matrix(0.42,0,0,-0.42,299,270)">
                <clipPath id="_clip26">
                    <rect x="2.381" y="-47.619" width="95.238" height="95.238" clip-rule="nonzero"/>
                </clipPath>
                <g clip-path="url(#_clip26)">
                    <rect x="-1.19" y="-51.19" width="102.381" height="102.381" style="fill:url(#_Linear27);"/>
                </g>
            </g>
            <g transform="matrix(1,0,0,-1,300,290)">
                <rect x="0" y="0" width="40" height="40" style="fill:none;stroke:black;stroke-width:1px;"/>
            </g>
        </g>
    </g>
    <g transform="matrix(1,0,0,1,-98.5,-48.5)">
        <clipPath id="_clip28">
            <rect x="298.5" y="198.5" width="43" height="43" clip-rule="nonzero"/>
        </clipPath>
        <g clip-path="url(#_clip28)">
            <g transform="matrix(0.42,0,0,-0.42,299,220)">
                <clipPath id="_clip29">
                    <rect x="2.381" y="-47.619" width="95.238" height="95.238" clip-rule="nonzero"/>
                </clipPath>
                <g clip-path="url(#_clip29)">
                    <rect x="-1.19" y="-51.19" width="102.381" height="102.381" style="fill:url(#_Linear30);"/>
                </g>
            </g>
            <g transform="matrix(1,0,0,-1,300,240)">
                <rect x="0" y="0" width="40" height="40" style="fill:none;stroke:black;stroke-width:1px;"/>
            </g>
        </g>
    </g>
    <g transform="matrix(1,0,0,1,-98.5,-48.5)">
        <clipPath id="_clip31">
            <rect x="298.5" y="148.5" width="43" height="43" clip-rule="nonzero"/>
        </clipPath>
        <g clip-path="url(#_clip31)">
            <g transform="matrix(0.42,0,0,-0.42,299,170)">
                <clipPath id="_clip32">
                    <rect x="2.381" y="-47.619" width="95.238" height="95.238" clip-rule="nonzero"/>
                </clipPath>
                <g clip-path="url(#_clip32)">
                    <rect x="-1.19" y="-51.19" width="102.381" height="102.381" style="fill:url(#_Linear33);"/>
                </g>
            </g>
            <g transform="matrix(1,0,0,-1,300,190)">
                <rect x="0" y="0" width="40" height="40" style="fill:none;stroke:black;stroke-width:1px;"/>
            </g>
        </g>
    </g>
    <g transform="matrix(1,0,0,1,-98.5,-48.5)">
        <clipPath id="_clip34">
            <rect x="298.5" y="98.5" width="43" height="43" clip-rule="nonzero"/>
        </clipPath>
        <g clip-path="url(#_clip34)">
            <g transform="matrix(0.42,0,0,-0.42,299,120)">
                <clipPath id="_clip35">
                    <rect x="2.381" y="-47.619" width="95.238" height="95.238" clip-rule="nonzero"/>
                </clipPath>
                <g clip-path="url(#_clip35)">
                    <rect x="-1.19" y="-51.19" width="102.381" height="102.381" style="fill:url(#_Linear36);"/>
                </g>
            </g>
            <g transform="matrix(1,0,0,-1,300,140)">
                <rect x="0" y="0" width="40" height="40" style="fill:none;stroke:black;stroke-width:1px;"/>
            </g>
        </g>
    </g>
    <g transform="matrix(1,0,0,1,-98.5,-48.5)">
        <clipPath id="_clip37">
            <rect x="298.5" y="48.5" width="43" height="43" clip-rule="nonzero"/>
        </clipPath>
        <g clip-path="url(#_clip37)">
            <g transform="matrix(0.42,0,0,-0.42,299,70)">
                <clipPath id="_clip38">
                    <rect x="2.381" y="-47.619" width="95.238" height="95.238" clip-rule="nonzero"/>
                </clipPath>
                <g clip-path="url(#_clip38)">
                    <rect x="-1.19" y="-51.19" width="102.381" height="102.381" style="fill:url(#_Linear39);"/>
                </g>
            </g>
            <g transform="matrix(1,0,0,-1,300,90)">
                <rect x="0" y="0" width="40" height="40" style="fill:none;stroke:black;stroke-width:1px;"/>
            </g>
        </g>
    </g>
    <g transform="matrix(1,0,0,1,-98.5,-48.5)">
        <clipPath id="_clip40">
            <rect x="198.5" y="373.5" width="43" height="43" clip-rule="nonzero"/>
        </clipPath>
        <g clip-path="url(#_clip40)">
            <g transform="matrix(0.42,0,0,-0.42,199,395)">
                <clipPath id="_clip41">
                    <rect x="2.381" y="-47.619" width="95.238" height="95.238" clip-rule="nonzero"/>
                </clipPath>
                <g clip-path="url(#_clip41)">
                    <rect x="-1.19" y="-51.19" width="102.381" height="102.381" style="fill:url(#_Linear42);"/>
                </g>
            </g>
            <g transform="matrix(1,0,0,-1,200,415)">
                <rect x="0" y="0" width="40" height="40" style="fill:none;stroke:black;stroke-width:1px;"/>
            </g>
        </g>
    </g>
    <g transform="matrix(1,0,0,1,-98.5,-48.5)">
        <clipPath id="_clip43">
            <rect x="198.5" y="298.5" width="43" height="43" clip-rule="nonzero"/>
        </clipPath>
        <g clip-path="url(#_clip43)">
            <g transform="matrix(0.42,0,0,-0.42,199,320)">
                <clipPath id="_clip44">
                    <rect x="2.381" y="-47.619" width="95.238" height="95.238" clip-rule="nonzero"/>
                </clipPath>
                <g clip-path="url(#_clip44)">
                    <rect x="-1.19" y="-51.19" width="102.381" height="102.381" style="fill:url(#_Linear45);"/>
                </g>
            </g>
            <g transform="matrix(1,0,0,-1,200,340)">
                <rect x="0" y="0" width="40" height="40" style="fill:none;stroke:black;stroke-width:1px;"/>
            </g>
        </g>
    </g>
    <g transform="matrix(1,0,0,1,-98.5,-48.5)">
        <clipPath id="_clip46">
            <rect x="198.5" y="223.5" width="43" height="43" clip-rule="nonzero"/>
        </clipPath>
        <g clip-path="url(#_clip46)">
            <g transform="matrix(0.42,0,0,-0.42,199,245)">
                <clipPath id="_clip47">
                    <rect x="2.381" y="-47.619" width="95.238" height="95.238" clip-rule="nonzero"/>
                </clipPath>
                <g clip-path="url(#_clip47)">
                    <rect x="-1.19" y="-51.19" width="102.381" height="102.381" style="fill:url(#_Linear48);"/>
                </g>
            </g>
            <g transform="matrix(1,0,0,-1,200,265)">
                <rect x="0" y="0" width="40" height="40" style="fill:none;stroke:black;stroke-width:1px;"/>
            </g>
        </g>
    </g>
    <g transform="matrix(1,0,0,1,-98.5,-48.5)">
        <clipPath id="_clip49">
            <rect x="198.5" y="98.5" width="43" height="43" clip-rule="nonzero"/>
        </clipPath>
        <g clip-path="url(#_clip49)">
            <g transform="matrix(0.42,0,0,-0.42,199,120)">
                <clipPath id="_clip50">
                    <rect x="2.381" y="-47.619" width="95.238" height="95.238" clip-rule="nonzero"/>
                </clipPath>
                <g clip-path="url(#_clip50)">
                    <rect x="-1.19" y="-51.19" width="102.381" height="102.381" style="fill:url(#_Linear51);"/>
                </g>
            </g>
            <g transform="matrix(1,0,0,-1,200,140)">
                <rect x="0" y="0" width="40" height="40" style="fill:none;stroke:black;stroke-width:1px;"/>
            </g>
        </g>
    </g>
    <g transform="matrix(1,0,0,1,-98.5,-48.5)">
        <clipPath id="_clip52">
            <rect x="598.5" y="223.5" width="43" height="43" clip-rule="nonzero"/>
        </clipPath>
        <g clip-path="url(#_clip52)">
            <g transform="matrix(0.42,0,0,-0.42,599,245)">
                <clipPath id="_clip53">
                    <rect x="2.381" y="-47.619" width="95.238" height="95.238" clip-rule="nonzero"/>
                </clipPath>
                <g clip-path="url(#_clip53)">
                    <rect x="-1.19" y="-51.19" width="102.381" height="102.381" style="fill:url(#_Linear54);"/>
                </g>
            </g>
            <g transform="matrix(1,0,0,-1,600,265)">
                <rect x="0" y="0" width="40" height="40" style="fill:none;stroke:black;stroke-width:1px;"/>
            </g>
        </g>
    </g>
    <g transform="matrix(1,0,0,1,-98.5,-48.5)">
        <clipPath id="_clip55">
            <rect x="132.219" y="263.917" width="68.469" height="63.742" clip-rule="nonzero"/>
        </clipPath>
        <g clip-path="url(#_clip55)">
            <g transform="matrix(1,0,0,-1,134.031,322.424)">
                <path d="M0,56.924C21.795,26.561 40.583,7.693 56.363,0.318L57.313,0" style="fill:none;stroke:black;stroke-width:2px;"/>
            </g>
            <g transform="matrix(1,0,0,1,0,-123.786)">
                <path d="M188.873,450.445L199.5,448.938L191.918,441.341L188.873,450.445Z" style="fill-rule:nonzero;"/>
            </g>
        </g>
    </g>
    <g transform="matrix(1,0,0,1,-98.5,-48.5)">
        <clipPath id="_clip56">
            <rect x="124.531" y="264.189" width="76.356" height="132.411" clip-rule="nonzero"/>
        </clipPath>
        <g clip-path="url(#_clip56)">
            <g transform="matrix(1,0,0,-1,126.481,390.364)">
                <path d="M0,124.864C22.032,57.562 43.603,16.108 64.712,0.503L65.579,0" style="fill:none;stroke:black;stroke-width:2px;"/>
            </g>
            <g transform="matrix(1,0,0,1,0,12.3884)">
                <path d="M188.787,381.627L199.5,382.29L193.603,373.322L188.787,381.627Z" style="fill-rule:nonzero;"/>
            </g>
        </g>
    </g>
    <g transform="matrix(1,0,0,1,-98.5,-48.5)">
        <clipPath id="_clip57">
            <rect x="238.883" y="67.156" width="61.835" height="37.487" clip-rule="nonzero"/>
        </clipPath>
        <g clip-path="url(#_clip57)">
            <g transform="matrix(1,0,0,-1,240.5,105.293)">
                <path d="M0,2.436C19.041,17.376 35.638,27.408 49.792,32.533L50.752,32.817" style="fill:none;stroke:black;stroke-width:2px;"/>
            </g>
            <g transform="matrix(1,0,0,1,0,-622.481)">
                <path d="M291.653,699.844L299.5,692.521L288.933,690.637L291.653,699.844Z" style="fill-rule:nonzero;"/>
            </g>
        </g>
    </g>
    <g transform="matrix(1,0,0,1,-98.5,-48.5)">
        <clipPath id="_clip58">
            <rect x="239.5" y="114.2" width="61" height="11.6" clip-rule="nonzero"/>
        </clipPath>
        <g clip-path="url(#_clip58)">
            <g transform="matrix(1,0,0,-1,240.5,120)">
                <path d="M0,0L50.4,0" style="fill:none;stroke:black;stroke-width:2px;"/>
            </g>
            <g transform="matrix(1,0,0,1,0,-528)">
                <path d="M289.9,652.8L299.5,648L289.9,643.2L289.9,652.8Z" style="fill-rule:nonzero;"/>
            </g>
        </g>
    </g>
    <g transform="matrix(1,0,0,1,-98.5,-48.5)">
        <clipPath id="_clip59">
            <rect x="238.882" y="135.923" width="61.825" height="35.692" clip-rule="nonzero"/>
        </clipPath>
        <g clip-path="url(#_clip59)">
            <g transform="matrix(1,0,0,-1,240.5,166.233)">
                <path d="M0,28.525C17.612,14.658 34.186,5.236 49.722,0.258L50.69,0" style="fill:none;stroke:black;stroke-width:2px;"/>
            </g>
            <g transform="matrix(1,0,0,1,0,-436.048)">
                <path d="M288.989,606.662L299.501,604.494L291.459,597.386L288.989,606.662Z" style="fill-rule:nonzero;"/>
            </g>
        </g>
    </g>
    <g transform="matrix(1,0,0,1,-98.5,-48.5)">
        <clipPath id="_clip60">
            <rect x="239.071" y="213.049" width="61.452" height="22.938" clip-rule="nonzero"/>
        </clipPath>
        <g clip-path="url(#_clip60)">
            <g transform="matrix(1,0,0,-1,240.501,234.683)">
                <path d="M0,0.599C17.687,9.008 34.162,14.09 49.423,15.846L50.42,15.916" style="fill:none;stroke:black;stroke-width:2px;"/>
            </g>
            <g transform="matrix(1,0,0,1,0,-330.326)">
                <path d="M290.258,553.951L299.5,548.494L289.589,544.375L290.258,553.951Z" style="fill-rule:nonzero;"/>
            </g>
        </g>
    </g>
    <g transform="matrix(1,0,0,1,-98.5,-48.5)">
        <clipPath id="_clip61">
            <rect x="339.5" y="364.2" width="61" height="11.6" clip-rule="nonzero"/>
        </clipPath>
        <g clip-path="url(#_clip61)">
            <g transform="matrix(1,0,0,-1,340.5,370)">
                <path d="M0,0L50.4,0" style="fill:none;stroke:black;stroke-width:2px;"/>
            </g>
            <g transform="matrix(1,0,0,1,0,-28)">
                <path d="M389.9,402.8L399.5,398L389.9,393.2L389.9,402.8Z" style="fill-rule:nonzero;"/>
            </g>
        </g>
    </g>
    <g transform="matrix(1,0,0,1,-98.5,-48.5)">
        <clipPath id="_clip62">
            <rect x="139.5" y="239.2" width="61" height="11.6" clip-rule="nonzero"/>
        </clipPath>
        <g clip-path="url(#_clip62)">
            <g transform="matrix(1,0,0,-1,140.5,245)">
                <path d="M0,0L50.4,0" style="fill:none;stroke:black;stroke-width:2px;"/>
            </g>
            <g transform="matrix(1,0,0,1,0,-278)">
                <path d="M189.9,527.8L199.5,523L189.9,518.2L189.9,527.8Z" style="fill-rule:nonzero;"/>
            </g>
        </g>
    </g>
    <g transform="matrix(1,0,0,1,-98.5,-48.5)">
        <clipPath id="_clip63">
            <rect x="127.253" y="122.592" width="73.726" height="103.329" clip-rule="nonzero"/>
        </clipPath>
        <g clip-path="url(#_clip63)">
            <g transform="matrix(1,0,0,-1,129.161,229.248)">
                <path d="M0,4.748C22.351,52.988 43.129,84.564 62.334,99.477L63.17,100.03" style="fill:none;stroke:black;stroke-width:2px;"/>
            </g>
            <g transform="matrix(1,0,0,1,0,-509.758)">
                <path d="M194.147,643.53L199.501,634.228L188.846,635.526L194.147,643.53Z" style="fill-rule:nonzero;"/>
            </g>
        </g>
    </g>
    <g transform="matrix(1,0,0,1,-98.5,-48.5)">
        <clipPath id="_clip64">
            <rect x="239.08" y="403.123" width="61.501" height="25.455" clip-rule="nonzero"/>
        </clipPath>
        <g clip-path="url(#_clip64)">
            <g transform="matrix(1,0,0,-1,240.5,422.972)">
                <path d="M0,17.942C19.944,8.708 36.444,2.775 49.5,0.144L50.49,0" style="fill:none;stroke:black;stroke-width:2px;"/>
            </g>
            <g transform="matrix(1,0,0,1,0,77.6564)">
                <path d="M289.309,349.922L299.5,346.556L290.693,340.422L289.309,349.922Z" style="fill-rule:nonzero;"/>
            </g>
        </g>
    </g>
    <g transform="matrix(1,0,0,1,-98.5,-48.5)">
        <clipPath id="_clip65">
            <rect x="239.098" y="364.783" width="61.462" height="21.946" clip-rule="nonzero"/>
        </clipPath>
        <g clip-path="url(#_clip65)">
            <g transform="matrix(1,0,0,-1,240.5,385.617)">
                <path d="M0,0.803C16.996,8.271 33.476,13.021 49.442,15.055L50.438,15.148" style="fill:none;stroke:black;stroke-width:2px;"/>
            </g>
            <g transform="matrix(1,0,0,1,0,-26.8764)">
                <path d="M290.39,402.217L299.5,396.542L289.494,392.659L290.39,402.217Z" style="fill-rule:nonzero;"/>
            </g>
        </g>
    </g>
    <g transform="matrix(1,0,0,1,-98.5,-48.5)">
        <clipPath id="_clip66">
            <rect x="239.5" y="314.2" width="61" height="11.6" clip-rule="nonzero"/>
        </clipPath>
        <g clip-path="url(#_clip66)">
            <g transform="matrix(1,0,0,-1,240.5,320)">
                <path d="M0,0L50.4,0" style="fill:none;stroke:black;stroke-width:2px;"/>
            </g>
            <g transform="matrix(1,0,0,1,0,-128)">
                <path d="M289.9,452.8L299.5,448L289.9,443.2L289.9,452.8Z" style="fill-rule:nonzero;"/>
            </g>
        </g>
    </g>
    <g transform="matrix(1,0,0,1,-98.5,-48.5)">
        <clipPath id="_clip67">
            <rect x="339.489" y="254.303" width="61.462" height="22.301" clip-rule="nonzero"/>
        </clipPath>
        <g clip-path="url(#_clip67)">
            <g transform="matrix(1,0,0,-1,340.5,278.359)">
                <path d="M0,3.754C13.474,3.898 30.261,8.637 50.361,17.971L51.263,18.409" style="fill:none;stroke:black;stroke-width:2px;"/>
            </g>
            <g transform="matrix(1,0,0,1,0,-247.227)">
                <path d="M392.958,511.932L399.5,503.423L388.768,503.295L392.958,511.932Z" style="fill-rule:nonzero;"/>
            </g>
        </g>
    </g>
    <g transform="matrix(1,0,0,1,-98.5,-48.5)">
        <clipPath id="_clip68">
            <rect x="339.426" y="217.347" width="61.464" height="20.044" clip-rule="nonzero"/>
        </clipPath>
        <g clip-path="url(#_clip68)">
            <g transform="matrix(1,0,0,-1,340.5,232.224)">
                <path d="M0,12.88C14.748,11.793 31.45,7.626 50.106,0.378L51.034,0" style="fill:none;stroke:black;stroke-width:2px;"/>
            </g>
            <g transform="matrix(1,0,0,1,0,-304.307)">
                <path d="M388.796,540.598L399.498,539.777L392.42,531.708L388.796,540.598Z" style="fill-rule:nonzero;"/>
            </g>
        </g>
    </g>
    <g transform="matrix(1,0,0,1,-98.5,-48.5)">
        <clipPath id="_clip69">
            <rect x="239.063" y="253.86" width="61.463" height="24.767" clip-rule="nonzero"/>
        </clipPath>
        <g clip-path="url(#_clip69)">
            <g transform="matrix(1,0,0,-1,240.5,272.939)">
                <path d="M0,17.179C19.167,7.869 35.647,2.173 49.44,0.091L50.436,0" style="fill:none;stroke:black;stroke-width:2px;"/>
            </g>
            <g transform="matrix(1,0,0,1,0,-222.305)">
                <path d="M289.502,499.932L299.5,496.03L290.379,490.373L289.502,499.932Z" style="fill-rule:nonzero;"/>
            </g>
        </g>
    </g>
    <g transform="matrix(1,0,0,1,-98.5,-48.5)">
        <clipPath id="_clip70">
            <rect x="339.489" y="254.417" width="261.477" height="68.224" clip-rule="nonzero"/>
        </clipPath>
        <g clip-path="url(#_clip70)">
            <g transform="matrix(1,0,0,-1,340.5,325.493)">
                <path d="M0,4.884C86.478,3.952 169.967,23.917 250.469,64.777L251.362,65.239" style="fill:none;stroke:black;stroke-width:2px;"/>
            </g>
            <g transform="matrix(1,0,0,1,0,-246.722)">
                <path d="M593.18,511.698L599.5,503.024L588.768,503.172L593.18,511.698Z" style="fill-rule:nonzero;"/>
            </g>
        </g>
    </g>
    <g transform="matrix(1,0,0,1,-98.5,-48.5)">
        <clipPath id="_clip71">
            <rect x="339.42" y="168.263" width="261.392" height="72.488" clip-rule="nonzero"/>
        </clipPath>
        <g clip-path="url(#_clip71)">
            <g transform="matrix(1,0,0,-1,340.5,235.503)">
                <path d="M0,65.243C45.566,61.593 128.858,39.95 249.875,0.314L250.829,0" style="fill:none;stroke:black;stroke-width:2px;"/>
            </g>
            <g transform="matrix(1,0,0,1,0,-297.618)">
                <path d="M588.88,537.369L599.499,535.807L591.877,528.249L588.88,537.369Z" style="fill-rule:nonzero;"/>
            </g>
        </g>
    </g>
    <g transform="matrix(1,0,0,1,-98.5,-48.5)">
        <clipPath id="_clip72">
            <rect x="339.396" y="119.726" width="261.716" height="110.474" clip-rule="nonzero"/>
        </clipPath>
        <g clip-path="url(#_clip72)">
            <g transform="matrix(1,0,0,-1,340.5,223.196)">
                <path d="M0,101.476C90.46,92.027 174.247,58.405 251.361,0.609L252.16,0" style="fill:none;stroke:black;stroke-width:2px;"/>
            </g>
            <g transform="matrix(1,0,0,1,0,-320.819)">
                <path d="M588.955,547.227L599.5,549.228L594.774,539.591L588.955,547.227Z" style="fill-rule:nonzero;"/>
            </g>
        </g>
    </g>
    <g transform="matrix(1,0,0,1,-98.5,-48.5)">
        <clipPath id="_clip73">
            <rect x="339.5" y="64.2" width="61" height="11.6" clip-rule="nonzero"/>
        </clipPath>
        <g clip-path="url(#_clip73)">
            <g transform="matrix(1,0,0,-1,340.5,70)">
                <path d="M0,0L50.4,0" style="fill:none;stroke:black;stroke-width:2px;"/>
            </g>
            <g transform="matrix(1,0,0,1,0,-628)">
                <path d="M389.9,702.8L399.5,698L389.9,693.2L389.9,702.8Z" style="fill-rule:nonzero;"/>
            </g>
        </g>
    </g>
    <g transform="matrix(1,0,0,1,-98.5,-48.5)">
        <clipPath id="_clip74">
            <rect x="439.299" y="70.495" width="170.343" height="155.529" clip-rule="nonzero"/>
        </clipPath>
        <g clip-path="url(#_clip74)">
            <g transform="matrix(1,0,0,-1,440.5,217.203)">
                <path d="M0,144.728C54.559,133.535 108.629,85.576 162.209,0.85L162.739,0" style="fill:none;stroke:black;stroke-width:2px;"/>
            </g>
            <g transform="matrix(1,0,0,1,0,-329.686)">
                <path d="M598.637,548.58L607.79,554.186L606.783,543.5L598.637,548.58Z" style="fill-rule:nonzero;"/>
            </g>
        </g>
    </g>
    <g transform="matrix(1,0,0,1,-98.5,-48.5)">
        <clipPath id="_clip75">
            <rect x="539.194" y="264.123" width="74.665" height="110.705" clip-rule="nonzero"/>
        </clipPath>
        <g clip-path="url(#_clip75)">
            <g transform="matrix(1,0,0,-1,540.5,380.822)">
                <path d="M0,7.946C20.259,14.467 42.845,47.302 67.758,106.45L68.142,107.376" style="fill:none;stroke:black;stroke-width:2px;"/>
            </g>
            <g transform="matrix(1,0,0,1,0,-226.294)">
                <path d="M612.694,502.5L611.932,491.794L603.824,498.827L612.694,502.5Z" style="fill-rule:nonzero;"/>
            </g>
        </g>
    </g>
    <g transform="matrix(1,0,0,1,-98.5,-48.5)">
        <clipPath id="_clip76">
            <rect x="439.5" y="239.2" width="161" height="11.6" clip-rule="nonzero"/>
        </clipPath>
        <g clip-path="url(#_clip76)">
            <g transform="matrix(1,0,0,-1,440.5,245)">
                <path d="M0,0L150.4,0" style="fill:none;stroke:black;stroke-width:2px;"/>
            </g>
            <g transform="matrix(1,0,0,1,0,-278)">
                <path d="M589.9,527.8L599.5,523L589.9,518.2L589.9,527.8Z" style="fill-rule:nonzero;"/>
            </g>
        </g>
    </g>
    <g transform="matrix(1,0,0,1,-98.5,-48.5)">
        <clipPath id="_clip77">
            <rect x="339.496" y="377.524" width="161.409" height="45.712" clip-rule="nonzero"/>
        </clipPath>
        <g clip-path="url(#_clip77)">
            <g transform="matrix(1,0,0,-1,340.5,424.828)">
                <path d="M0,3.593C40.933,3.445 91,16.095 150.201,41.544L151.119,41.945" style="fill:none;stroke:black;stroke-width:2px;"/>
            </g>
            <g transform="matrix(1,0,0,1,0,-1.4337)">
                <path d="M492.626,389.115L499.499,380.871L488.78,380.319L492.626,389.115Z" style="fill-rule:nonzero;"/>
            </g>
        </g>
    </g>
    <g transform="matrix(1,0,0,1,-98.5,-48.5)">
        <clipPath id="_clip78">
            <rect x="439.5" y="364.2" width="61" height="11.6" clip-rule="nonzero"/>
        </clipPath>
        <g clip-path="url(#_clip78)">
            <g transform="matrix(1,0,0,-1,440.5,370)">
                <path d="M0,0L50.4,0" style="fill:none;stroke:black;stroke-width:2px;"/>
            </g>
            <g transform="matrix(1,0,0,1,0,-28)">
                <path d="M489.9,402.8L499.5,398L489.9,393.2L489.9,402.8Z" style="fill-rule:nonzero;"/>
            </g>
        </g>
    </g>
    <defs>
        <linearGradient id="_Linear3" x1="0" y1="0" x2="1" y2="0" gradientUnits="userSpaceOnUse" gradientTransform="matrix(0,-100,-100,-0,50,50)"><stop offset="0" style="stop-color:rgb(250,226,50);stop-opacity:1"/><stop offset="1" style="stop-color:rgb(255,147,0);stop-opacity:1"/></linearGradient>
        <linearGradient id="_Linear6" x1="0" y1="0" x2="1" y2="0" gradientUnits="userSpaceOnUse" gradientTransform="matrix(0,-100,-100,-0,50,50)"><stop offset="0" style="stop-color:rgb(250,226,50);stop-opacity:1"/><stop offset="1" style="stop-color:rgb(255,147,0);stop-opacity:1"/></linearGradient>
        <linearGradient id="_Linear9" x1="0" y1="0" x2="1" y2="0" gradientUnits="userSpaceOnUse" gradientTransform="matrix(0,-100,-100,-0,50,50)"><stop offset="0" style="stop-color:rgb(250,226,50);stop-opacity:1"/><stop offset="1" style="stop-color:rgb(255,147,0);stop-opacity:1"/></linearGradient>
        <linearGradient id="_Linear12" x1="0" y1="0" x2="1" y2="0" gradientUnits="userSpaceOnUse" gradientTransform="matrix(0,-100,-100,-0,50,50)"><stop offset="0" style="stop-color:rgb(86,193,255);stop-opacity:1"/><stop offset="1" style="stop-color:rgb(0,118,186);stop-opacity:1"/></linearGradient>
        <linearGradient id="_Linear15" x1="0" y1="0" x2="1" y2="0" gradientUnits="userSpaceOnUse" gradientTransform="matrix(0,-100,-100,-0,50,50)"><stop offset="0" style="stop-color:rgb(86,193,255);stop-opacity:1"/><stop offset="1" style="stop-color:rgb(0,118,186);stop-opacity:1"/></linearGradient>
        <linearGradient id="_Linear18" x1="0" y1="0" x2="1" y2="0" gradientUnits="userSpaceOnUse" gradientTransform="matrix(0,-100,-100,-0,50,50)"><stop offset="0" style="stop-color:rgb(86,193,255);stop-opacity:1"/><stop offset="1" style="stop-color:rgb(0,118,186);stop-opacity:1"/></linearGradient>
        <linearGradient id="_Linear21" x1="0" y1="0" x2="1" y2="0" gradientUnits="userSpaceOnUse" gradientTransform="matrix(0,-100,-100,-0,50,50)"><stop offset="0" style="stop-color:rgb(250,226,50);stop-opacity:1"/><stop offset="1" style="stop-color:rgb(255,147,0);stop-opacity:1"/></linearGradient>
        <linearGradient id="_Linear24" x1="0" y1="0" x2="1" y2="0" gradientUnits="userSpaceOnUse" gradientTransform="matrix(0,-100,-100,-0,50,50)"><stop offset="0" style="stop-color:rgb(86,193,255);stop-opacity:1"/><stop offset="1" style="stop-color:rgb(0,118,186);stop-opacity:1"/></linearGradient>
        <linearGradient id="_Linear27" x1="0" y1="0" x2="1" y2="0" gradientUnits="userSpaceOnUse" gradientTransform="matrix(0,-100,-100,-0,50,50)"><stop offset="0" style="stop-color:rgb(86,193,255);stop-opacity:1"/><stop offset="1" style="stop-color:rgb(0,118,186);stop-opacity:1"/></linearGradient>
        <linearGradient id="_Linear30" x1="0" y1="0" x2="1" y2="0" gradientUnits="userSpaceOnUse" gradientTransform="matrix(0,-100,-100,-0,50,50)"><stop offset="0" style="stop-color:rgb(86,193,255);stop-opacity:1"/><stop offset="1" style="stop-color:rgb(0,118,186);stop-opacity:1"/></linearGradient>
        <linearGradient id="_Linear33" x1="0" y1="0" x2="1" y2="0" gradientUnits="userSpaceOnUse" gradientTransform="matrix(0,-100,-100,-0,50,50)"><stop offset="0" style="stop-color:rgb(86,193,255);stop-opacity:1"/><stop offset="1" style="stop-color:rgb(0,118,186);stop-opacity:1"/></linearGradient>
        <linearGradient id="_Linear36" x1="0" y1="0" x2="1" y2="0" gradientUnits="userSpaceOnUse" gradientTransform="matrix(0,-100,-100,-0,50,50)"><stop offset="0" style="stop-color:rgb(86,193,255);stop-opacity:1"/><stop offset="1" style="stop-color:rgb(0,118,186);stop-opacity:1"/></linearGradient>
        <linearGradient id="_Linear39" x1="0" y1="0" x2="1" y2="0" gradientUnits="userSpaceOnUse" gradientTransform="matrix(0,-100,-100,-0,50,50)"><stop offset="0" style="stop-color:rgb(86,193,255);stop-opacity:1"/><stop offset="1" style="stop-color:rgb(0,118,186);stop-opacity:1"/></linearGradient>
        <linearGradient id="_Linear42" x1="0" y1="0" x2="1" y2="0" gradientUnits="userSpaceOnUse" gradientTransform="matrix(0,-100,-100,-0,50,50)"><stop offset="0" style="stop-color:rgb(250,226,50);stop-opacity:1"/><stop offset="1" style="stop-color:rgb(255,147,0);stop-opacity:1"/></linearGradient>
        <linearGradient id="_Linear45" x1="0" y1="0" x2="1" y2="0" gradientUnits="userSpaceOnUse" gradientTransform="matrix(0,-100,-100,-0,50,50)"><stop offset="0" style="stop-color:rgb(86,193,255);stop-opacity:1"/><stop offset="1" style="stop-color:rgb(0,118,186);stop-opacity:1"/></linearGradient>
        <linearGradient id="_Linear48" x1="0" y1="0" x2="1" y2="0" gradientUnits="userSpaceOnUse" gradientTransform="matrix(0,-100,-100,-0,50,50)"><stop offset="0" style="stop-color:rgb(86,193,255);stop-opacity:1"/><stop offset="1" style="stop-color:rgb(0,118,186);stop-opacity:1"/></linearGradient>
        <linearGradient id="_Linear51" x1="0" y1="0" x2="1" y2="0" gradientUnits="userSpaceOnUse" gradientTransform="matrix(0,-100,-100,-0,50,50)"><stop offset="0" style="stop-color:rgb(86,193,255);stop-opacity:1"/><stop offset="1" style="stop-color:rgb(0,118,186);stop-opacity:1"/></linearGradient>
        <linearGradient id="_Linear54" x1="0" y1="0" x2="1" y2="0" gradientUnits="userSpaceOnUse" gradientTransform="matrix(0,-100,-100,-0,50,50)"><stop offset="0" style="stop-color:rgb(250,226,50);stop-opacity:1"/><stop offset="1" style="stop-color:rgb(255,147,0);stop-opacity:1"/></linearGradient>
    </defs>
</svg>
