<svg width="100%" height="100%" viewBox="0 0 343 393" version="1.1" xmlns="http://www.w3.org/2000/svg" xmlns:xlink="http://www.w3.org/1999/xlink" xml:space="preserve" xmlns:serif="http://www.serif.com/" style="fill-rule:evenodd;clip-rule:evenodd;">
    <g transform="matrix(1,0,0,1,-98.5,-48.5)">
        <clipPath id="3_clip1">
            <rect x="98.5" y="198.5" width="43" height="43" clip-rule="nonzero"/>
        </clipPath>
        <g clip-path="url(#3_clip1)">
            <g transform="matrix(0.42,0,0,-0.42,99,220)">
                <clipPath id="3_clip2">
                    <rect x="2.381" y="-47.619" width="95.238" height="95.238" clip-rule="nonzero"/>
                </clipPath>
                <g clip-path="url(#3_clip2)">
                    <rect x="-1.19" y="-51.19" width="102.381" height="102.381" style="fill:url(#3_Linear3);"/>
                </g>
            </g>
            <g transform="matrix(1,0,0,-1,100,240)">
                <rect x="0" y="0" width="40" height="40" style="fill:none;stroke:black;stroke-width:1px;"/>
            </g>
        </g>
    </g>
    <g transform="matrix(1,0,0,1,-98.5,-48.5)">
        <clipPath id="3_clip4">
            <rect x="131.087" y="239.332" width="19.862" height="133.068" clip-rule="nonzero"/>
        </clipPath>
        <g clip-path="url(#3_clip4)">
            <g>
                <clipPath id="3_clip5">
                    <rect x="137.525" y="239.377" width="13.683" height="78.77" clip-rule="nonzero"/>
                </clipPath>
                <g clip-path="url(#3_clip5)">
                    <g transform="matrix(1,0,0,-1,139.526,309.208)">
                        <path d="M2.517,68.708C-1.473,36.407 -0.719,13.785 4.78,0.843L5.321,0" style="fill:none;stroke:black;stroke-width:2px;"/>
                    </g>
                    <g transform="matrix(1,0,0,1,0,-145.789)">
                        <path d="M140.27,456.752L149.5,462.23L148.344,451.559L140.27,456.752Z" style="fill-rule:nonzero;"/>
                    </g>
                </g>
            </g>
            <g transform="matrix(1,0,0,-1,133.09,364.824)">
                <path d="M8.191,124.324C-3.058,58.398 -2.721,17.177 9.204,0.661L9.954,0" style="fill:none;stroke:black;stroke-width:2px;"/>
            </g>
            <g transform="matrix(1,0,0,1,0,-36.9335)">
                <path d="M139.122,404.7L149.5,407.44L145.465,397.494L139.122,404.7Z" style="fill-rule:nonzero;"/>
            </g>
        </g>
    </g>
    <g transform="matrix(1,0,0,1,-98.5,-48.5)">
        <clipPath id="3_clip6">
            <rect x="137.837" y="122.358" width="13.393" height="78.259" clip-rule="nonzero"/>
        </clipPath>
        <g clip-path="url(#3_clip6)">
            <g transform="matrix(1,0,0,-1,139.839,206.84)">
                <path d="M2.327,7.34C-1.419,39.165 -0.642,61.586 4.658,74.604L5.18,75.459" style="fill:none;stroke:black;stroke-width:2px;"/>
            </g>
            <g transform="matrix(1,0,0,1,0,-509.223)">
                <path d="M148.594,643.959L149.5,633.264L140.401,638.956L148.594,643.959Z" style="fill-rule:nonzero;"/>
            </g>
        </g>
    </g>
    <g transform="matrix(1,0,0,1,-98.5,-48.5)">
        <clipPath id="3_clip7">
            <rect x="348.5" y="348.5" width="43" height="43" clip-rule="nonzero"/>
        </clipPath>
        <g clip-path="url(#3_clip7)">
            <g transform="matrix(0.42,0,0,-0.42,349,370)">
                <clipPath id="3_clip8">
                    <rect x="2.381" y="-47.619" width="95.238" height="95.238" clip-rule="nonzero"/>
                </clipPath>
                <g clip-path="url(#3_clip8)">
                    <rect x="-1.19" y="-51.19" width="102.381" height="102.381" style="fill:url(#3_Linear9);"/>
                </g>
            </g>
            <g transform="matrix(1,0,0,-1,350,390)">
                <rect x="0" y="0" width="40" height="40" style="fill:none;stroke:black;stroke-width:1px;"/>
            </g>
        </g>
    </g>
    <g transform="matrix(1,0,0,1,-98.5,-48.5)">
        <clipPath id="3_clip10">
            <rect x="298.5" y="348.5" width="43" height="43" clip-rule="nonzero"/>
        </clipPath>
        <g clip-path="url(#3_clip10)">
            <g transform="matrix(0.42,0,0,-0.42,299,370)">
                <clipPath id="3_clip11">
                    <rect x="2.381" y="-47.619" width="95.238" height="95.238" clip-rule="nonzero"/>
                </clipPath>
                <g clip-path="url(#3_clip11)">
                    <rect x="-1.19" y="-51.19" width="102.381" height="102.381" style="fill:url(#3_Linear12);"/>
                </g>
            </g>
            <g transform="matrix(1,0,0,-1,300,390)">
                <rect x="0" y="0" width="40" height="40" style="fill:none;stroke:black;stroke-width:1px;"/>
            </g>
        </g>
    </g>
    <g transform="matrix(1,0,0,1,-98.5,-48.5)">
        <clipPath id="3_clip13">
            <rect x="308.5" y="198.5" width="43" height="43" clip-rule="nonzero"/>
        </clipPath>
        <g clip-path="url(#3_clip13)">
            <g transform="matrix(0.42,0,0,-0.42,309,220)">
                <clipPath id="3_clip14">
                    <rect x="2.381" y="-47.619" width="95.238" height="95.238" clip-rule="nonzero"/>
                </clipPath>
                <g clip-path="url(#3_clip14)">
                    <rect x="-1.19" y="-51.19" width="102.381" height="102.381" style="fill:url(#3_Linear15);"/>
                </g>
            </g>
            <g transform="matrix(1,0,0,-1,310,240)">
                <rect x="0" y="0" width="40" height="40" style="fill:none;stroke:black;stroke-width:1px;"/>
            </g>
        </g>
    </g>
    <g transform="matrix(1,0,0,1,-98.5,-48.5)">
        <clipPath id="3_clip16">
            <rect x="298.5" y="48.5" width="43" height="43" clip-rule="nonzero"/>
        </clipPath>
        <g clip-path="url(#3_clip16)">
            <g transform="matrix(0.42,0,0,-0.42,299,70)">
                <clipPath id="3_clip17">
                    <rect x="2.381" y="-47.619" width="95.238" height="95.238" clip-rule="nonzero"/>
                </clipPath>
                <g clip-path="url(#3_clip17)">
                    <rect x="-1.19" y="-51.19" width="102.381" height="102.381" style="fill:url(#3_Linear18);"/>
                </g>
            </g>
            <g transform="matrix(1,0,0,-1,300,90)">
                <rect x="0" y="0" width="40" height="40" style="fill:none;stroke:black;stroke-width:1px;"/>
            </g>
        </g>
    </g>
    <g transform="matrix(1,0,0,1,-98.5,-48.5)">
        <clipPath id="3_clip19">
            <rect x="198.5" y="398.5" width="103" height="43" clip-rule="nonzero"/>
        </clipPath>
        <g clip-path="url(#3_clip19)">
            <g transform="matrix(1.02,0,0,-0.42,199,420)">
                <clipPath id="3_clip20">
                    <rect x="0.98" y="-47.619" width="98.039" height="95.238" clip-rule="nonzero"/>
                </clipPath>
                <g clip-path="url(#3_clip20)">
                    <rect x="-0.49" y="-51.19" width="100.98" height="102.381" style="fill:url(#3_Linear21);"/>
                </g>
            </g>
            <g transform="matrix(1,0,0,-1,200,440)">
                <rect x="0" y="0" width="100" height="40" style="fill:none;stroke:black;stroke-width:1px;"/>
            </g>
        </g>
    </g>
    <g transform="matrix(1,0,0,1,-98.5,-48.5)">
        <clipPath id="3_clip22">
            <rect x="198.5" y="348.5" width="103" height="43" clip-rule="nonzero"/>
        </clipPath>
        <g clip-path="url(#3_clip22)">
            <g transform="matrix(1.02,0,0,-0.42,199,370)">
                <clipPath id="3_clip23">
                    <rect x="0.98" y="-47.619" width="98.039" height="95.238" clip-rule="nonzero"/>
                </clipPath>
                <g clip-path="url(#3_clip23)">
                    <rect x="-0.49" y="-51.19" width="100.98" height="102.381" style="fill:url(#3_Linear24);"/>
                </g>
            </g>
            <g transform="matrix(1,0,0,-1,200,390)">
                <rect x="0" y="0" width="100" height="40" style="fill:none;stroke:black;stroke-width:1px;"/>
            </g>
        </g>
    </g>
    <g transform="matrix(1,0,0,1,-98.5,-48.5)">
        <clipPath id="3_clip25">
            <rect x="188.5" y="298.5" width="103" height="43" clip-rule="nonzero"/>
        </clipPath>
        <g clip-path="url(#3_clip25)">
            <g transform="matrix(1.02,0,0,-0.42,189,320)">
                <clipPath id="3_clip26">
                    <rect x="0.98" y="-47.619" width="98.039" height="95.238" clip-rule="nonzero"/>
                </clipPath>
                <g clip-path="url(#3_clip26)">
                    <rect x="-0.49" y="-51.19" width="100.98" height="102.381" style="fill:url(#3_Linear27);"/>
                </g>
            </g>
            <g transform="matrix(1,0,0,-1,190,340)">
                <rect x="0" y="0" width="100" height="40" style="fill:none;stroke:black;stroke-width:1px;"/>
            </g>
        </g>
    </g>
    <g transform="matrix(1,0,0,1,-98.5,-48.5)">
        <clipPath id="3_clip28">
            <rect x="198.5" y="248.5" width="103" height="43" clip-rule="nonzero"/>
        </clipPath>
        <g clip-path="url(#3_clip28)">
            <g transform="matrix(1.02,0,0,-0.42,199,270)">
                <clipPath id="3_clip29">
                    <rect x="0.98" y="-47.619" width="98.039" height="95.238" clip-rule="nonzero"/>
                </clipPath>
                <g clip-path="url(#3_clip29)">
                    <rect x="-0.49" y="-51.19" width="100.98" height="102.381" style="fill:url(#3_Linear30);"/>
                </g>
            </g>
            <g transform="matrix(1,0,0,-1,200,290)">
                <rect x="0" y="0" width="100" height="40" style="fill:none;stroke:black;stroke-width:1px;"/>
            </g>
        </g>
    </g>
    <g transform="matrix(1,0,0,1,-98.5,-48.5)">
        <clipPath id="3_clip31">
            <rect x="198.5" y="198.5" width="103" height="43" clip-rule="nonzero"/>
        </clipPath>
        <g clip-path="url(#3_clip31)">
            <g transform="matrix(1.02,0,0,-0.42,199,220)">
                <clipPath id="3_clip32">
                    <rect x="0.98" y="-47.619" width="98.039" height="95.238" clip-rule="nonzero"/>
                </clipPath>
                <g clip-path="url(#3_clip32)">
                    <rect x="-0.49" y="-51.19" width="100.98" height="102.381" style="fill:url(#3_Linear33);"/>
                </g>
            </g>
            <g transform="matrix(1,0,0,-1,200,240)">
                <rect x="0" y="0" width="100" height="40" style="fill:none;stroke:black;stroke-width:1px;"/>
            </g>
        </g>
    </g>
    <g transform="matrix(1,0,0,1,-98.5,-48.5)">
        <clipPath id="3_clip34">
            <rect x="198.5" y="148.5" width="103" height="43" clip-rule="nonzero"/>
        </clipPath>
        <g clip-path="url(#3_clip34)">
            <g transform="matrix(1.02,0,0,-0.42,199,170)">
                <clipPath id="3_clip35">
                    <rect x="0.98" y="-47.619" width="98.039" height="95.238" clip-rule="nonzero"/>
                </clipPath>
                <g clip-path="url(#3_clip35)">
                    <rect x="-0.49" y="-51.19" width="100.98" height="102.381" style="fill:url(#3_Linear36);"/>
                </g>
            </g>
            <g transform="matrix(1,0,0,-1,200,190)">
                <rect x="0" y="0" width="100" height="40" style="fill:none;stroke:black;stroke-width:1px;"/>
            </g>
        </g>
    </g>
    <g transform="matrix(1,0,0,1,-98.5,-48.5)">
        <clipPath id="3_clip37">
            <rect x="198.5" y="98.5" width="103" height="43" clip-rule="nonzero"/>
        </clipPath>
        <g clip-path="url(#3_clip37)">
            <g transform="matrix(1.02,0,0,-0.42,199,120)">
                <clipPath id="3_clip38">
                    <rect x="0.98" y="-47.619" width="98.039" height="95.238" clip-rule="nonzero"/>
                </clipPath>
                <g clip-path="url(#3_clip38)">
                    <rect x="-0.49" y="-51.19" width="100.98" height="102.381" style="fill:url(#3_Linear39);"/>
                </g>
            </g>
            <g transform="matrix(1,0,0,-1,200,140)">
                <rect x="0" y="0" width="100" height="40" style="fill:none;stroke:black;stroke-width:1px;"/>
            </g>
        </g>
    </g>
    <g transform="matrix(1,0,0,1,-98.5,-48.5)">
        <clipPath id="3_clip40">
            <rect x="198.5" y="48.5" width="103" height="43" clip-rule="nonzero"/>
        </clipPath>
        <g clip-path="url(#3_clip40)">
            <g transform="matrix(1.02,0,0,-0.42,199,70)">
                <clipPath id="3_clip41">
                    <rect x="0.98" y="-47.619" width="98.039" height="95.238" clip-rule="nonzero"/>
                </clipPath>
                <g clip-path="url(#3_clip41)">
                    <rect x="-0.49" y="-51.19" width="100.98" height="102.381" style="fill:url(#3_Linear42);"/>
                </g>
            </g>
            <g transform="matrix(1,0,0,-1,200,90)">
                <rect x="0" y="0" width="100" height="40" style="fill:none;stroke:black;stroke-width:1px;"/>
            </g>
        </g>
    </g>
    <g transform="matrix(1,0,0,1,-98.5,-48.5)">
        <clipPath id="3_clip43">
            <rect x="148.5" y="348.5" width="43" height="43" clip-rule="nonzero"/>
        </clipPath>
        <g clip-path="url(#3_clip43)">
            <g transform="matrix(0.42,0,0,-0.42,149,370)">
                <clipPath id="3_clip44">
                    <rect x="2.381" y="-47.619" width="95.238" height="95.238" clip-rule="nonzero"/>
                </clipPath>
                <g clip-path="url(#3_clip44)">
                    <rect x="-1.19" y="-51.19" width="102.381" height="102.381" style="fill:url(#3_Linear45);"/>
                </g>
            </g>
            <g transform="matrix(1,0,0,-1,150,390)">
                <rect x="0" y="0" width="40" height="40" style="fill:none;stroke:black;stroke-width:1px;"/>
            </g>
        </g>
    </g>
    <g transform="matrix(1,0,0,1,-98.5,-48.5)">
        <clipPath id="3_clip46">
            <rect x="148.5" y="298.5" width="43" height="43" clip-rule="nonzero"/>
        </clipPath>
        <g clip-path="url(#3_clip46)">
            <g transform="matrix(0.42,0,0,-0.42,149,320)">
                <clipPath id="3_clip47">
                    <rect x="2.381" y="-47.619" width="95.238" height="95.238" clip-rule="nonzero"/>
                </clipPath>
                <g clip-path="url(#3_clip47)">
                    <rect x="-1.19" y="-51.19" width="102.381" height="102.381" style="fill:url(#3_Linear48);"/>
                </g>
            </g>
            <g transform="matrix(1,0,0,-1,150,340)">
                <rect x="0" y="0" width="40" height="40" style="fill:none;stroke:black;stroke-width:1px;"/>
            </g>
        </g>
    </g>
    <g transform="matrix(1,0,0,1,-98.5,-48.5)">
        <clipPath id="3_clip49">
            <rect x="148.5" y="198.5" width="43" height="43" clip-rule="nonzero"/>
        </clipPath>
        <g clip-path="url(#3_clip49)">
            <g transform="matrix(0.42,0,0,-0.42,149,220)">
                <clipPath id="3_clip50">
                    <rect x="2.381" y="-47.619" width="95.238" height="95.238" clip-rule="nonzero"/>
                </clipPath>
                <g clip-path="url(#3_clip50)">
                    <rect x="-1.19" y="-51.19" width="102.381" height="102.381" style="fill:url(#3_Linear51);"/>
                </g>
            </g>
            <g transform="matrix(1,0,0,-1,150,240)">
                <rect x="0" y="0" width="40" height="40" style="fill:none;stroke:black;stroke-width:1px;"/>
            </g>
        </g>
    </g>
    <g transform="matrix(1,0,0,1,-98.5,-48.5)">
        <clipPath id="3_clip52">
            <rect x="148.5" y="98.5" width="43" height="43" clip-rule="nonzero"/>
        </clipPath>
        <g clip-path="url(#3_clip52)">
            <g transform="matrix(0.42,0,0,-0.42,149,120)">
                <clipPath id="3_clip53">
                    <rect x="2.381" y="-47.619" width="95.238" height="95.238" clip-rule="nonzero"/>
                </clipPath>
                <g clip-path="url(#3_clip53)">
                    <rect x="-1.19" y="-51.19" width="102.381" height="102.381" style="fill:url(#3_Linear54);"/>
                </g>
            </g>
            <g transform="matrix(1,0,0,-1,150,140)">
                <rect x="0" y="0" width="40" height="40" style="fill:none;stroke:black;stroke-width:1px;"/>
            </g>
        </g>
    </g>
    <g transform="matrix(1,0,0,1,-98.5,-48.5)">
        <clipPath id="3_clip55">
            <rect x="398.5" y="198.5" width="43" height="43" clip-rule="nonzero"/>
        </clipPath>
        <g clip-path="url(#3_clip55)">
            <g transform="matrix(0.42,0,0,-0.42,399,220)">
                <clipPath id="3_clip56">
                    <rect x="2.381" y="-47.619" width="95.238" height="95.238" clip-rule="nonzero"/>
                </clipPath>
                <g clip-path="url(#3_clip56)">
                    <rect x="-1.19" y="-51.19" width="102.381" height="102.381" style="fill:url(#3_Linear57);"/>
                </g>
            </g>
            <g transform="matrix(1,0,0,-1,400,240)">
                <rect x="0" y="0" width="40" height="40" style="fill:none;stroke:black;stroke-width:1px;"/>
            </g>
        </g>
    </g>
    <g transform="matrix(1,0,0,1,-98.5,-48.5)">
        <clipPath id="3_clip58">
            <rect x="188.864" y="68.77" width="12.277" height="31.815" clip-rule="nonzero"/>
        </clipPath>
        <g clip-path="url(#3_clip58)">
            <g transform="matrix(1,0,0,-1,190.864,106.379)">
                <path d="M0.258,6.879C-0.488,15.609 0.384,22.704 2.874,28.162L3.475,28.963" style="fill:none;stroke:black;stroke-width:2px;"/>
            </g>
            <g transform="matrix(1,0,0,1,0,-616.366)">
                <path d="M197.578,697.463L199.5,686.903L189.899,691.702L197.578,697.463Z" style="fill-rule:nonzero;"/>
            </g>
        </g>
    </g>
    <g transform="matrix(1,0,0,1,-98.5,-48.5)">
        <clipPath id="3_clip59">
            <rect x="188.985" y="139.478" width="12.188" height="25.169" clip-rule="nonzero"/>
        </clipPath>
        <g clip-path="url(#3_clip59)">
            <g transform="matrix(1,0,0,-1,191.28,155.939)">
                <path d="M0.012,15.439C-0.113,9.796 0.748,4.92 2.593,0.811L3.18,0" style="fill:none;stroke:black;stroke-width:2px;"/>
            </g>
            <g transform="matrix(1,0,0,1,0,-452.777)">
                <path d="M189.985,610.718L199.5,615.685L197.764,605.093L189.985,610.718Z" style="fill-rule:nonzero;"/>
            </g>
        </g>
    </g>
    <g transform="matrix(1,0,0,1,-98.5,-48.5)">
        <clipPath id="3_clip60">
            <rect x="190.634" y="389.411" width="10.988" height="20.805" clip-rule="nonzero"/>
        </clipPath>
        <g clip-path="url(#3_clip60)">
            <g transform="matrix(1,0,0,-1,194.617,400.693)">
                <path d="M0,10.193C0.298,6.856 0.802,3.771 1.51,0.938L1.862,0" style="fill:none;stroke:black;stroke-width:2px;"/>
            </g>
            <g transform="matrix(1,0,0,1,0,38.8171)">
                <path d="M191.634,362.626L199.5,369.929L200.623,359.254L191.634,362.626Z" style="fill-rule:nonzero;"/>
            </g>
        </g>
    </g>
    <g transform="matrix(1,0,0,1,-98.5,-48.5)">
        <clipPath id="3_clip61">
            <rect x="298.81" y="239.476" width="14.661" height="25.941" clip-rule="nonzero"/>
        </clipPath>
        <g clip-path="url(#3_clip61)">
            <g transform="matrix(1,0,0,-1,300.5,272.266)">
                <path d="M0,8.573C3.651,12.054 6.047,16.595 7.186,22.196L7.265,23.193" style="fill:none;stroke:black;stroke-width:2px;"/>
            </g>
            <g transform="matrix(1,0,0,1,0,-277.05)">
                <path d="M312.471,527.5L308.446,517.55L302.901,526.741L312.471,527.5Z" style="fill-rule:nonzero;"/>
            </g>
        </g>
    </g>
    <g transform="matrix(1,0,0,1,-98.5,-48.5)">
        <clipPath id="3_clip62">
            <rect x="188.749" y="239.454" width="12.39" height="26.142" clip-rule="nonzero"/>
        </clipPath>
        <g clip-path="url(#3_clip62)">
            <g transform="matrix(1,0,0,-1,190.748,257.07)">
                <path d="M0.05,16.57C-0.233,10.393 0.687,5.132 2.811,0.786L3.43,0" style="fill:none;stroke:black;stroke-width:2px;"/>
            </g>
            <g transform="matrix(1,0,0,1,0,-250.858)">
                <path d="M189.789,510.113L199.5,514.685L197.331,504.173L189.789,510.113Z" style="fill-rule:nonzero;"/>
            </g>
        </g>
    </g>
    <g transform="matrix(1,0,0,1,-98.5,-48.5)">
        <clipPath id="3_clip63">
            <rect x="289.16" y="226.997" width="102.171" height="83.591" clip-rule="nonzero"/>
        </clipPath>
        <g clip-path="url(#3_clip63)">
            <g transform="matrix(1,0,0,-1,290.5,315.703)">
                <path d="M0,7.054C37.141,20.487 68.31,44.56 93.508,79.273L94.081,80.094" style="fill:none;stroke:black;stroke-width:2px;"/>
            </g>
            <g transform="matrix(1,0,0,1,0,-300.272)">
                <path d="M387.946,539.446L389.5,528.826L380.072,533.955L387.946,539.446Z" style="fill-rule:nonzero;"/>
            </g>
        </g>
    </g>
    <g transform="matrix(1,0,0,1,-98.5,-48.5)">
        <clipPath id="3_clip64">
            <rect x="299.307" y="172.34" width="91.816" height="44.917" clip-rule="nonzero"/>
        </clipPath>
        <g clip-path="url(#3_clip64)">
            <g transform="matrix(1,0,0,-1,300.5,210.268)">
                <path d="M0,35.947C29.856,30.086 56.975,18.306 81.358,0.606L82.155,0" style="fill:none;stroke:black;stroke-width:2px;"/>
            </g>
            <g transform="matrix(1,0,0,1,0,-346.683)">
                <path d="M378.953,560.166L389.5,562.157L384.765,552.525L378.953,560.166Z" style="fill-rule:nonzero;"/>
            </g>
        </g>
    </g>
    <g transform="matrix(1,0,0,1,-98.5,-48.5)">
        <clipPath id="3_clip65">
            <rect x="299.176" y="127.038" width="92.207" height="83.431" clip-rule="nonzero"/>
        </clipPath>
        <g clip-path="url(#3_clip65)">
            <g transform="matrix(1,0,0,-1,300.5,201.496)">
                <path d="M0,72.512C35.138,60.49 63.24,36.611 84.307,0.875L84.797,0" style="fill:none;stroke:black;stroke-width:2px;"/>
            </g>
            <g transform="matrix(1,0,0,1,0,-360.724)">
                <path d="M380.621,563.694L389.501,569.723L388.996,559.001L380.621,563.694Z" style="fill-rule:nonzero;"/>
            </g>
        </g>
    </g>
    <g transform="matrix(1,0,0,1,-98.5,-48.5)">
        <clipPath id="3_clip66">
            <rect x="339.068" y="74.815" width="61.563" height="125.704" clip-rule="nonzero"/>
        </clipPath>
        <g clip-path="url(#3_clip66)">
            <g transform="matrix(1,0,0,-1,340.5,190.905)">
                <path d="M0,114.187C33.433,98.197 51.545,60.468 54.334,0.999L54.367,0" style="fill:none;stroke:black;stroke-width:2px;"/>
            </g>
            <g transform="matrix(1,0,0,1,0,-378.752)">
                <path d="M390.037,568.814L395.148,578.252L399.631,568.5L390.037,568.814Z" style="fill-rule:nonzero;"/>
            </g>
        </g>
    </g>
    <g transform="matrix(1,0,0,1,-98.5,-48.5)">
        <clipPath id="3_clip67">
            <rect x="388.612" y="239.432" width="14.342" height="127.659" clip-rule="nonzero"/>
        </clipPath>
        <g clip-path="url(#3_clip67)">
            <g transform="matrix(1,0,0,-1,390.5,374.213)">
                <path d="M0,8.582C8.18,24.376 10.401,62.893 6.664,124.133L6.6,125.131" style="fill:none;stroke:black;stroke-width:2px;"/>
            </g>
            <g transform="matrix(1,0,0,1,0,-277.11)">
                <path d="M401.954,526.88L396.544,517.61L392.374,527.5L401.954,526.88Z" style="fill-rule:nonzero;"/>
            </g>
        </g>
    </g>
    <g transform="matrix(1,0,0,1,-98.5,-48.5)">
        <clipPath id="3_clip68">
            <rect x="299.339" y="389.182" width="45.68" height="32.087" clip-rule="nonzero"/>
        </clipPath>
        <g clip-path="url(#3_clip68)">
            <g transform="matrix(1,0,0,-1,300.501,427)">
                <path d="M0,7.717C18.525,10.76 31.302,17.482 38.332,27.883L38.775,28.782" style="fill:none;stroke:black;stroke-width:2px;"/>
            </g>
            <g transform="matrix(1,0,0,1,0,23.7329)">
                <path d="M343.141,377.5L343.071,366.767L334.527,373.263L343.141,377.5Z" style="fill-rule:nonzero;"/>
            </g>
        </g>
    </g>
    <g transform="matrix(1,0,0,1,-98.5,-48.5)">
        <clipPath id="3_clip69">
            <rect x="349.5" y="214.2" width="41" height="11.6" clip-rule="nonzero"/>
        </clipPath>
        <g clip-path="url(#3_clip69)">
            <g transform="matrix(1,0,0,-1,350.5,220)">
                <path d="M0,0L30.4,0" style="fill:none;stroke:black;stroke-width:2px;"/>
            </g>
            <g transform="matrix(1,0,0,1,0,-328)">
                <path d="M379.9,552.8L389.5,548L379.9,543.2L379.9,552.8Z" style="fill-rule:nonzero;"/>
            </g>
        </g>
    </g>
    <g transform="matrix(1,0,0,1,-98.5,-48.5)">
        <clipPath id="3_clip70">
            <rect x="138.5" y="198.5" width="13" height="43" clip-rule="nonzero"/>
        </clipPath>
        <g clip-path="url(#3_clip70)">
            <g transform="matrix(0.12,0,0,-0.42,139,220)">
                <clipPath id="3_clip71">
                    <rect x="8.333" y="-47.619" width="83.333" height="95.238" clip-rule="nonzero"/>
                </clipPath>
                <g clip-path="url(#3_clip71)">
                    <rect x="-4.167" y="-51.19" width="108.333" height="102.381" style="fill:url(#3_Linear72);"/>
                </g>
            </g>
            <g transform="matrix(1,0,0,-1,140,240)">
                <rect x="0" y="0" width="10" height="40" style="fill:none;stroke:black;stroke-width:1px;"/>
            </g>
        </g>
    </g>
    <g transform="matrix(1,0,0,1,-98.5,-48.5)">
        <clipPath id="3_clip73">
            <rect x="388.5" y="198.5" width="13" height="43" clip-rule="nonzero"/>
        </clipPath>
        <g clip-path="url(#3_clip73)">
            <g transform="matrix(0.12,0,0,-0.42,389,220)">
                <clipPath id="3_clip74">
                    <rect x="8.333" y="-47.619" width="83.333" height="95.238" clip-rule="nonzero"/>
                </clipPath>
                <g clip-path="url(#3_clip74)">
                    <rect x="-4.167" y="-51.19" width="108.333" height="102.381" style="fill:url(#3_Linear75);"/>
                </g>
            </g>
            <g transform="matrix(1,0,0,-1,390,240)">
                <rect x="0" y="0" width="10" height="40" style="fill:none;stroke:black;stroke-width:1px;"/>
            </g>
        </g>
    </g>
    <g transform="matrix(1,0,0,1,-98.5,-48.5)">
        <clipPath id="3_clip76">
            <rect x="338.5" y="348.5" width="13" height="43" clip-rule="nonzero"/>
        </clipPath>
        <g clip-path="url(#3_clip76)">
            <g transform="matrix(0.12,0,0,-0.42,339,370)">
                <clipPath id="3_clip77">
                    <rect x="8.333" y="-47.619" width="83.333" height="95.238" clip-rule="nonzero"/>
                </clipPath>
                <g clip-path="url(#3_clip77)">
                    <rect x="-4.167" y="-51.19" width="108.333" height="102.381" style="fill:url(#3_Linear78);"/>
                </g>
            </g>
            <g transform="matrix(1,0,0,-1,340,390)">
                <rect x="0" y="0" width="10" height="40" style="fill:none;stroke:black;stroke-width:1px;"/>
            </g>
        </g>
    </g>
    <g transform="matrix(1,0,0,1,-98.5,-48.5)">
        <clipPath id="3_clip79">
            <rect x="188.5" y="348.5" width="13" height="43" clip-rule="nonzero"/>
        </clipPath>
        <g clip-path="url(#3_clip79)">
            <g transform="matrix(0.12,0,0,-0.42,189,370)">
                <clipPath id="3_clip80">
                    <rect x="8.333" y="-47.619" width="83.333" height="95.238" clip-rule="nonzero"/>
                </clipPath>
                <g clip-path="url(#3_clip80)">
                    <rect x="-4.167" y="-51.19" width="108.333" height="102.381" style="fill:url(#3_Linear81);"/>
                </g>
            </g>
            <g transform="matrix(1,0,0,-1,190,390)">
                <rect x="0" y="0" width="10" height="40" style="fill:none;stroke:black;stroke-width:1px;"/>
            </g>
        </g>
    </g>
    <g transform="matrix(1,0,0,1,-98.5,-48.5)">
        <clipPath id="3_clip82">
            <rect x="298.5" y="198.5" width="13" height="43" clip-rule="nonzero"/>
        </clipPath>
        <g clip-path="url(#3_clip82)">
            <g transform="matrix(0.12,0,0,-0.42,299,220)">
                <clipPath id="3_clip83">
                    <rect x="8.333" y="-47.619" width="83.333" height="95.238" clip-rule="nonzero"/>
                </clipPath>
                <g clip-path="url(#3_clip83)">
                    <rect x="-4.167" y="-51.19" width="108.333" height="102.381" style="fill:url(#3_Linear84);"/>
                </g>
            </g>
            <g transform="matrix(1,0,0,-1,300,240)">
                <rect x="0" y="0" width="10" height="40" style="fill:none;stroke:black;stroke-width:1px;"/>
            </g>
        </g>
    </g>
    <g transform="matrix(1,0,0,1,-98.5,-48.5)">
        <clipPath id="3_clip85">
            <rect x="188.5" y="198.5" width="13" height="43" clip-rule="nonzero"/>
        </clipPath>
        <g clip-path="url(#3_clip85)">
            <g transform="matrix(0.12,0,0,-0.42,189,220)">
                <clipPath id="3_clip86">
                    <rect x="8.333" y="-47.619" width="83.333" height="95.238" clip-rule="nonzero"/>
                </clipPath>
                <g clip-path="url(#3_clip86)">
                    <rect x="-4.167" y="-51.19" width="108.333" height="102.381" style="fill:url(#3_Linear87);"/>
                </g>
            </g>
            <g transform="matrix(1,0,0,-1,190,240)">
                <rect x="0" y="0" width="10" height="40" style="fill:none;stroke:black;stroke-width:1px;"/>
            </g>
        </g>
    </g>
    <g transform="matrix(1,0,0,1,-98.5,-48.5)">
        <clipPath id="3_clip88">
            <rect x="188.5" y="98.5" width="13" height="43" clip-rule="nonzero"/>
        </clipPath>
        <g clip-path="url(#3_clip88)">
            <g transform="matrix(0.12,0,0,-0.42,189,120)">
                <clipPath id="3_clip89">
                    <rect x="8.333" y="-47.619" width="83.333" height="95.238" clip-rule="nonzero"/>
                </clipPath>
                <g clip-path="url(#3_clip89)">
                    <rect x="-4.167" y="-51.19" width="108.333" height="102.381" style="fill:url(#3_Linear90);"/>
                </g>
            </g>
            <g transform="matrix(1,0,0,-1,190,140)">
                <rect x="0" y="0" width="10" height="40" style="fill:none;stroke:black;stroke-width:1px;"/>
            </g>
        </g>
    </g>
    <defs>
        <linearGradient id="3_Linear3" x1="0" y1="0" x2="1" y2="0" gradientUnits="userSpaceOnUse" gradientTransform="matrix(0,-100,-100,-0,50,50)"><stop offset="0" style="stop-color:rgb(250,226,50);stop-opacity:1"/><stop offset="1" style="stop-color:rgb(255,147,0);stop-opacity:1"/></linearGradient>
        <linearGradient id="3_Linear9" x1="0" y1="0" x2="1" y2="0" gradientUnits="userSpaceOnUse" gradientTransform="matrix(0,-100,-100,-0,50,50)"><stop offset="0" style="stop-color:rgb(250,226,50);stop-opacity:1"/><stop offset="1" style="stop-color:rgb(255,147,0);stop-opacity:1"/></linearGradient>
        <linearGradient id="3_Linear12" x1="0" y1="0" x2="1" y2="0" gradientUnits="userSpaceOnUse" gradientTransform="matrix(0,-100,-100,-0,50,50)"><stop offset="0" style="stop-color:rgb(250,226,50);stop-opacity:1"/><stop offset="1" style="stop-color:rgb(255,147,0);stop-opacity:1"/></linearGradient>
        <linearGradient id="3_Linear15" x1="0" y1="0" x2="1" y2="0" gradientUnits="userSpaceOnUse" gradientTransform="matrix(0,-100,-100,-0,50,50)"><stop offset="0" style="stop-color:rgb(86,193,255);stop-opacity:1"/><stop offset="1" style="stop-color:rgb(0,118,186);stop-opacity:1"/></linearGradient>
        <linearGradient id="3_Linear18" x1="0" y1="0" x2="1" y2="0" gradientUnits="userSpaceOnUse" gradientTransform="matrix(0,-100,-100,-0,50,50)"><stop offset="0" style="stop-color:rgb(86,193,255);stop-opacity:1"/><stop offset="1" style="stop-color:rgb(0,118,186);stop-opacity:1"/></linearGradient>
        <linearGradient id="3_Linear21" x1="0" y1="0" x2="1" y2="0" gradientUnits="userSpaceOnUse" gradientTransform="matrix(0,-100,-100,-0,50,50)"><stop offset="0" style="stop-color:rgb(86,193,255);stop-opacity:1"/><stop offset="1" style="stop-color:rgb(0,118,186);stop-opacity:1"/></linearGradient>
        <linearGradient id="3_Linear24" x1="0" y1="0" x2="1" y2="0" gradientUnits="userSpaceOnUse" gradientTransform="matrix(0,-100,-100,-0,50,50)"><stop offset="0" style="stop-color:rgb(250,226,50);stop-opacity:1"/><stop offset="1" style="stop-color:rgb(255,147,0);stop-opacity:1"/></linearGradient>
        <linearGradient id="3_Linear27" x1="0" y1="0" x2="1" y2="0" gradientUnits="userSpaceOnUse" gradientTransform="matrix(0,-100,-100,-0,50,50)"><stop offset="0" style="stop-color:rgb(86,193,255);stop-opacity:1"/><stop offset="1" style="stop-color:rgb(0,118,186);stop-opacity:1"/></linearGradient>
        <linearGradient id="3_Linear30" x1="0" y1="0" x2="1" y2="0" gradientUnits="userSpaceOnUse" gradientTransform="matrix(0,-100,-100,-0,50,50)"><stop offset="0" style="stop-color:rgb(86,193,255);stop-opacity:1"/><stop offset="1" style="stop-color:rgb(0,118,186);stop-opacity:1"/></linearGradient>
        <linearGradient id="3_Linear33" x1="0" y1="0" x2="1" y2="0" gradientUnits="userSpaceOnUse" gradientTransform="matrix(0,-100,-100,-0,50,50)"><stop offset="0" style="stop-color:rgb(86,193,255);stop-opacity:1"/><stop offset="1" style="stop-color:rgb(0,118,186);stop-opacity:1"/></linearGradient>
        <linearGradient id="3_Linear36" x1="0" y1="0" x2="1" y2="0" gradientUnits="userSpaceOnUse" gradientTransform="matrix(0,-100,-100,-0,50,50)"><stop offset="0" style="stop-color:rgb(86,193,255);stop-opacity:1"/><stop offset="1" style="stop-color:rgb(0,118,186);stop-opacity:1"/></linearGradient>
        <linearGradient id="3_Linear39" x1="0" y1="0" x2="1" y2="0" gradientUnits="userSpaceOnUse" gradientTransform="matrix(0,-100,-100,-0,50,50)"><stop offset="0" style="stop-color:rgb(86,193,255);stop-opacity:1"/><stop offset="1" style="stop-color:rgb(0,118,186);stop-opacity:1"/></linearGradient>
        <linearGradient id="3_Linear42" x1="0" y1="0" x2="1" y2="0" gradientUnits="userSpaceOnUse" gradientTransform="matrix(0,-100,-100,-0,50,50)"><stop offset="0" style="stop-color:rgb(86,193,255);stop-opacity:1"/><stop offset="1" style="stop-color:rgb(0,118,186);stop-opacity:1"/></linearGradient>
        <linearGradient id="3_Linear45" x1="0" y1="0" x2="1" y2="0" gradientUnits="userSpaceOnUse" gradientTransform="matrix(0,-100,-100,-0,50,50)"><stop offset="0" style="stop-color:rgb(250,226,50);stop-opacity:1"/><stop offset="1" style="stop-color:rgb(255,147,0);stop-opacity:1"/></linearGradient>
        <linearGradient id="3_Linear48" x1="0" y1="0" x2="1" y2="0" gradientUnits="userSpaceOnUse" gradientTransform="matrix(0,-100,-100,-0,50,50)"><stop offset="0" style="stop-color:rgb(86,193,255);stop-opacity:1"/><stop offset="1" style="stop-color:rgb(0,118,186);stop-opacity:1"/></linearGradient>
        <linearGradient id="3_Linear51" x1="0" y1="0" x2="1" y2="0" gradientUnits="userSpaceOnUse" gradientTransform="matrix(0,-100,-100,-0,50,50)"><stop offset="0" style="stop-color:rgb(86,193,255);stop-opacity:1"/><stop offset="1" style="stop-color:rgb(0,118,186);stop-opacity:1"/></linearGradient>
        <linearGradient id="3_Linear54" x1="0" y1="0" x2="1" y2="0" gradientUnits="userSpaceOnUse" gradientTransform="matrix(0,-100,-100,-0,50,50)"><stop offset="0" style="stop-color:rgb(86,193,255);stop-opacity:1"/><stop offset="1" style="stop-color:rgb(0,118,186);stop-opacity:1"/></linearGradient>
        <linearGradient id="3_Linear57" x1="0" y1="0" x2="1" y2="0" gradientUnits="userSpaceOnUse" gradientTransform="matrix(0,-100,-100,-0,50,50)"><stop offset="0" style="stop-color:rgb(250,226,50);stop-opacity:1"/><stop offset="1" style="stop-color:rgb(255,147,0);stop-opacity:1"/></linearGradient>
        <linearGradient id="3_Linear72" x1="0" y1="0" x2="1" y2="0" gradientUnits="userSpaceOnUse" gradientTransform="matrix(0,-100,-100,-0,50,50)"><stop offset="0" style="stop-color:rgb(214,213,213);stop-opacity:1"/><stop offset="1" style="stop-color:rgb(94,94,94);stop-opacity:1"/></linearGradient>
        <linearGradient id="3_Linear75" x1="0" y1="0" x2="1" y2="0" gradientUnits="userSpaceOnUse" gradientTransform="matrix(0,-100,-100,-0,50,50)"><stop offset="0" style="stop-color:rgb(214,213,213);stop-opacity:1"/><stop offset="1" style="stop-color:rgb(94,94,94);stop-opacity:1"/></linearGradient>
        <linearGradient id="3_Linear78" x1="0" y1="0" x2="1" y2="0" gradientUnits="userSpaceOnUse" gradientTransform="matrix(0,-100,-100,-0,50,50)"><stop offset="0" style="stop-color:rgb(214,213,213);stop-opacity:1"/><stop offset="1" style="stop-color:rgb(94,94,94);stop-opacity:1"/></linearGradient>
        <linearGradient id="3_Linear81" x1="0" y1="0" x2="1" y2="0" gradientUnits="userSpaceOnUse" gradientTransform="matrix(0,-100,-100,-0,50,50)"><stop offset="0" style="stop-color:rgb(214,213,213);stop-opacity:1"/><stop offset="1" style="stop-color:rgb(94,94,94);stop-opacity:1"/></linearGradient>
        <linearGradient id="3_Linear84" x1="0" y1="0" x2="1" y2="0" gradientUnits="userSpaceOnUse" gradientTransform="matrix(0,-100,-100,-0,50,50)"><stop offset="0" style="stop-color:rgb(214,213,213);stop-opacity:1"/><stop offset="1" style="stop-color:rgb(94,94,94);stop-opacity:1"/></linearGradient>
        <linearGradient id="3_Linear87" x1="0" y1="0" x2="1" y2="0" gradientUnits="userSpaceOnUse" gradientTransform="matrix(0,-100,-100,-0,50,50)"><stop offset="0" style="stop-color:rgb(214,213,213);stop-opacity:1"/><stop offset="1" style="stop-color:rgb(94,94,94);stop-opacity:1"/></linearGradient>
        <linearGradient id="3_Linear90" x1="0" y1="0" x2="1" y2="0" gradientUnits="userSpaceOnUse" gradientTransform="matrix(0,-100,-100,-0,50,50)"><stop offset="0" style="stop-color:rgb(214,213,213);stop-opacity:1"/><stop offset="1" style="stop-color:rgb(94,94,94);stop-opacity:1"/></linearGradient>
    </defs>
</svg>
