<svg width="100%" height="100%" viewBox="0 0 260 312" version="1.1" xmlns="http://www.w3.org/2000/svg" xmlns:xlink="http://www.w3.org/1999/xlink" xml:space="preserve" xmlns:serif="http://www.serif.com/" style="fill-rule:evenodd;clip-rule:evenodd;">
    <g transform="matrix(0.07,0,0,-0.42,91.055,603.148)">
        <clipPath id="6_clip1">
            <rect x="1157.24" y="1095.33" width="71.429" height="95.238" clip-rule="nonzero"/>
        </clipPath>
        <g clip-path="url(#6_clip1)">
            <rect x="-6904.86" y="-130.757" width="14628.6" height="1828.57" style="fill:url(#6_Linear2);"/>
        </g>
    </g>
    <g transform="matrix(0.07,0,0,-0.42,-38.945,753.148)">
        <clipPath id="6_clip3">
            <rect x="1157.24" y="1095.33" width="71.429" height="95.238" clip-rule="nonzero"/>
        </clipPath>
        <g clip-path="url(#6_clip3)">
            <rect x="-6904.86" y="-130.757" width="14628.6" height="1828.57" style="fill:url(#6_Linear4);"/>
        </g>
    </g>
    <g transform="matrix(0.07,0,0,-0.42,81.055,678.148)">
        <clipPath id="6_clip5">
            <rect x="1157.24" y="1095.33" width="71.429" height="95.238" clip-rule="nonzero"/>
        </clipPath>
        <g clip-path="url(#6_clip5)">
            <rect x="-6904.86" y="-130.757" width="14628.6" height="1828.57" style="fill:url(#6_Linear6);"/>
        </g>
    </g>
    <g transform="matrix(0.07,0,0,-0.42,46.055,603.148)">
        <clipPath id="6_clip7">
            <rect x="1157.24" y="1095.33" width="71.429" height="95.238" clip-rule="nonzero"/>
        </clipPath>
        <g clip-path="url(#6_clip7)">
            <rect x="-6904.86" y="-130.757" width="14628.6" height="1828.57" style="fill:url(#6_Linear8);"/>
        </g>
    </g>
    <g transform="matrix(0.07,0,0,-0.42,-38.945,603.148)">
        <clipPath id="6_clip9">
            <rect x="1157.24" y="1095.33" width="71.429" height="95.238" clip-rule="nonzero"/>
        </clipPath>
        <g clip-path="url(#6_clip9)">
            <rect x="-6904.86" y="-130.757" width="14628.6" height="1828.57" style="fill:url(#6_Linear10);"/>
        </g>
    </g>
    <g transform="matrix(0.07,0,0,-0.42,-38.945,528.148)">
        <clipPath id="6_clip11">
            <rect x="1157.24" y="1095.33" width="71.429" height="95.238" clip-rule="nonzero"/>
        </clipPath>
        <g clip-path="url(#6_clip11)">
            <rect x="-6904.86" y="-130.757" width="14628.6" height="1828.57" style="fill:url(#6_Linear12);"/>
        </g>
    </g>
    <g transform="matrix(0.42,0,0,-0.42,329.062,-129.891)">
        <clipPath id="6_clip13">
            <rect x="-778.571" y="-828.571" width="95.238" height="95.238" clip-rule="nonzero"/>
        </clipPath>
        <g clip-path="url(#6_clip13)">
            <rect x="-1016.67" y="-1847.62" width="2438.1" height="1828.57" style="fill:url(#6_Linear14);"/>
        </g>
    </g>
    <g transform="matrix(1,0,0,-1,2.06155,218.109)">
        <rect x="0" y="0" width="40" height="40" style="fill:none;stroke:black;stroke-width:1px;"/>
    </g>
    <g transform="matrix(0.42,0,0,-0.42,254.062,45.1093)">
        <clipPath id="6_clip15">
            <rect x="-183.333" y="-233.333" width="95.238" height="95.238" clip-rule="nonzero"/>
        </clipPath>
        <g clip-path="url(#6_clip15)">
            <rect x="-838.095" y="-1430.95" width="2438.1" height="1828.57" style="fill:url(#6_Linear16);"/>
        </g>
    </g>
    <g transform="matrix(1,0,0,-1,177.062,143.109)">
        <rect x="0" y="0" width="40" height="40" style="fill:none;stroke:black;stroke-width:1px;"/>
    </g>
    <g transform="matrix(0.42,0,0,-0.42,329.062,-9.89069)">
        <clipPath id="6_clip17">
            <rect x="-492.857" y="-542.857" width="95.238" height="95.238" clip-rule="nonzero"/>
        </clipPath>
        <g clip-path="url(#6_clip17)">
            <rect x="-1016.67" y="-1561.9" width="2438.1" height="1828.57" style="fill:url(#6_Linear18);"/>
        </g>
    </g>
    <g transform="matrix(1,0,0,-1,122.062,218.109)">
        <rect x="0" y="0" width="40" height="40" style="fill:none;stroke:black;stroke-width:1px;"/>
    </g>
    <g transform="matrix(0.42,0,0,-0.42,404.062,35.1093)">
        <clipPath id="6_clip19">
            <rect x="-564.286" y="-614.286" width="95.238" height="95.238" clip-rule="nonzero"/>
        </clipPath>
        <g clip-path="url(#6_clip19)">
            <rect x="-1195.24" y="-1454.76" width="2438.1" height="1828.57" style="fill:url(#6_Linear20);"/>
        </g>
    </g>
    <g transform="matrix(1,0,0,-1,167.062,293.109)">
        <rect x="0" y="0" width="40" height="40" style="fill:none;stroke:black;stroke-width:1px;"/>
    </g>
    <g transform="matrix(0.42,0,0,-0.42,179.062,-4.89069)">
        <clipPath id="6_clip21">
            <rect x="-123.81" y="-173.81" width="95.238" height="95.238" clip-rule="nonzero"/>
        </clipPath>
        <g clip-path="url(#6_clip21)">
            <rect x="-659.524" y="-1550" width="2438.1" height="1828.57" style="fill:url(#6_Linear22);"/>
        </g>
    </g>
    <g transform="matrix(1,0,0,-1,127.062,68.1093)">
        <rect x="0" y="0" width="40" height="40" style="fill:none;stroke:black;stroke-width:1px;"/>
    </g>
    <g transform="matrix(0.42,0,0,-0.42,254.062,0.109306)">
        <clipPath id="6_clip23">
            <rect x="-290.476" y="-340.476" width="95.238" height="95.238" clip-rule="nonzero"/>
        </clipPath>
        <g clip-path="url(#6_clip23)">
            <rect x="-838.095" y="-1538.1" width="2438.1" height="1828.57" style="fill:url(#6_Linear24);"/>
        </g>
    </g>
    <g transform="matrix(1,0,0,-1,132.062,143.109)">
        <rect x="0" y="0" width="40" height="40" style="fill:none;stroke:black;stroke-width:1px;"/>
    </g>
    <g transform="matrix(0.42,0,0,-0.42,329.062,-49.8907)">
        <clipPath id="6_clip25">
            <rect x="-588.095" y="-638.095" width="95.238" height="95.238" clip-rule="nonzero"/>
        </clipPath>
        <g clip-path="url(#6_clip25)">
            <rect x="-1016.67" y="-1657.14" width="2438.1" height="1828.57" style="fill:url(#6_Linear26);"/>
        </g>
    </g>
    <g transform="matrix(1,0,0,-1,82.0616,218.109)">
        <rect x="0" y="0" width="40" height="40" style="fill:none;stroke:black;stroke-width:1px;"/>
    </g>
    <g transform="matrix(0.42,0,0,-0.42,254.062,-44.8907)">
        <clipPath id="6_clip27">
            <rect x="-397.619" y="-447.619" width="95.238" height="95.238" clip-rule="nonzero"/>
        </clipPath>
        <g clip-path="url(#6_clip27)">
            <rect x="-838.095" y="-1645.24" width="2438.1" height="1828.57" style="fill:url(#6_Linear28);"/>
        </g>
    </g>
    <g transform="matrix(1,0,0,-1,87.0616,143.109)">
        <rect x="0" y="0" width="40" height="40" style="fill:none;stroke:black;stroke-width:1px;"/>
    </g>
    <g transform="matrix(0.42,0,0,-0.42,404.062,-4.89069)">
        <clipPath id="6_clip29">
            <rect x="-659.524" y="-709.524" width="95.238" height="95.238" clip-rule="nonzero"/>
        </clipPath>
        <g clip-path="url(#6_clip29)">
            <rect x="-1195.24" y="-1550" width="2438.1" height="1828.57" style="fill:url(#6_Linear30);"/>
        </g>
    </g>
    <g transform="matrix(1,0,0,-1,127.062,293.109)">
        <rect x="0" y="0" width="40" height="40" style="fill:none;stroke:black;stroke-width:1px;"/>
    </g>
    <g transform="matrix(0.42,0,0,-0.42,404.062,-44.8907)">
        <clipPath id="6_clip31">
            <rect x="-754.762" y="-804.762" width="95.238" height="95.238" clip-rule="nonzero"/>
        </clipPath>
        <g clip-path="url(#6_clip31)">
            <rect x="-1195.24" y="-1645.24" width="2438.1" height="1828.57" style="fill:url(#6_Linear32);"/>
        </g>
    </g>
    <g transform="matrix(1,0,0,-1,87.0616,293.109)">
        <rect x="0" y="0" width="40" height="40" style="fill:none;stroke:black;stroke-width:1px;"/>
    </g>
    <g transform="matrix(0.42,0,0,-0.42,329.062,35.1093)">
        <clipPath id="6_clip33">
            <rect x="-385.714" y="-435.714" width="95.238" height="95.238" clip-rule="nonzero"/>
        </clipPath>
        <g clip-path="url(#6_clip33)">
            <rect x="-1016.67" y="-1454.76" width="2438.1" height="1828.57" style="fill:url(#6_Linear34);"/>
        </g>
    </g>
    <g transform="matrix(1,0,0,-1,167.062,218.109)">
        <rect x="0" y="0" width="40" height="40" style="fill:none;stroke:black;stroke-width:1px;"/>
    </g>
    <g transform="matrix(0.42,0,0,-0.42,179.062,35.1093)">
        <clipPath id="6_clip35">
            <rect x="-28.571" y="-78.571" width="95.238" height="95.238" clip-rule="nonzero"/>
        </clipPath>
        <g clip-path="url(#6_clip35)">
            <rect x="-659.524" y="-1454.76" width="2438.1" height="1828.57" style="fill:url(#6_Linear36);"/>
        </g>
    </g>
    <g transform="matrix(1,0,0,-1,167.062,68.1093)">
        <rect x="0" y="0" width="40" height="40" style="fill:none;stroke:black;stroke-width:1px;"/>
    </g>
    <g transform="matrix(0.42,0,0,-0.42,179.062,-44.8907)">
        <clipPath id="6_clip37">
            <rect x="-219.048" y="-269.048" width="95.238" height="95.238" clip-rule="nonzero"/>
        </clipPath>
        <g clip-path="url(#6_clip37)">
            <rect x="-659.524" y="-1645.24" width="2438.1" height="1828.57" style="fill:url(#6_Linear38);"/>
        </g>
    </g>
    <g transform="matrix(1,0,0,-1,87.0616,68.1093)">
        <rect x="0" y="0" width="40" height="40" style="fill:none;stroke:black;stroke-width:1px;"/>
    </g>
    <g transform="matrix(0.42,0,0,-0.42,329.062,-89.8907)">
        <clipPath id="6_clip39">
            <rect x="-683.333" y="-733.333" width="95.238" height="95.238" clip-rule="nonzero"/>
        </clipPath>
        <g clip-path="url(#6_clip39)">
            <rect x="-1016.67" y="-1752.38" width="2438.1" height="1828.57" style="fill:url(#6_Linear40);"/>
        </g>
    </g>
    <g transform="matrix(1,0,0,-1,42.0616,218.109)">
        <rect x="0" y="0" width="40" height="40" style="fill:none;stroke:black;stroke-width:1px;"/>
    </g>
    <g transform="matrix(0.42,0,0,-0.42,254.062,-84.8907)">
        <clipPath id="6_clip41">
            <rect x="-492.857" y="-542.857" width="95.238" height="95.238" clip-rule="nonzero"/>
        </clipPath>
        <g clip-path="url(#6_clip41)">
            <rect x="-838.095" y="-1740.48" width="2438.1" height="1828.57" style="fill:url(#6_Linear42);"/>
        </g>
    </g>
    <g transform="matrix(1,0,0,-1,47.0616,143.109)">
        <rect x="0" y="0" width="40" height="40" style="fill:none;stroke:black;stroke-width:1px;"/>
    </g>
    <g transform="matrix(0.42,0,0,-0.42,404.062,-84.8907)">
        <clipPath id="6_clip43">
            <rect x="-850" y="-900" width="95.238" height="95.238" clip-rule="nonzero"/>
        </clipPath>
        <g clip-path="url(#6_clip43)">
            <rect x="-1195.24" y="-1740.48" width="2438.1" height="1828.57" style="fill:url(#6_Linear44);"/>
        </g>
    </g>
    <g transform="matrix(1,0,0,-1,47.0616,293.109)">
        <rect x="0" y="0" width="40" height="40" style="fill:none;stroke:black;stroke-width:1px;"/>
    </g>
    <g transform="matrix(0.42,0,0,-0.42,179.062,-84.8907)">
        <clipPath id="6_clip45">
            <rect x="-314.286" y="-364.286" width="95.238" height="95.238" clip-rule="nonzero"/>
        </clipPath>
        <g clip-path="url(#6_clip45)">
            <rect x="-659.524" y="-1740.48" width="2438.1" height="1828.57" style="fill:url(#6_Linear46);"/>
        </g>
    </g>
    <g transform="matrix(1,0,0,-1,47.0616,68.1093)">
        <rect x="0" y="0" width="40" height="40" style="fill:none;stroke:black;stroke-width:1px;"/>
    </g>
    <g transform="matrix(0.42,0,0,-0.42,254.062,85.1093)">
        <clipPath id="6_clip47">
            <rect x="-88.095" y="-138.095" width="95.238" height="95.238" clip-rule="nonzero"/>
        </clipPath>
        <g clip-path="url(#6_clip47)">
            <rect x="-838.095" y="-1335.71" width="2438.1" height="1828.57" style="fill:url(#6_Linear48);"/>
        </g>
    </g>
    <g transform="matrix(1,0,0,-1,217.062,143.109)">
        <rect x="0" y="0" width="40" height="40" style="fill:none;stroke:black;stroke-width:1px;"/>
    </g>
    <g transform="matrix(1,0,0,1,-97.9384,-121.891)">
        <text x="114px" y="329px" style="font-family:'HelveticaNeue-Medium', 'Helvetica Neue', sans-serif;font-weight:500;font-size:22px;fill:white;">4</text>
    </g>
    <g transform="matrix(1,0,0,1,-97.9384,-121.891)">
        <text x="289px" y="254px" style="font-family:'HelveticaNeue-Medium', 'Helvetica Neue', sans-serif;font-weight:500;font-size:22px;fill:white;">7</text>
    </g>
    <g transform="matrix(1,0,0,1,-97.9384,-121.891)">
        <text x="234px" y="329px" style="font-family:'HelveticaNeue-Medium', 'Helvetica Neue', sans-serif;font-weight:500;font-size:22px;fill:white;">7</text>
    </g>
    <g transform="matrix(1,0,0,1,-97.9384,-121.891)">
        <text x="279px" y="404px" style="font-family:'HelveticaNeue-Medium', 'Helvetica Neue', sans-serif;font-weight:500;font-size:22px;fill:white;">4</text>
    </g>
    <g transform="matrix(1,0,0,1,-97.9384,-121.891)">
        <text x="239px" y="179px" style="font-family:'HelveticaNeue-Medium', 'Helvetica Neue', sans-serif;font-weight:500;font-size:22px;fill:white;">1</text>
    </g>
    <g transform="matrix(1,0,0,1,-97.9384,-121.891)">
        <text x="244px" y="254px" style="font-family:'HelveticaNeue-Medium', 'Helvetica Neue', sans-serif;font-weight:500;font-size:22px;fill:white;">8</text>
    </g>
    <g transform="matrix(1,0,0,1,-97.9384,-121.891)">
        <text x="194px" y="329px" style="font-family:'HelveticaNeue-Medium', 'Helvetica Neue', sans-serif;font-weight:500;font-size:22px;fill:white;">7</text>
    </g>
    <g transform="matrix(1,0,0,1,-97.9384,-121.891)">
        <text x="199px" y="254px" style="font-family:'HelveticaNeue-Medium', 'Helvetica Neue', sans-serif;font-weight:500;font-size:22px;fill:white;">6</text>
    </g>
    <g transform="matrix(1,0,0,1,-97.9384,-121.891)">
        <text x="239px" y="404px" style="font-family:'HelveticaNeue-Medium', 'Helvetica Neue', sans-serif;font-weight:500;font-size:22px;fill:white;">5</text>
    </g>
    <g transform="matrix(1,0,0,1,-97.9384,-121.891)">
        <text x="199px" y="404px" style="font-family:'HelveticaNeue-Medium', 'Helvetica Neue', sans-serif;font-weight:500;font-size:22px;fill:white;">4</text>
    </g>
    <g transform="matrix(1,0,0,1,-97.9384,-121.891)">
        <text x="279px" y="329px" style="font-family:'HelveticaNeue-Medium', 'Helvetica Neue', sans-serif;font-weight:500;font-size:22px;fill:white;">3</text>
    </g>
    <g transform="matrix(1,0,0,1,-97.9384,-121.891)">
        <text x="279px" y="179px" style="font-family:'HelveticaNeue-Medium', 'Helvetica Neue', sans-serif;font-weight:500;font-size:22px;fill:white;">2</text>
    </g>
    <g transform="matrix(1,0,0,1,-97.9384,-121.891)">
        <text x="199px" y="179px" style="font-family:'HelveticaNeue-Medium', 'Helvetica Neue', sans-serif;font-weight:500;font-size:22px;fill:white;">1</text>
    </g>
    <g transform="matrix(1,0,0,1,-97.9384,-121.891)">
        <text x="154px" y="329px" style="font-family:'HelveticaNeue-Medium', 'Helvetica Neue', sans-serif;font-weight:500;font-size:22px;fill:white;">7</text>
    </g>
    <g transform="matrix(1,0,0,1,-97.9384,-121.891)">
        <text x="159px" y="254px" style="font-family:'HelveticaNeue-Medium', 'Helvetica Neue', sans-serif;font-weight:500;font-size:22px;fill:white;">6</text>
    </g>
    <g transform="matrix(1,0,0,1,-97.9384,-121.891)">
        <text x="159px" y="404px" style="font-family:'HelveticaNeue-Medium', 'Helvetica Neue', sans-serif;font-weight:500;font-size:22px;fill:white;">4</text>
    </g>
    <g transform="matrix(1,0,0,1,-97.9384,-121.891)">
        <text x="159px" y="179px" style="font-family:'HelveticaNeue-Medium', 'Helvetica Neue', sans-serif;font-weight:500;font-size:22px;fill:white;">2</text>
    </g>
    <g transform="matrix(1,0,0,1,-97.9384,-121.891)">
        <text x="329px" y="254px" style="font-family:'HelveticaNeue-Medium', 'Helvetica Neue', sans-serif;font-weight:500;font-size:22px;fill:white;">4</text>
    </g>
    <g transform="matrix(1,0,0,-1,19.5279,182.921)">
        <path d="M0.112,5.312C-0.81,26.201 3.98,41.817 14.483,52.159L15.27,52.777" style="fill:none;stroke:black;stroke-width:2px;"/>
    </g>
    <g transform="matrix(1,0,0,1,-97.9384,-386.741)">
        <path d="M134.914,521.277L139.5,511.573L128.985,513.727L134.914,521.277Z" style="fill-rule:nonzero;"/>
    </g>
    <g transform="matrix(1,0,0,-1,84.0781,19.9791)">
        <path d="M0,-7.63C28.11,21.192 55.108,23.486 80.994,-0.747L81.691,-1.464" style="fill:none;stroke:black;stroke-width:2px;"/>
    </g>
    <g transform="matrix(1,0,0,1,-97.9384,-601.12)">
        <path d="M259.569,625.192L269.702,628.729L266.452,618.5L259.569,625.192Z" style="fill-rule:nonzero;"/>
    </g>
    <g transform="matrix(1,0,0,-1,70.8627,191.495)">
        <path d="M0,122.884C11.858,71.238 39.422,30.461 82.691,0.553L83.526,0" style="fill:none;stroke:black;stroke-width:2px;"/>
    </g>
    <g transform="matrix(1,0,0,1,-97.9384,-262.929)">
        <path d="M248.845,457.876L259.5,459.169L254.142,449.869L248.845,457.876Z" style="fill-rule:nonzero;"/>
    </g>
    <g transform="matrix(1,0,0,-1,16.581,182.833)">
        <path d="M3.019,5.224C-3.819,69.629 0.96,110.393 17.355,127.516L18.149,128.123" style="fill:none;stroke:black;stroke-width:2px;"/>
    </g>
    <g transform="matrix(1,0,0,1,-97.9384,-537.493)">
        <path d="M134.79,596.623L139.5,586.979L128.958,588.998L134.79,596.623Z" style="fill-rule:nonzero;"/>
    </g>
    <g transform="matrix(1,0,0,-1,82.5616,194.349)">
        <path d="M0,7.554C19.969,19.521 33.757,31.105 41.363,42.305L41.842,43.186" style="fill:none;stroke:black;stroke-width:2px;"/>
    </g>
    <g transform="matrix(1,0,0,1,-97.9384,-348.164)">
        <path d="M226.08,502.5L226.451,491.773L217.647,497.913L226.08,502.5Z" style="fill-rule:nonzero;"/>
    </g>
    <g transform="matrix(1,0,0,-1,80.4987,248.162)">
        <path d="M0,-4.447C14.125,12.151 28.888,14.331 44.287,2.092L45.019,1.411" style="fill:none;stroke:black;stroke-width:2px;"/>
    </g>
    <g transform="matrix(1,0,0,1,-97.9384,-150.944)">
        <path d="M219.454,400.528L229.752,403.554L225.994,393.5L219.454,400.528Z" style="fill-rule:nonzero;"/>
    </g>
    <g transform="matrix(1,0,0,-1,126.012,94.8557)">
        <path d="M0,-7.754C31.62,21.569 61.122,23.826 88.504,-0.983L89.213,-1.688" style="fill:none;stroke:black;stroke-width:2px;"/>
    </g>
    <g transform="matrix(1,0,0,1,-97.9384,-451.064)">
        <path d="M309.069,550.306L319.26,553.674L315.84,543.5L309.069,550.306Z" style="fill-rule:nonzero;"/>
    </g>
    <g transform="matrix(1,0,0,-1,200.728,184.765)">
        <path d="M0,7.156L17.341,33.166L17.896,34" style="fill:none;stroke:black;stroke-width:2px;"/>
    </g>
    <g transform="matrix(1,0,0,1,-97.9384,-348.24)">
        <path d="M320.002,502.5L321.333,491.85L312.014,497.175L320.002,502.5Z" style="fill-rule:nonzero;"/>
    </g>
    <g transform="matrix(1,0,0,-1,207.562,94.0102)">
        <path d="M0,42.065C21.088,35.541 32.204,21.853 33.346,1L33.332,0" style="fill:none;stroke:black;stroke-width:2px;"/>
    </g>
    <g transform="matrix(1,0,0,1,-97.9384,-450.559)">
        <path d="M334.047,543.5L338.709,553.168L343.646,543.638L334.047,543.5Z" style="fill-rule:nonzero;"/>
    </g>
    <g transform="matrix(1,0,0,-1,167.562,95.2589)">
        <path d="M0,40.21C27.965,29.535 47.52,16.417 58.664,0.857L59.185,0" style="fill:none;stroke:black;stroke-width:2px;"/>
    </g>
    <g transform="matrix(1,0,0,1,-97.9384,-451.588)">
        <path d="M320.063,548.483L329.149,554.197L328.268,543.5L320.063,548.483Z" style="fill-rule:nonzero;"/>
    </g>
    <g transform="matrix(1,0,0,-1,21.3212,266.516)">
        <path d="M0,47.907C0.235,25.411 4.453,9.646 12.653,0.613L13.444,0" style="fill:none;stroke:black;stroke-width:2px;"/>
    </g>
    <g transform="matrix(1,0,0,1,-97.9384,-112.213)">
        <path d="M128.972,381.91L139.5,383.999L134.855,374.323L128.972,381.91Z" style="fill-rule:nonzero;"/>
    </g>
    <g transform="matrix(1,0,0,-1,207.562,279.132)">
        <path d="M0,8.593C16.021,20.859 25.552,59.971 28.592,125.931L28.632,126.93" style="fill:none;stroke:black;stroke-width:2px;"/>
    </g>
    <g transform="matrix(1,0,0,1,-97.9384,-349.104)">
        <path d="M338.888,502.5L334.481,492.713L329.296,502.11L338.888,502.5Z" style="fill-rule:nonzero;"/>
    </g>
    <g transform="matrix(1,0,0,-1,123.183,312.037)">
        <path d="M0,18.428C15.912,2.293 30.703,0 44.375,11.55L45.074,12.268" style="fill:none;stroke:black;stroke-width:2px;"/>
    </g>
    <g transform="matrix(1,0,0,1,-97.9384,-48.6649)">
        <path d="M268.936,352.5L272.197,342.274L262.06,345.801L268.936,352.5Z" style="fill-rule:nonzero;"/>
    </g>
    <g transform="matrix(1,0,0,-1,127.062,143.109)">
        <rect x="0" y="0" width="5" height="40" style="fill:none;stroke:black;stroke-width:1px;"/>
    </g>
    <g transform="matrix(1,0,0,-1,162.062,218.109)">
        <rect x="0" y="0" width="5" height="40" style="fill:none;stroke:black;stroke-width:1px;"/>
    </g>
    <g transform="matrix(1,0,0,-1,172.062,143.109)">
        <rect x="0" y="0" width="5" height="40" style="fill:none;stroke:black;stroke-width:1px;"/>
    </g>
    <g transform="matrix(1,0,0,-1,42.0616,293.109)">
        <rect x="0" y="0" width="5" height="40" style="fill:none;stroke:black;stroke-width:1px;"/>
    </g>
    <g transform="matrix(1,0,0,-1,42.0616,143.109)">
        <rect x="0" y="0" width="5" height="40" style="fill:none;stroke:black;stroke-width:1px;"/>
    </g>
    <g transform="matrix(1,0,0,-1,42.0616,68.1093)">
        <rect x="0" y="0" width="5" height="40" style="fill:none;stroke:black;stroke-width:1px;"/>
    </g>
    <g transform="matrix(1,0,0,-1,157.095,184.544)">
        <path d="M0,6.935L19.255,33.193L19.848,34" style="fill:none;stroke:black;stroke-width:2px;"/>
    </g>
    <g transform="matrix(1,0,0,1,-97.9384,-348.311)">
        <path d="M278.16,502.5L279.967,491.92L270.419,496.823L278.16,502.5Z" style="fill-rule:nonzero;"/>
    </g>
    <defs>
        <linearGradient id="6_Linear2" x1="0" y1="0" x2="1" y2="0" gradientUnits="userSpaceOnUse" gradientTransform="matrix(0,-100,-100,-0,1192.95,1192.95)"><stop offset="0" style="stop-color:rgb(214,213,213);stop-opacity:1"/><stop offset="1" style="stop-color:rgb(94,94,94);stop-opacity:1"/></linearGradient>
        <linearGradient id="6_Linear4" x1="0" y1="0" x2="1" y2="0" gradientUnits="userSpaceOnUse" gradientTransform="matrix(0,-100,-100,-0,1192.95,1192.95)"><stop offset="0" style="stop-color:rgb(214,213,213);stop-opacity:1"/><stop offset="1" style="stop-color:rgb(94,94,94);stop-opacity:1"/></linearGradient>
        <linearGradient id="6_Linear6" x1="0" y1="0" x2="1" y2="0" gradientUnits="userSpaceOnUse" gradientTransform="matrix(0,-100,-100,-0,1192.95,1192.95)"><stop offset="0" style="stop-color:rgb(214,213,213);stop-opacity:1"/><stop offset="1" style="stop-color:rgb(94,94,94);stop-opacity:1"/></linearGradient>
        <linearGradient id="6_Linear8" x1="0" y1="0" x2="1" y2="0" gradientUnits="userSpaceOnUse" gradientTransform="matrix(0,-100,-100,-0,1192.95,1192.95)"><stop offset="0" style="stop-color:rgb(214,213,213);stop-opacity:1"/><stop offset="1" style="stop-color:rgb(94,94,94);stop-opacity:1"/></linearGradient>
        <linearGradient id="6_Linear10" x1="0" y1="0" x2="1" y2="0" gradientUnits="userSpaceOnUse" gradientTransform="matrix(0,-100,-100,-0,1192.95,1192.95)"><stop offset="0" style="stop-color:rgb(214,213,213);stop-opacity:1"/><stop offset="1" style="stop-color:rgb(94,94,94);stop-opacity:1"/></linearGradient>
        <linearGradient id="6_Linear12" x1="0" y1="0" x2="1" y2="0" gradientUnits="userSpaceOnUse" gradientTransform="matrix(0,-100,-100,-0,1192.95,1192.95)"><stop offset="0" style="stop-color:rgb(214,213,213);stop-opacity:1"/><stop offset="1" style="stop-color:rgb(94,94,94);stop-opacity:1"/></linearGradient>
        <linearGradient id="6_Linear14" x1="0" y1="0" x2="1" y2="0" gradientUnits="userSpaceOnUse" gradientTransform="matrix(0,-100,-100,-0,-730.952,-730.952)"><stop offset="0" style="stop-color:rgb(250,226,50);stop-opacity:1"/><stop offset="1" style="stop-color:rgb(255,147,0);stop-opacity:1"/></linearGradient>
        <linearGradient id="6_Linear16" x1="0" y1="0" x2="1" y2="0" gradientUnits="userSpaceOnUse" gradientTransform="matrix(0,-100,-100,-0,-135.714,-135.714)"><stop offset="0" style="stop-color:rgb(250,226,50);stop-opacity:1"/><stop offset="1" style="stop-color:rgb(255,147,0);stop-opacity:1"/></linearGradient>
        <linearGradient id="6_Linear18" x1="0" y1="0" x2="1" y2="0" gradientUnits="userSpaceOnUse" gradientTransform="matrix(0,-100,-100,-0,-445.238,-445.238)"><stop offset="0" style="stop-color:rgb(250,226,50);stop-opacity:1"/><stop offset="1" style="stop-color:rgb(255,147,0);stop-opacity:1"/></linearGradient>
        <linearGradient id="6_Linear20" x1="0" y1="0" x2="1" y2="0" gradientUnits="userSpaceOnUse" gradientTransform="matrix(0,-100,-100,-0,-516.667,-516.667)"><stop offset="0" style="stop-color:rgb(86,193,255);stop-opacity:1"/><stop offset="1" style="stop-color:rgb(0,118,186);stop-opacity:1"/></linearGradient>
        <linearGradient id="6_Linear22" x1="0" y1="0" x2="1" y2="0" gradientUnits="userSpaceOnUse" gradientTransform="matrix(0,-100,-100,-0,-76.1905,-76.1905)"><stop offset="0" style="stop-color:rgb(86,193,255);stop-opacity:1"/><stop offset="1" style="stop-color:rgb(0,118,186);stop-opacity:1"/></linearGradient>
        <linearGradient id="6_Linear24" x1="0" y1="0" x2="1" y2="0" gradientUnits="userSpaceOnUse" gradientTransform="matrix(0,-100,-100,-0,-242.857,-242.857)"><stop offset="0" style="stop-color:rgb(86,193,255);stop-opacity:1"/><stop offset="1" style="stop-color:rgb(0,118,186);stop-opacity:1"/></linearGradient>
        <linearGradient id="6_Linear26" x1="0" y1="0" x2="1" y2="0" gradientUnits="userSpaceOnUse" gradientTransform="matrix(0,-100,-100,-0,-540.476,-540.476)"><stop offset="0" style="stop-color:rgb(250,226,50);stop-opacity:1"/><stop offset="1" style="stop-color:rgb(255,147,0);stop-opacity:1"/></linearGradient>
        <linearGradient id="6_Linear28" x1="0" y1="0" x2="1" y2="0" gradientUnits="userSpaceOnUse" gradientTransform="matrix(0,-100,-100,-0,-350,-350)"><stop offset="0" style="stop-color:rgb(86,193,255);stop-opacity:1"/><stop offset="1" style="stop-color:rgb(0,118,186);stop-opacity:1"/></linearGradient>
        <linearGradient id="6_Linear30" x1="0" y1="0" x2="1" y2="0" gradientUnits="userSpaceOnUse" gradientTransform="matrix(0,-100,-100,-0,-611.905,-611.905)"><stop offset="0" style="stop-color:rgb(86,193,255);stop-opacity:1"/><stop offset="1" style="stop-color:rgb(0,118,186);stop-opacity:1"/></linearGradient>
        <linearGradient id="6_Linear32" x1="0" y1="0" x2="1" y2="0" gradientUnits="userSpaceOnUse" gradientTransform="matrix(0,-100,-100,-0,-707.143,-707.143)"><stop offset="0" style="stop-color:rgb(86,193,255);stop-opacity:1"/><stop offset="1" style="stop-color:rgb(0,118,186);stop-opacity:1"/></linearGradient>
        <linearGradient id="6_Linear34" x1="0" y1="0" x2="1" y2="0" gradientUnits="userSpaceOnUse" gradientTransform="matrix(0,-100,-100,-0,-338.095,-338.095)"><stop offset="0" style="stop-color:rgb(86,193,255);stop-opacity:1"/><stop offset="1" style="stop-color:rgb(0,118,186);stop-opacity:1"/></linearGradient>
        <linearGradient id="6_Linear36" x1="0" y1="0" x2="1" y2="0" gradientUnits="userSpaceOnUse" gradientTransform="matrix(0,-100,-100,-0,19.0476,19.0476)"><stop offset="0" style="stop-color:rgb(86,193,255);stop-opacity:1"/><stop offset="1" style="stop-color:rgb(0,118,186);stop-opacity:1"/></linearGradient>
        <linearGradient id="6_Linear38" x1="0" y1="0" x2="1" y2="0" gradientUnits="userSpaceOnUse" gradientTransform="matrix(0,-100,-100,-0,-171.429,-171.429)"><stop offset="0" style="stop-color:rgb(86,193,255);stop-opacity:1"/><stop offset="1" style="stop-color:rgb(0,118,186);stop-opacity:1"/></linearGradient>
        <linearGradient id="6_Linear40" x1="0" y1="0" x2="1" y2="0" gradientUnits="userSpaceOnUse" gradientTransform="matrix(0,-100,-100,-0,-635.714,-635.714)"><stop offset="0" style="stop-color:rgb(250,226,50);stop-opacity:1"/><stop offset="1" style="stop-color:rgb(255,147,0);stop-opacity:1"/></linearGradient>
        <linearGradient id="6_Linear42" x1="0" y1="0" x2="1" y2="0" gradientUnits="userSpaceOnUse" gradientTransform="matrix(0,-100,-100,-0,-445.238,-445.238)"><stop offset="0" style="stop-color:rgb(86,193,255);stop-opacity:1"/><stop offset="1" style="stop-color:rgb(0,118,186);stop-opacity:1"/></linearGradient>
        <linearGradient id="6_Linear44" x1="0" y1="0" x2="1" y2="0" gradientUnits="userSpaceOnUse" gradientTransform="matrix(0,-100,-100,-0,-802.381,-802.381)"><stop offset="0" style="stop-color:rgb(86,193,255);stop-opacity:1"/><stop offset="1" style="stop-color:rgb(0,118,186);stop-opacity:1"/></linearGradient>
        <linearGradient id="6_Linear46" x1="0" y1="0" x2="1" y2="0" gradientUnits="userSpaceOnUse" gradientTransform="matrix(0,-100,-100,-0,-266.667,-266.667)"><stop offset="0" style="stop-color:rgb(86,193,255);stop-opacity:1"/><stop offset="1" style="stop-color:rgb(0,118,186);stop-opacity:1"/></linearGradient>
        <linearGradient id="6_Linear48" x1="0" y1="0" x2="1" y2="0" gradientUnits="userSpaceOnUse" gradientTransform="matrix(0,-100,-100,-0,-40.4762,-40.4762)"><stop offset="0" style="stop-color:rgb(250,226,50);stop-opacity:1"/><stop offset="1" style="stop-color:rgb(255,147,0);stop-opacity:1"/></linearGradient>
    </defs>
</svg>
